<?xml version="1.0" encoding="UTF-8"?>
<svg id="Layer_1" data-name="Layer 1" xmlns="http://www.w3.org/2000/svg" viewBox="0 0 192.92 178.05">
  <defs>
    <style>
      .cls-1 {
        fill: #474747;
      }
    </style>
  </defs>
  <g>
    <g>
      <path class="cls-1" d="M157.9,129.2c-.62-.31-.84-1.02-.58-1.63,.27-.61,1-.87,1.62-.59,.62,.28,.89,1.02,.61,1.65-.27,.63-1.05,.87-1.65,.57Z"/>
      <path class="cls-1" d="M98.33,4.82c-.14,.67-.78,1.12-1.43,1-.65-.12-1.09-.76-.98-1.43,.11-.67,.76-1.12,1.43-1,.68,.12,1.12,.76,.98,1.43Z"/>
      <path class="cls-1" d="M107.8,7.32c-.21,.65-.89,.99-1.53,.8-.64-.18-1-.86-.81-1.51,.19-.66,.88-1.03,1.54-.85,.66,.2,1.01,.92,.8,1.56Z"/>
      <path class="cls-1" d="M116.92,10.88c-.29,.62-1.01,.9-1.61,.63-.61-.27-.88-1.01-.62-1.64,.26-.63,.99-.91,1.61-.63,.63,.28,.9,1.02,.62,1.64Z"/>
      <path class="cls-1" d="M125.59,15.44c-.35,.58-1.11,.79-1.69,.46-.58-.33-.77-1.08-.44-1.68,.33-.59,1.09-.8,1.69-.46,.6,.34,.79,1.09,.44,1.68Z"/>
      <path class="cls-1" d="M133.66,20.99c-.42,.54-1.18,.64-1.7,.23-.54-.39-.66-1.15-.25-1.7,.4-.55,1.18-.68,1.74-.27,.54,.42,.64,1.21,.22,1.75Z"/>
      <path class="cls-1" d="M141.05,27.4c-.48,.49-1.25,.51-1.73,.05-.48-.46-.5-1.24-.04-1.74,.46-.5,1.24-.53,1.73-.05,.5,.47,.51,1.26,.04,1.74Z"/>
    </g>
    <g>
      <path class="cls-1" d="M151.61,135.57c-.59,.45-1.16,.92-1.73,1.41-1.67,1.42-3.28,2.93-5.06,4.22-3.48,2.52-7.29,4.58-11.26,6.22-7.89,3.25-16.42,4.88-24.93,5.23-16.15,.67-32.4-4.05-45.74-13.14-24.08-16.4-36.47-47.93-31.01-76.37,3.31-17.25,13.48-32.81,26.97-43.88,5.36-4.4,11.26-8.19,17.6-11.03,3.03-1.36,6.28-2.74,9.55-3.42,1.59-.33,3.28-.72,4.91-1.05,.6-.12,3.2-1.09,1.28-1.34-14.56-1.91-29.81,.79-43.2,6.66-13.21,5.78-23.74,15.53-31.23,27.77C2.7,61.47-.5,93.37,10,120.25c10.6,27.17,34.55,45.72,63.14,50.43,13.54,2.23,27.56,1.19,40.68-2.74,12.05-3.61,23.44-9.74,31.48-19.57,3.38-4.14,6.25-8.68,9.07-13.21,.9-1.45-2.42,.15-2.77,.41Zm-53.1,19.97c.33,.42,.46,.9-.15,1.23-.91,.49-2.17-.38-2.34-1.32-.01-.08-.03-.16-.03-.27,0-.08,0-.21,.02-.34,.02-.1,.07-.19,.12-.25,.46-.56,1.1-.16,1.54,.16,.23,.17,.6,.46,.85,.79Zm-17.18-.98c-.12-.08-.22-.17-.3-.28-.11-.14-.15-.24-.21-.38l-.02-.06h0c-.02-.07-.04-.13-.06-.22-.01-.05-.04-.17-.04-.29,0-.11,.02-.2,.04-.23,.03-.07,.08-.11,.12-.14,.07-.03,.13-.05,.23-.05,.11,0,.25,.04,.38,.08,.14,.04,.25,.08,.35,.13h0l.3,.13,.15,.07h0s.02,0,.02,0c.04,.02,.09,.04,.14,.06,.07,.03,.14,.06,.22,.09,.13,.06,.24,.13,.28,.17,.09,.07,.16,.17,.25,.28,.08,.11,.13,.2,.17,.3,.04,.11,.06,.23,.06,.32,0,.05,0,.09-.02,.12-.05-.04-.11-.07-.19-.1-.27-.09-.53,0-.6,.21-.03,.09-.02,.18,.01,.3-.06,0-.12,0-.19-.01-.17-.02-.27-.05-.34-.08-.08-.03-.15-.07-.22-.11l-.21-.13c-.11-.07-.22-.13-.32-.21Zm-2.91,6.99h0s-.32,.02-.32,.02h-.18s0,.01,0,.01h-.07c-.11,.01-.27,.03-.44,.05-.22,.03-.46,.06-.66,.06-.08,0-.15,0-.23,0-.08,0-.17,0-.27,0h-.22c-.2,0-.39,0-.58,.02-.18,.01-.39,.02-.59,.02-.26,0-.44-.02-.63-.03h0s-.2-.02-.2-.02l-.3-.03h0s-.09,0-.09,0c-.11,0-.28,0-.45,0-.23,0-.48,0-.64-.02-.1,0-.21-.03-.31-.05-.08-.02-.16-.03-.23-.04h-.08c-.26-.06-.52-.07-.77-.09-.19-.01-.38-.02-.57-.05-.24-.03-.41-.07-.58-.11-.01,0-.03,0-.04,0h0s-.2-.05-.2-.05c0,0,0,0,0,0l-.29-.06h0s-.07,0-.1-.01c-.11-.02-.27-.03-.44-.05h-.09c-.19-.03-.38-.06-.47-.08l-.6-.16c-.21-.05-.41-.08-.66-.12-.2-.02-.41-.06-.61-.1-.23-.05-.39-.1-.56-.15h-.01s0,0,0,0l-.21-.06s-.05-.01-.07-.02l-.19-.06h0s-.07-.01-.12-.02c-.36-.07-.81-.17-1.02-.23l-1.42-.44c-.15-.04-.3-.08-.46-.13-.28-.09-.47-.17-.67-.25l-.1-.04h0c-.11-.05-.22-.1-.37-.15-.09-.04-.23-.08-.37-.13-.24-.08-.5-.17-.66-.24-.08-.04-.16-.08-.24-.11l-.32-.17c-.23-.12-.47-.22-.7-.32-.18-.07-.36-.15-.54-.23-.21-.1-.35-.2-.49-.29h0s-.22-.14-.22-.14c0,0-.01,0-.02-.01l-.18-.11h0s-.09-.05-.14-.08l-.5-.26c-.15-.07-.29-.17-.39-.24l-.56-.42c-.18-.14-.38-.26-.57-.38-.19-.12-.36-.25-.54-.38-.18-.13-.3-.24-.42-.35h0s-.21-.19-.21-.19c0,0-.02-.02-.03-.03l-.13-.12h0s-.09-.07-.14-.11c-.23-.18-.65-.54-.83-.7l-.44-.47c-.15-.15-.31-.3-.47-.45-.17-.16-.34-.32-.5-.48-.16-.16-.26-.28-.36-.4h0s-.19-.22-.19-.22c0,0-.02-.02-.02-.03l-.12-.13h0s-.07-.08-.12-.13c-.07-.08-.17-.18-.28-.29-.18-.18-.37-.39-.48-.51l-1.3-1.51c-.13-.15-.23-.27-.31-.39-.06-.08-.13-.16-.2-.24l-.25-.32c-.09-.11-.23-.28-.38-.44-.08-.09-.15-.17-.22-.25,.05,.02,.11,.05,.16,.08,.15,.07,.3,.14,.46,.22,.22,.11,.42,.2,.62,.28h0s.21,.08,.21,.08c0,0,0,0,0,0,0,0,0,0,0,0l.26,.09h0c.06,.02,.12,.04,.18,.06l.99,.31c.08,.02,.17,.05,.25,.07,.14,.04,.27,.09,.42,.12l.32,.06c.14,.03,.27,.05,.4,.08,.17,.03,.34,.06,.53,.11,.22,.04,.42,.08,.62,.11h0s.24,.04,.24,.04l.25,.04h0s.36,.05,.36,.05c.26,.04,.52,.07,.79,.11,.09,.01,.18,.03,.27,.05,.13,.02,.25,.05,.38,.06l.31,.03c.14,.02,.27,.03,.4,.04,.17,.01,.34,.03,.52,.05,.3,.05,.57,.08,.83,.11h0s.63,.09,.63,.09c.25,.03,.52,.07,.78,.12,.11,.02,.21,.04,.31,.07,.1,.03,.21,.05,.32,.07l.31,.05c.13,.03,.25,.05,.38,.07,.18,.03,.36,.06,.54,.11,.17,.05,.33,.09,.49,.13,.03,0,.07,.02,.1,.03h0l.31,.08,.17,.05h0s.57,.15,.57,.15c.2,.06,.39,.11,.58,.18,.09,.03,.18,.07,.26,.1,.12,.05,.24,.1,.37,.14l.32,.1c.1,.03,.2,.06,.29,.09,.21,.07,.41,.13,.62,.22l.57,.23h0s.22,.09,.22,.09l.24,.1h0c.13,.05,.27,.1,.41,.16l.15,.06c.2,.08,.4,.17,.6,.27,.09,.04,.18,.09,.27,.14,.11,.06,.23,.12,.35,.18l.52,.23c.24,.1,.46,.2,.69,.33l.14,.08c.14,.08,.27,.15,.4,.22h0s.22,.12,.22,.12c0,0,.01,0,.02,.01h0s.61,.33,.61,.33c.25,.13,.5,.28,.74,.43,.09,.06,.18,.12,.27,.18,.1,.07,.21,.15,.32,.22l.3,.17c.09,.06,.18,.11,.28,.17,.17,.1,.35,.21,.52,.33,.16,.12,.32,.23,.47,.34h0s1.43,.96,1.43,.96c.07,.05,.14,.11,.21,.17,.1,.08,.2,.16,.32,.24l.28,.18c.1,.06,.19,.12,.29,.18,.17,.1,.34,.2,.51,.33,.16,.12,.32,.23,.47,.33h0s.19,.13,.19,.13l.22,.15h0s1.05,.67,1.05,.67c.08,.05,.15,.11,.22,.16,.1,.08,.21,.16,.33,.23l.14,.08c-.24-.05-.49-.09-.73-.12-.07,0-.13-.02-.2-.03v-.03c-.05-.14-.18-.23-.64-.43-.19-.07-.56-.19-.89-.19-.1,0-.31,.06-.36,.24-.07-.01-.13-.03-.2-.04,0-.15-.06-.34-.31-.49l-.04-.03c-.43-.26-.87-.53-1.4-.7-.06-.02-.13-.05-.2-.08-.27-.12-.6-.18-.75,.02-.07,.1-.1,.21-.07,.32,.05,.18,.22,.28,.39,.35-.2-.06-.35-.11-.5-.16h0s0,0,0,0l-.22-.07s-.05-.01-.07-.02l-.18-.06h0s-.08-.02-.12-.03c-.09-.03-.22-.06-.36-.1-.24-.06-.51-.14-.67-.18l-.6-.22c-.26-.09-.53-.16-.79-.23-.16-.04-.33-.09-.49-.14-.24-.07-.4-.13-.57-.19h0s-.22-.08-.22-.08c-.01,0-.03,0-.04-.01l-.21-.07h0s-.08-.02-.12-.03c-.12-.03-.29-.08-.46-.12-.22-.06-.44-.11-.58-.16l-.6-.21c-.26-.09-.53-.16-.79-.22-.17-.04-.33-.08-.49-.13-.23-.07-.4-.13-.57-.18h0s0,0,0,0l-.22-.07s-.05-.02-.07-.02l-.18-.06h0s-.08-.02-.12-.03c-.1-.03-.25-.07-.41-.11-.23-.06-.48-.13-.63-.17l-.61-.21c-.25-.08-.51-.16-.76-.23-.17-.05-.34-.09-.51-.15-.23-.07-.4-.13-.57-.2h0s-.25-.09-.25-.09l-.22-.08h0s-.12-.04-.12-.04c-.11-.04-.27-.08-.43-.13-.22-.07-.46-.14-.6-.19l-.6-.22c-.21-.08-.43-.15-.64-.22l-.63-.2c-.23-.08-.4-.14-.56-.2h0s-.28-.11-.28-.11l-.18-.07h0s-.14-.05-.14-.05c0,0-.33-.12-.5-.12h-.07c-.08,.02-.2,.04-.28,.16l-.06,.13,.03,.11s.03,.11,.26,.28c.07,.05,.19,.11,.35,.17,.07,.02,.13,.05,.2,.08l.42,.18h0c.05,.02,.11,.04,.16,.06l.98,.38c.09,.03,.18,.07,.26,.11,.12,.05,.24,.1,.37,.15l.32,.1c.12,.04,.23,.08,.34,.11,.19,.06,.37,.12,.57,.2,.2,.08,.39,.15,.58,.21h0s.37,.13,.37,.13l.1,.03h0s1.16,.37,1.16,.37c.08,.03,.16,.06,.24,.09,.13,.05,.26,.1,.4,.14l.32,.09c.11,.03,.23,.07,.34,.1,.19,.05,.38,.1,.58,.17,.21,.07,.4,.13,.58,.19h0s1.63,.49,1.63,.49c.09,.03,.18,.06,.26,.09,.12,.04,.24,.09,.37,.13l.32,.08c.11,.03,.23,.06,.34,.09,.19,.05,.38,.1,.58,.17,.2,.07,.39,.13,.58,.19h0s1.63,.5,1.63,.5c.09,.03,.17,.06,.26,.1,.12,.05,.24,.09,.37,.13l.32,.09c.11,.03,.23,.06,.34,.1,.19,.05,.38,.1,.57,.17,.21,.08,.4,.13,.59,.19h0s.19,.05,.19,.05c.01,0,.03,0,.05,.01l.24,.07h0s1.17,.32,1.17,.32c.09,.03,.18,.06,.26,.09,.12,.04,.25,.08,.38,.12l.32,.07c.12,.03,.23,.05,.34,.07,.19,.04,.38,.08,.58,.14,.21,.06,.41,.11,.6,.15h0s.13,.03,.13,.03h.06c-.21,0-.41,0-.63,.04-.05,0-.1,0-.15,0-.18,0-.59,.02-.58,.4,0,.12,.06,.4,.49,.4h.19s.04,0,.05,0c.33,.05,.59,.07,.84,.07h0c.31,0,.59-.04,.86-.12l.25-.08-.09-.24c-.04-.1-.1-.19-.18-.25l.2,.04c-.02,.06-.02,.12,0,.19,.03,.07,.11,.24,.26,.29,.13,.05,.3,.07,.46,.07,.27,0,.61-.07,.79-.26,.02,0,.03,0,.05,0,.19,.02,.38,.05,.59,.09,.06,.01,.12,.02,.19,.03-.1,.02-.2,.03-.29,.05-.21,.04-.41,.08-.62,.11-.24,.03-.41,.04-.58,.04h-.03Zm-40.92-34.25h0s.17-.28,.17-.28c.06-.1,.16-.23,.25-.36,.09-.13,.18-.23,.23-.28,.04-.04,.07-.07,.09-.09,0,.01,.01,.03,.02,.04,.01,.03,.02,.07,.03,.1,0,.04,.02,.09,.04,.15,.02,.06,.04,.12,.06,.19l.02,.05,.08,.29c.03,.09,.07,.24,.11,.39,.02,.1,.05,.21,.07,.3,.01,.06,.03,.11,.04,.15,.03,.15,.04,.3,.05,.46v.08c0,.06,0,.13,0,.19l-.05,.22c-.08,.21-.16,.39-.24,.55-.06,.11-.11,.18-.15,.22l-.04-.02c-.11-.06-.21-.06-.31-.06l-.12-.04-.11-.04s-.08-.03-.12-.05l-.09-.04c-.13-.06-.2-.11-.24-.14-.03-.03-.07-.07-.09-.09l-.07-.1s-.04-.09-.05-.12v-.05s-.03-.06-.03-.07v-.15s0-.13,0-.13c0-.04,0-.09,.01-.14v-.06c.01-.06,.03-.13,.05-.2l.02-.06c.02-.06,.03-.12,.06-.18,.1-.25,.19-.41,.32-.62Zm-4.72-9.43c.07-.16,.15-.26,.25-.38l.04-.05h.01c.05-.06,.09-.11,.17-.18,.04-.04,.14-.13,.27-.21,.1-.06,.21-.1,.27-.11,.08-.01,.14,0,.22,.02,.07,.04,.12,.08,.17,.14,.05,.07,.09,.18,.12,.31,.03,.13,.05,.24,.06,.34h0s.03,.22,.03,.22l.03,.28h0s0,.04,0,.04c.01,.08,.03,.19,.03,.29,0,.13,0,.25-.01,.3-.02,.11-.07,.22-.14,.35-.06,.11-.11,.2-.21,.3-.09,.1-.2,.18-.31,.24-.05,.03-.1,.05-.15,.06,0-.05,0-.1,0-.16-.05-.24-.2-.39-.4-.39l-.11,.02c-.09,.03-.17,.08-.26,.17l-.03,.04s-.06-.09-.08-.15c-.07-.14-.09-.23-.1-.3-.01-.06-.01-.14-.01-.22v-.22c.02-.12,.02-.25,.04-.37,.02-.15,.05-.28,.1-.39Zm-8.47,2.04s-.02-.02-.03-.03l-.14-.17h0s-.04-.04-.06-.06c-.06-.07-.15-.15-.25-.25-.16-.16-.34-.33-.43-.45-.05-.06-.1-.13-.15-.2-.05-.07-.1-.14-.15-.2l-.04-.05c-.15-.2-.31-.38-.47-.55-.11-.12-.22-.24-.32-.36-.13-.17-.22-.29-.3-.41h0s-.12-.19-.12-.19l-.14-.23h-.01s-.03-.04-.05-.07c-.06-.09-.16-.2-.27-.33-.13-.16-.27-.32-.35-.44-.05-.07-.09-.15-.14-.23-.04-.07-.07-.13-.11-.19l-.03-.06c-.13-.22-.28-.42-.42-.61-.09-.12-.19-.25-.27-.37-.11-.17-.17-.3-.24-.44h0s-.11-.21-.11-.21h0s0,0,0,0l-.12-.23h0s-.03-.05-.05-.08c-.06-.09-.15-.22-.24-.36l-.04-.06c-.1-.15-.19-.29-.23-.38-.04-.07-.07-.15-.1-.22-.03-.08-.07-.16-.1-.23l-.03-.06c-.09-.19-.2-.37-.3-.55-.09-.14-.18-.3-.27-.48-.09-.18-.14-.32-.19-.45h0s-.09-.22-.09-.22c0-.02-.02-.04-.02-.05l-.07-.19h0s-.03-.05-.04-.09c-.07-.14-.31-.61-.41-.85-.03-.08-.05-.15-.08-.23-.03-.08-.05-.17-.08-.24l-.29-.76c-.06-.14-.12-.28-.17-.42-.09-.27-.13-.44-.18-.65v-.06c-.03-.1-.06-.21-.09-.34-.03-.1-.07-.25-.12-.4-.06-.2-.13-.4-.16-.54-.02-.08-.03-.16-.04-.22,0-.09-.02-.18-.03-.26v-.07c-.04-.25-.1-.49-.15-.72-.04-.16-.08-.31-.11-.47-.03-.2-.03-.34-.04-.5h0s0-.23,0-.23c0,0,0,0,0,0v-.26s-.02,0-.02,0c0-.03,0-.06,0-.1-.01-.11-.03-.26-.06-.42v-.09c-.04-.14-.04-.28-.04-.39v-.06c0-.09,0-.17,.01-.26,0-.08,.01-.16,.01-.24v-.07c.01-.2,0-.4,0-.63-.01-.19,0-.39,0-.58,0-.2,.03-.35,.06-.5h0s.04-.23,.04-.23c0-.02,0-.04,0-.06l.03-.2h0s0-.07,.01-.11c0-.07,.01-.17,.02-.28,.02-.24,.03-.53,.06-.71l.12-.54c.05-.23,.07-.47,.1-.71,.02-.17,.04-.33,.06-.5,.03-.21,.07-.35,.1-.5h0s.05-.27,.05-.27l.05-.21h0s.02-.11,.02-.11c.02-.12,.04-.29,.06-.46,.02-.2,.05-.4,.07-.51l.13-.57c.05-.2,.07-.41,.1-.62l.06-.59c.03-.18,.05-.32,.08-.45,0-.02,0-.05,.01-.07h0s.04-.24,.04-.24c0,0,0,0,0,0h0s.04-.25,.04-.25h0s0-.07,.01-.11c.01-.11,.02-.27,.03-.44,.01-.18,.02-.36,.04-.5,.04,.1,.09,.2,.13,.29,.06,.13,.12,.25,.18,.4,.1,.23,.21,.44,.31,.64l.16,.31h0c.05,.09,.1,.18,.16,.27l.44,.72c.04,.07,.08,.14,.12,.21,.06,.12,.12,.23,.2,.34l.18,.25c.07,.11,.15,.21,.22,.31,.1,.14,.2,.27,.3,.42,.1,.16,.21,.31,.31,.46h0s.18,.24,.18,.24l.12,.16h0s.67,.9,.67,.9c.05,.07,.1,.14,.14,.22,.06,.1,.13,.21,.21,.31l.18,.23c.07,.1,.14,.19,.22,.28,.11,.13,.21,.27,.31,.42,.15,.24,.29,.45,.44,.65h0s.34,.5,.34,.5c.14,.2,.26,.4,.38,.61,.05,.08,.09,.17,.13,.26,.04,.09,.09,.19,.14,.28l.15,.25c.05,.08,.09,.17,.14,.25,.1,.17,.19,.33,.26,.5,.06,.15,.12,.29,.19,.43,.02,.05,.05,.11,.07,.16l.12,.29,.02,.06h0s.21,.49,.21,.49c.07,.17,.13,.34,.19,.5,.02,.08,.04,.16,.06,.23,.03,.12,.06,.24,.1,.36l.1,.28c.03,.09,.06,.18,.09,.26,.07,.18,.13,.36,.17,.56l.12,.51h0s.06,.24,.06,.24c0,0,0,.01,0,.02l.05,.22h0c.03,.11,.06,.22,.08,.34l.03,.15c.04,.19,.09,.37,.11,.56,.01,.09,.02,.17,.03,.26,.01,.12,.02,.24,.05,.36l.11,.51c.05,.23,.09,.44,.11,.68v.15c.02,.14,.04,.27,.05,.4h0s.09,.87,.09,.87c.03,.25,.04,.49,.05,.74,0,.09,0,.19,0,.28,0,.11,0,.23,0,.35l.03,.3c0,.1,.01,.21,.02,.31,.01,.19,.03,.38,.02,.57-.01,.2-.01,.38-.01,.55h0v.22s0,.28,0,.28h0v.36s-.01,.74-.01,.74c0,.08-.02,.17-.03,.25-.01,.12-.03,.25-.03,.38v.3c0,.11,0,.23,0,.34,0,.18,0,.35-.01,.54-.02,.19-.03,.37-.04,.55h0s0,.29,0,.29v.21s0,0,0,0l-.02,.52c0,.2-.01,.39-.03,.59,0,.08-.02,.17-.03,.25-.02,.12-.03,.25-.03,.38v.3s0,.01,0,.02l-.03-.08c-.08-.22-.19-.42-.29-.62-.03-.06-.06-.12-.09-.17h.02c.11-.13,.13-.31,.05-.75-.04-.14-.14-.51-.34-.78-.07-.09-.2-.16-.31-.16h-.07s-.05,.02-.05,.02c0,0,0,0,0,0,0,0,0,0,0-.01-.02-.04-.03-.07-.05-.11,.14-.08,.27-.23,.27-.51,0-.44-.01-.96-.18-1.48-.02-.05-.03-.11-.04-.17-.04-.2-.11-.56-.48-.56h0c-.16,0-.26,.09-.31,.15-.12,.16-.08,.36-.05,.52,.01,.05,.02,.1,.02,.15,0,.01,0,.03,0,.04-.02-.05-.05-.1-.07-.15-.08-.19-.12-.33-.17-.47h0s-.07-.22-.07-.22c0-.02-.02-.04-.02-.07l-.06-.18h0s-.02-.06-.03-.09c-.04-.09-.1-.22-.16-.36-.09-.19-.18-.4-.22-.52l-.17-.55c-.08-.24-.18-.47-.28-.69-.06-.14-.12-.28-.18-.42-.08-.19-.12-.34-.16-.48h0s-.07-.22-.07-.22c0-.02-.02-.05-.02-.07l-.05-.17h0s-.02-.06-.03-.09c-.04-.1-.1-.24-.17-.39-.08-.18-.17-.38-.21-.5l-.17-.55c-.08-.24-.18-.47-.28-.69-.06-.14-.12-.28-.18-.41-.08-.19-.12-.33-.16-.48h0s-.07-.23-.07-.23c0,0,0-.01,0-.02l-.07-.23h0s-.02-.05-.03-.09c-.04-.1-.1-.23-.16-.37-.08-.19-.17-.39-.21-.52l-.17-.55c-.07-.23-.16-.44-.25-.66-.06-.15-.13-.3-.18-.45-.08-.21-.12-.36-.17-.51h0s0,0,0,0l-.08-.22-.06-.21h0s-.03-.09-.03-.09c-.04-.1-.09-.24-.15-.38-.08-.19-.16-.4-.2-.52l-.16-.55c-.06-.2-.13-.39-.2-.58l-.21-.55c-.07-.19-.11-.34-.16-.48h0s-.11-.32-.11-.32l-.05-.15h0s-.03-.09-.04-.12c-.04-.11-.15-.38-.29-.48-.06-.04-.14-.1-.24-.1l-.15,.02-.07,.08s-.08,.09-.1,.36c0,.03,0,.14,.08,.36,.02,.05,.04,.1,.05,.16l.02,.07,.1,.37h0s.31,1.03,.31,1.03c.02,.08,.04,.16,.07,.24,.03,.11,.06,.23,.1,.34l.1,.28c.04,.11,.08,.22,.12,.33,.06,.16,.12,.31,.17,.49,.05,.18,.1,.34,.15,.5h0s.1,.29,.1,.29l.06,.18h0s.36,1.01,.36,1.01c.03,.08,.05,.16,.07,.24,.03,.11,.06,.23,.11,.34l.11,.27c.04,.11,.08,.21,.13,.32,.06,.16,.13,.31,.18,.48,.06,.18,.11,.34,.17,.5h0s.13,.34,.13,.34l.05,.13h0s.38,1,.38,1c.03,.08,.05,.16,.07,.23,.03,.11,.07,.23,.11,.34l.11,.27c.04,.1,.08,.2,.12,.29,.07,.16,.14,.32,.19,.5,.06,.17,.11,.33,.17,.49h0s.09,.22,.09,.22c0,0,0,0,0,0l.09,.23h0s.18,.46,.18,.46c.07,.18,.14,.36,.2,.54,.03,.08,.05,.16,.07,.23,.03,.11,.07,.23,.11,.35l.12,.27c.04,.1,.08,.2,.12,.29,.07,.16,.14,.32,.2,.49,.06,.19,.12,.36,.19,.52h0s.11,.28,.11,.28l.06,.14h0s.4,.99,.4,.99c.03,.08,.05,.15,.08,.23,.03,.11,.07,.23,.12,.34l.12,.27c.04,.1,.09,.2,.14,.3,.07,.15,.14,.31,.21,.48,.06,.17,.12,.33,.19,.49h0s.25,.57,.25,.57c-.18-.33-.38-.6-.61-.83-.03-.03-.06-.06-.08-.09-.11-.13-.24-.28-.45-.28-.07,0-.15,.02-.21,.07-.14,.09-.18,.2-.19,.28-.03,.18,.09,.32,.18,.42,.03,.03,.06,.07,.07,.08,.27,.54,.6,.93,1.01,1.21l.18,.12,.14-.16c.09-.1,.17-.25,.14-.44l.12,.26c-.06,.01-.12,.04-.17,.1-.07,.08-.17,.24-.13,.39,.09,.38,.49,.81,.88,.84,.01,.02,.02,.04,.03,.06,.07,.14,.14,.27,.21,.43,.04,.09,.07,.17,.11,.26-.12-.12-.25-.23-.37-.34-.13-.11-.27-.23-.39-.35-.15-.15-.24-.26-.33-.38h0s-.15-.18-.15-.18Zm3.99-53.46c.07,0,.14-.01,.22-.01h.08c.08,0,.22,.02,.35,.06,.88,.28,0,2.24-.39,2.66-.21,.23-1.92,1.24-1.88,.58,0-.13-.03-.24-.08-.36,0,0,0-.04,0-.04l-.02-.12v-.16c-.01-.07-.01-.14-.01-.22v-.12c0-.12,0-.3,.03-.48,.01-.08,.03-.15,.04-.24l.06-.19c.03-.07,.06-.13,.09-.2l.33-.48s.07-.08,.11-.12l.07-.07s.1-.09,.15-.13l.11-.08s.09-.07,.14-.09c.24-.12,.4-.15,.61-.17Zm3.17-14.59l.06-.02h.01c.06-.02,.13-.03,.22-.04,.08-.01,.19-.02,.32,0,.12,.01,.21,.05,.25,.07,.05,.03,.1,.08,.14,.15,.04,.09,.05,.16,.04,.24-.01,.1-.05,.23-.11,.37-.06,.14-.12,.25-.17,.35h0s-.07,.12-.07,.12c0,0,0,.01-.01,.02l-.17,.29h0s-.21,.37-.21,.37c-.08,.13-.16,.22-.2,.27-.08,.07-.17,.14-.32,.23-.11,.06-.21,.11-.34,.14-.12,.03-.26,.03-.36,.02-.05,0-.1-.02-.14-.04,.04-.05,.09-.11,.12-.19,.07-.15,.08-.3,.03-.42-.04-.09-.1-.16-.19-.2-.09-.04-.17-.05-.32-.02h0c0-.06,.02-.13,.03-.2,.03-.17,.08-.27,.11-.33,.04-.08,.09-.14,.14-.21l.16-.2c.08-.1,.16-.2,.25-.3,.11-.12,.21-.21,.32-.28,.15-.1,.26-.13,.41-.17Zm-7.8-3.23v-.2s0-.02,.01-.02v-.28s0,0,0,0c0-.03,0-.05,0-.08,0-.11,0-.27-.02-.44-.01-.22-.02-.46-.02-.61,0-.09,.01-.18,.02-.27,0-.1,.02-.19,.02-.27v-.07c.04-.27,.04-.54,.05-.8,0-.17,0-.34,.01-.51,.02-.25,.04-.43,.07-.61h0s.03-.21,.03-.21l.05-.28h-.01s.01-.09,.01-.09c.01-.11,.03-.28,.04-.45,.02-.23,.04-.47,.07-.63,.02-.1,.04-.2,.07-.31,.02-.08,.04-.16,.06-.23l.02-.08c.05-.24,.09-.48,.12-.71,.03-.2,.06-.4,.1-.6,.05-.23,.1-.39,.16-.57,0-.01,0-.02,.01-.04h0s.06-.2,.06-.2c0,0,0,0,0,0l.08-.27h0s.02-.08,.03-.12l.11-.54c.04-.2,.1-.39,.13-.5l.24-.61c.08-.21,.14-.42,.21-.67,.05-.19,.11-.41,.19-.62,.09-.23,.17-.4,.25-.56h0s0-.01,0-.01l.09-.2s.02-.04,.03-.07l.09-.18h0s.03-.08,.05-.13c.1-.25,.3-.78,.41-1l.29-.5,.42-.81c.08-.16,.15-.32,.24-.47,.14-.26,.25-.42,.38-.6l.07-.1h0c.07-.1,.15-.21,.23-.34,.07-.1,.15-.25,.25-.41,.12-.2,.25-.41,.33-.54,.05-.07,.11-.15,.16-.21l.24-.27c.19-.21,.35-.45,.51-.67,.1-.14,.2-.29,.31-.42,.15-.18,.27-.3,.39-.42,0,0,0,0,0,0h0s.08-.08,.08-.08c.03-.03,.07-.07,.1-.1l.17-.17h0s.49-.54,.49-.54c.1-.12,.22-.23,.31-.32l.53-.45c.13-.1,.24-.22,.36-.33l.14-.13c.15-.15,.32-.29,.48-.43,.17-.14,.31-.23,.44-.32h0s.22-.15,.22-.15c.01,0,.02-.02,.04-.03l.15-.1h0s.08-.07,.13-.1l.12-.09c.22-.17,.55-.44,.72-.55l.54-.32c.23-.14,.46-.31,.68-.47,.14-.1,.27-.2,.4-.29,.19-.12,.33-.2,.47-.28h0s.23-.13,.23-.13c0,0,0,0,0,0l.2-.11h0s.09-.06,.14-.09c.11-.07,.26-.18,.42-.29,.18-.12,.36-.25,.46-.32l.55-.31c.19-.11,.38-.24,.57-.37l.52-.38,.48-.31h0s.23-.15,.23-.15l.19-.12h0s.13-.09,.13-.09c.12-.08,.29-.22,.46-.35,.11-.09,.21-.17,.31-.24-.03,.07-.07,.14-.11,.21-.07,.15-.15,.3-.24,.46-.14,.25-.25,.49-.36,.72l-.04,.08h0s0,0,0,0l-.11,.25h0c-.02,.06-.05,.12-.08,.18l-.41,.99c-.03,.08-.07,.16-.11,.24-.06,.13-.12,.26-.17,.4l-.1,.32c-.05,.13-.08,.26-.12,.39-.05,.18-.11,.35-.18,.54-.08,.21-.15,.41-.22,.61h0s-.06,.2-.06,.2c0,0,0,0,0,0l-.08,.26h0s-.36,1.15-.36,1.15c-.03,.09-.07,.18-.1,.27-.05,.12-.1,.24-.13,.37l-.09,.31c-.05,.14-.08,.28-.12,.41-.04,.16-.09,.33-.15,.5-.11,.28-.19,.54-.28,.8l-.21,.62c-.08,.25-.18,.5-.27,.74-.04,.1-.09,.2-.13,.29-.05,.1-.1,.19-.14,.3l-.11,.29c-.04,.09-.08,.19-.12,.28-.08,.19-.15,.38-.25,.57-.08,.16-.16,.31-.23,.45-.02,.05-.04,.09-.07,.13l-.75,1.42c-.05,.08-.1,.15-.15,.23-.07,.11-.14,.21-.21,.33l-.15,.28c-.05,.09-.1,.17-.15,.26-.1,.18-.2,.36-.33,.53-.11,.16-.21,.31-.31,.46l-.02,.02h0s-.09,.14-.09,.14l-.18,.27h0c-.07,.11-.14,.22-.22,.34l-.09,.13c-.12,.17-.23,.34-.36,.5l-.11,.14c-.1,.12-.2,.25-.3,.38l-.3,.44c-.13,.2-.26,.39-.42,.58-.21,.24-.38,.45-.53,.66h0s-.39,.51-.39,.51c-.16,.21-.32,.41-.49,.61-.06,.07-.12,.13-.18,.19-.09,.1-.19,.19-.27,.3l-.19,.26c-.07,.09-.13,.17-.2,.26-.12,.16-.24,.32-.38,.47-.14,.15-.27,.29-.39,.43h0s-.2,.24-.2,.24l-.12,.14h0s-.35,.44-.35,.44c-.14,.17-.27,.33-.41,.49-.06,.07-.12,.13-.19,.19-.09,.09-.19,.19-.27,.29-.04,.05-.09,.11-.14,.18l-.07,.09c-.07,.09-.14,.18-.2,.27-.12,.16-.24,.32-.38,.47-.19,.21-.35,.4-.51,.59l-.04,.05s0,0,0,0l-.14,.17h0c-.09,.11-.18,.22-.27,.35l-.11,.15c-.13,.16-.25,.32-.39,.48-.06,.07-.12,.14-.19,.2-.09,.1-.18,.19-.27,.3l-.15,.2h0c.09-.27,.15-.53,.21-.79,.01-.06,.03-.12,.04-.18h.03c.14-.03,.24-.12,.5-.6,.12-.27,.24-.58,.26-.86,.01-.13-.05-.33-.22-.38,0,0,0-.02,0-.03,.01-.05,.03-.11,.04-.16,.02,0,.05,.01,.07,.01,.26,0,.41-.2,.46-.27l.04-.06c.29-.39,.59-.8,.81-1.3,.02-.05,.06-.11,.09-.17,.11-.2,.3-.54,.03-.77-.1-.08-.19-.1-.25-.1-.24,0-.37,.22-.46,.4-.02,.03-.03,.06-.05,.09,0-.03,.02-.06,.03-.08,.08-.22,.15-.38,.22-.54h0s.13-.31,.13-.31l.06-.14h0s.05-.11,.05-.11c.04-.11,.1-.27,.16-.43,.07-.21,.15-.44,.21-.56l.27-.58c.1-.22,.18-.44,.27-.66,.07-.18,.14-.37,.22-.55,.1-.22,.17-.37,.25-.53h0s.1-.21,.1-.21c.01-.02,.02-.05,.03-.07l.08-.17h0s.03-.08,.05-.12c.08-.18,.31-.73,.42-.97l.3-.56c.11-.21,.2-.42,.3-.63,.08-.19,.16-.38,.26-.56,.11-.22,.2-.37,.29-.52h0s.12-.2,.12-.2c.01-.02,.02-.04,.03-.06l.1-.17h0s.04-.08,.06-.12c.04-.07,.08-.17,.13-.28,.11-.23,.25-.52,.33-.67l.33-.54c.14-.23,.26-.47,.38-.71,.08-.16,.16-.31,.24-.46,.12-.21,.22-.36,.31-.5h0s.14-.22,.14-.22l.13-.19h0s.07-.11,.07-.11c.06-.1,.13-.24,.21-.39,.11-.2,.23-.42,.3-.54l.35-.53c.12-.19,.24-.38,.35-.58l.33-.57c.12-.21,.21-.35,.31-.5h0s.11-.17,.11-.17l.16-.24h0s0-.01,0-.02c.03-.04,.06-.08,.08-.12,.04-.06,.22-.36,.22-.54,0-.08,0-.2-.09-.29l-.11-.09h-.11c-.05,0-.12,0-.34,.19-.03,.02-.1,.09-.24,.3-.04,.06-.07,.12-.12,.18l-.1,.14h0s0,.01,0,.01l-.15,.21h0c-.08,.11-.15,.22-.23,.34l-.44,.68c-.05,.08-.11,.16-.16,.23-.07,.1-.15,.21-.22,.32l-.17,.28c-.08,.13-.16,.26-.24,.4-.08,.14-.16,.28-.26,.43-.12,.18-.22,.35-.33,.52h0s-.09,.15-.09,.15c-.01,.02-.02,.04-.03,.05l-.13,.22h0s-.61,1.06-.61,1.06c-.05,.08-.1,.16-.15,.24-.07,.11-.14,.22-.21,.34l-.6,1.14c-.11,.19-.2,.36-.29,.53h0s-.13,.24-.13,.24l-.1,.19h0s-.56,1.08-.56,1.08c-.04,.08-.09,.16-.13,.24-.06,.11-.13,.23-.19,.35l-.13,.3c-.05,.11-.1,.22-.15,.32-.08,.18-.15,.35-.25,.54-.11,.19-.19,.37-.27,.55h0s-.08,.18-.08,.18l-.12,.27h0s-.11,.25-.11,.25l-.46,1.03c-.07,.14-.15,.29-.21,.44l-.11,.31c-.04,.11-.08,.22-.12,.33-.07,.18-.13,.36-.22,.56l-.03,.07c-.07,.17-.14,.33-.21,.49h0s-.58,1.6-.58,1.6c-.03,.08-.07,.17-.11,.25-.05,.12-.11,.24-.15,.38l-.09,.31c-.04,.11-.07,.22-.1,.33-.05,.19-.1,.37-.18,.57-.08,.2-.14,.39-.2,.57h0s-.07,.21-.07,.21c0,0,0,.01,0,.02l-.04,.12c.04-.26,.07-.52,.06-.8,0-.04,0-.09,0-.14,0-.18,.02-.6-.39-.63-.4,0-.41,.42-.41,.55,0,.05,0,.11,0,.13-.17,.6-.19,1.17-.08,1.7l.06,.24,.24-.06c.14-.03,.24-.1,.31-.2-.02,.08-.05,.17-.07,.25-.04-.02-.08-.03-.12-.03h-.07c-.08,.03-.26,.09-.32,.24-.17,.36-.16,.91,.02,1.2,.02,.03,.04,.06,.07,.08,0,.01,0,.02,0,.03-.04,.19-.08,.38-.13,.58-.02,.08-.04,.16-.07,.24-.01-.15-.03-.29-.05-.44-.02-.19-.05-.37-.06-.57-.02-.24-.01-.41,0-.59h0Zm-9,13.39s-.1-.07-.16-.12c-.07-.05-.14-.1-.22-.16-.14-.1-.25-.2-.31-.28-.06-.06-.11-.14-.16-.22-.04-.05-.07-.11-.13-.19-.05-.09-.11-.18-.16-.25l-.14-.24c-.09-.16-.17-.32-.22-.52-.04-.12-.06-.23-.07-.34v-.06c-.02-.06-.02-.12-.03-.18h0s-.03-.21-.03-.21c-.01-.1-.02-.21-.02-.38l-.03-.57c-.01-.21-.01-.42,0-.56,0-.12,.02-.23,.03-.35,0-.08,.02-.17,.03-.25l.06-.81c.01-.25,.05-.5,.08-.69,.04-.25,.09-.42,.14-.6,.02-.08,.05-.17,.07-.26v-.02c.04-.12,.07-.25,.11-.41,.03-.16,.09-.41,.14-.64-.02,.41-.02,.47-.02,.78v.27c.01,.11,.02,.28,.15,.4,0,.01-.02,.02-.03,.03-.05,.08-.09,.26-.09,.3v.2s-.02,0-.02,0v.2s0,.03,0,.05v.25s.01,0,.01,0c0,.05,0,.1,0,.15,.03,.26,.17,.42,.35,.42l.11-.02c.14-.06,.28-.13,.33-.26,.05-.13,.05-.28,.05-.46v-.06s0-.11,0-.11v-.44s0-.19-.09-.29c0,0-.02-.01-.02-.02,.09-.11,.11-.26,.12-.34,.03-.24,.01-.47,0-.7v-.18c-.02-.11-.02-.2,0-.29v-.06c.08-.3,.14-.57,.1-.9l-.05-.14-.1-.06s-.1-.07-.17-.1c.11-.03,.17-.11,.2-.15,0-.01,.02-.03,.03-.04,.19-.21,.19-.5,.17-.75l-.02-.08c-.04-.09-.09-.16-.14-.22,.07-.18,.14-.33,.2-.47,0,0,0-.01,0-.02h0s0-.02,0-.02v.61s0,0,0,0v.1s0,.41,0,.41h.02s0,.06,0,.1v.11c.04,.18,.08,.45,.14,.71l.14,.66,.12,.8c.05,.29,.12,.56,.19,.83,.06,.25,.13,.5,.17,.75,.06,.36,.08,.6,.09,.88v.11s0,0,0,0c0,.07,0,.14,.01,.22v.09s0,0,0,0c0,.06,0,.11,.01,.18,.02,.16,.04,.41,.06,.66,.02,.27,.02,.52,.01,.65-.01,.19-.03,.37-.05,.56l-.03,.23c-.02,.2-.04,.4-.06,.61-.03,.34-.06,.69-.12,1.03-.06,.31-.12,.52-.18,.73h0s-.05,.15-.05,.15c0,.01,0,.02-.01,.04l-.04-.03-.04,.27v.04s0,0,0,0h0s-.02,.06-.02,.06l-.02,.03h-.12s0,0,0,0c-.02,0-.03,0-.05,0h-.01s-.25-.21-.25-.21h0s0,.01,0,.01Zm10.3,73.63c-.09,0-.18,.01-.3,.02-.18,0-.35,0-.47-.02-.1-.01-.21-.05-.32-.09-.07-.02-.13-.04-.19-.06l-.1,.23h0s.04-.25,.04-.25c-.11-.05-.23-.09-.32-.12l-.31-.12c-.18-.08-.36-.16-.55-.3-.12-.08-.21-.17-.31-.25l-.04-.04c-.06-.06-.12-.12-.18-.18l-.78-.84c-.14-.15-.27-.3-.34-.4-.06-.09-.12-.18-.18-.27-.04-.07-.08-.14-.13-.2l-.04-.06c-.12-.2-.25-.38-.38-.57-.13-.18-.25-.37-.35-.54-.12-.2-.18-.36-.25-.53-.03-.07-.05-.13-.08-.2v-.02c-.05-.11-.1-.22-.16-.36l-.11-.23c-.07-.14-.15-.31-.21-.46l.3,.39c.1,.13,.16,.21,.4,.5,.07,.07,.18,.18,.33,.2,0,0,0,0,0,0,0,.12,.11,.31,.11,.31l.1,.13h0s.14,.17,.14,.17c0,0,0,0,0,0l.18,.21h0s.07,.07,.11,.1c.04,.04,.18,.15,.34,.15,.11,0,.2-.05,.26-.14,.08-.12,.16-.27,.12-.41-.04-.13-.13-.25-.25-.38l-.08-.1-.28-.33s-.12-.14-.26-.16h0c0-.13-.07-.25-.11-.31-.12-.21-.28-.37-.43-.53l-.11-.12c-.07-.07-.12-.12-.15-.19l-.02-.05c-.13-.26-.23-.49-.48-.71l-.13-.07-.11,.02s-.09,0-.14,.02c.03-.05,.04-.11,.04-.18v-.05c.04-.28-.14-.51-.31-.67l-.07-.05c-.08-.04-.16-.06-.24-.06-.05-.16-.08-.3-.11-.43,0,0,0,0,0-.01h0s-.02-.08-.02-.08l.4,.45h0s.14,.15,.14,.15l.19,.22h0s.09,.08,.15,.13c.13,.11,.33,.28,.53,.43l.52,.39c.08,.06,.15,.13,.22,.19,.1,.08,.19,.17,.29,.24l.07,.06c.2,.16,.41,.31,.62,.45,.21,.15,.42,.29,.62,.46,.27,.22,.43,.39,.61,.58l.26,.27h0s.55,.57,.55,.57c.17,.18,.32,.36,.39,.45,.1,.14,.19,.29,.28,.43l.11,.18c.09,.14,.18,.27,.27,.41,.23,.34,.47,.69,.67,1.06,.25,.41,.38,.67,.54,1.01h0s-.04,0-.04,0l.19,.3v.03s.02,.09,.02,.09l-.09,.1s-.01,.01-.02,.02l-.02,.02-.4-.02v.02s-.1,0-.17,.01Zm74.54,26.61h0s0,0,0,0h0Zm-12.23,6.17h0s.26-.05,.26-.05l.24-.04h0s.17-.03,.17-.03c.16-.03,.41-.08,.66-.12,.25-.04,.5-.07,.66-.09,.19-.01,.38-.02,.57-.02h.23c.21,0,.42-.01,.62-.02,.33-.01,.67-.03,1.01,0,.39,.03,.58,.06,.84,.11l-.02,.03,.29,.03h.04s0,0,0,0h.01s.03,.02,.03,.02l.02,.12s0,.02,0,.03v.02s-.17,.26-.17,.26h.01s-.06,.11-.09,.17c-.03,.07-.07,.14-.12,.22-.08,.14-.15,.26-.21,.33,0,0-.01,.01-.02,.02-.43,.02-.86,.04-1.29,.06,.13-.05,.24-.1,.35-.18l.18-.12s.04,.02,.06,.02c.06,0,.12,.01,.18,.01,.25,0,.57-.08,.71-.32,.08-.13,.08-.29,.01-.43l-.04-.06c-.11-.11-.3-.14-.55-.09-.11,.02-.38,.09-.56,.25-.06,.05-.09,.13-.1,.22-.09-.06-.19-.09-.32-.09h0c-.31,.01-.68,.04-1.02,.19-.02,.01-.05,.02-.08,.03-.12,.04-.28,.09-.35,.24-.01,.02-.01,.05-.02,.07-.11-.13-.3-.13-.37-.13-.28,0-.77,.1-1.08,.26-.07,.04-.12,.11-.15,.18-.13,0-.26,0-.39,0-.02-.01-.05-.02-.07-.03-.11-.02-.27-.01-.46,.01h0s-.03,0-.03,0c-.01,0-.02,0-.03,0h-.05s-.06,.01-.06,.01c-1.08,0-2.16-.03-3.23-.07l.78-.22c.17-.04,.33-.08,.49-.13l.09-.03c.3-.08,.59-.18,.88-.28,.22-.08,.45-.15,.67-.22,.32-.09,.55-.13,.8-.17h0Zm-39.83-40.38c12.08,14.47,29.51,23.29,48.02,25.84-.17,.2-.31,.45-.41,.77-.08,.24-.1,.48-.07,.74h-.02s.06,.25,.06,.26l.05,.23h.02c.05,.15,.11,.3,.19,.45,.12,.23,.29,.45,.52,.71l.06,.05c.15,.14,.31,.3,.51,.41,.1,.06,.22,.11,.34,.16,.29,.11,.62,.18,.99,.21,.06,0,.13,0,.19,0,.16,0,.32-.02,.46-.05v.02s.11-.03,.11-.03l.2-.06,.13-.04v-.02s.01,0,.02-.01c.05-.02,.11-.04,.19-.08,.04-.02,.06-.03,.09-.05,.12,.1,.28,.21,.42,.31,.08,.06,.16,.11,.22,.15l.1,.08c.09,.07,.19,.15,.28,.21l.05,.03c.25,.19,.52,.3,.78,.42,.09,.04,.19,.08,.28,.13,.17,.08,.3,.14,.43,.2h0s.26,.12,.26,.12c0,0,.2,.09,.2,.08,.04,.02,.08,.04,.13,.05,.14,.05,.37,.11,.59,.16,.14,.04,.28,.07,.38,.1,.06,.02,.13,.04,.19,.06,.1,.04,.21,.07,.31,.1l.07,.02c.28,.09,.57,.12,.85,.16,.14,.02,.27,.04,.41,.06,.2,.03,.34,.06,.48,.1l.3,.06s.02,0,.02,0c0,0,.17,.03,.18,.03,.06,0,.11,.02,.18,.03,.14,.01,.35,.03,.56,.04,.19,.01,.37,.02,.49,.03,.03,0,.07,0,.1,.01,0,0-.01,0-.02,0-.17,.05-.34,.1-.52,.14-.21,.05-.37,.08-.53,.1,0,0-.29,.04-.29,.05,0,0-.2,.03-.2,.03-.06,.01-.12,.02-.2,.04l-.56,.14c-.2,.06-.4,.1-.52,.12-.1,.01-.19,.02-.29,.03-.09,0-.18,.02-.27,.03h-.07c-.19,.03-.38,.07-.57,.11l-.28,.06c-.17,.03-.34,.06-.5,.09-.22,.03-.39,.04-.55,.05,0,0-.27,.01-.27,.01,0,0-.22,0-.22,.01-.06,0-.12,0-.18,.01-.08,0-.19,.02-.31,.04-.23,.03-.52,.07-.7,.07l-1.02-.02c-.33,0-.67,0-.98,.02-.15-.02-.3-.04-.46-.07l-.2-.04c-.2-.04-.4-.07-.58-.11-.09-.02-.18-.05-.26-.08-.13-.04-.25-.07-.38-.1l-.32-.07c-.29-.06-.6-.13-.93-.23,0,0-.53-.16-.53-.16l-.27-.08s-.21-.06-.21-.06l-.44-.13-1.42-.47-.44-.13c-.27-.08-.51-.15-.77-.26-.27-.11-.51-.2-.75-.29l-.77-.32c-.18-.07-.35-.15-.51-.23-.08-.04-.16-.09-.24-.13-.1-.06-.21-.12-.32-.17l-.49-.23c-.2-.09-.38-.18-.57-.3,0,0-.43-.26-.42-.26,0,0-.24-.14-.24-.14-.17-.1-.34-.2-.5-.31l-.07-.05c-.18-.12-.36-.24-.53-.36-.08-.06-.16-.12-.24-.19-.07-.06-.14-.12-.22-.18l-.41-.3c-.17-.12-.32-.24-.48-.39l-.27-.25,.07-.12h-.01c.06-.13,.11-.26,.13-.4,.05-.26,.04-.53-.03-.79-.04-.17-.12-.42-.28-.62-.06-.07-.15-.16-.22-.23-.22-.21-.45-.35-.7-.49-.14-.08-.28-.14-.41-.21,0,0-.23-.09-.23-.09,0,0-.23-.09-.23-.08-.09-.03-.18-.06-.27-.09l-.14-.05c-.15-.05-.33-.11-.53-.14-.12-.02-.24-.03-.37-.01-.15,.02-.29,.06-.41,.13-.11,.06-.24,.17-.32,.27-.15,.17-.22,.35-.26,.48-.05,.14-.08,.29-.09,.46-.02,.2,0,.39,.05,.58l-.05,.02s.11,.23,.11,.23l.09,.22h.02s.04,.07,.04,.07l.16,.26c.17,.22,.33,.41,.5,.55,.08,.07,.15,.15,.23,.2,.08,.07,.18,.14,.27,.19,.08,.05,.2,.1,.3,.14,.3,.14,.6,.2,.87,.26,.18,.04,.38,.06,.59,.07v.03s.25-.03,.25-.03h.24s0-.03,0-.03c.03,0,.06,0,.09-.01l1.09,.91c.24,.21,.51,.38,.78,.54,.09,.05,.17,.11,.25,.16,0,0,.64,.44,.64,.45,0,0,.19,.13,.2,.13,.04,.02,.07,.05,.12,.07,.12,.07,.31,.17,.5,.26,.16,.08,.32,.16,.42,.22l.15,.09c.11,.06,.21,.13,.32,.18l.07,.04c.39,.2,.81,.37,1.19,.52,.2,.08,.35,.15,.49,.23l.29,.13s.16,.08,.17,.07c.05,.02,.1,.04,.16,.06l1.02,.34,.19,.07c.11,.05,.23,.09,.34,.13l.07,.03c.27,.1,.55,.17,.82,.24,.1,.03,.19,.05,.29,.08-.05,0-.1,0-.15,0h-1.09c-.09,0-.17,0-.26-.01-.1-.01-.2-.02-.29-.02h-.07c-.26-.02-.51-.01-.77,0-.15,0-.3,.01-.45,.01h-.1c-.24,0-.41-.01-.58-.03h-.26s-.23-.02-.23-.02h-.2c-.12,0-.29,0-.45,0-.16,0-.33,.01-.46,.01l-.71-.05c-.24-.02-.49-.01-.73,0-.19,0-.38,0-.58,0-.28,0-.47-.03-.67-.05h-.04s-.09-.01-.09-.01c-.01,0-.03,0-.04,0,0,0-.23-.02-.23-.02-.04,0-.07,0-.12,0-.11,0-.27,0-.44-.01-.22,0-.47,0-.61-.02l-.63-.08c-.25-.03-.49-.04-.74-.06-.19-.01-.37-.02-.56-.04-.01,0-.02,0-.04,0-.06-.03-.12-.06-.19-.09-.02,0-.04-.02-.06-.03,0,0-.04-.03-.04-.03,0,0-.23-.15-.23-.15,0,0-.18-.12-.19-.12-.05-.03-.09-.06-.15-.09-.08-.05-.19-.1-.31-.17-.22-.12-.5-.26-.63-.35l-.52-.36c-.23-.15-.47-.29-.72-.43-.15-.08-.29-.17-.43-.25-.19-.12-.32-.22-.45-.32,0,0-.21-.16-.22-.16,0,0-.18-.13-.19-.13-.04-.03-.09-.06-.14-.09l-.21-.13c-.24-.14-.54-.33-.7-.44l-.5-.38c-.23-.18-.49-.33-.73-.48-.13-.08-.26-.16-.39-.24-.19-.13-.33-.23-.46-.34l-.2-.16s-.02-.02-.04-.03c0,0-.15-.12-.16-.11-.04-.03-.08-.06-.13-.09-.09-.06-.23-.15-.38-.24-.2-.12-.42-.26-.54-.34-.06-.05-.13-.09-.19-.14-.09-.07-.18-.13-.27-.2l-.07-.05c-.27-.19-.56-.34-.84-.49-.15-.08-.3-.16-.44-.24-.21-.12-.36-.21-.5-.3-.02-.01-.03-.02-.05-.04,0,0-.22-.13-.22-.13,0,0-.2-.12-.2-.12-.05-.03-.1-.06-.16-.09-.14-.07-.35-.18-.57-.27-.19-.09-.38-.17-.49-.24l-.6-.33c-.19-.11-.4-.19-.59-.27l-.73-.29c-.2-.08-.35-.16-.49-.22-.03-.02-.06-.03-.09-.05l-.23-.1s-.22-.1-.22-.1l-.15-.06c-.1-.04-.25-.09-.4-.14l-1.3-.48c-.22-.08-.45-.15-.68-.21l-.27-.07c-.13-.03-.26-.06-.39-.1-.29-.08-.48-.15-.69-.22l-.06-.02s-.06-.02-.06-.02c0,0-.26-.09-.26-.08-.04-.01-.09-.02-.14-.03l-.71-.14c-.14-.02-.28-.05-.37-.07l-.18-.05c-.13-.04-.26-.07-.38-.1l-.08-.02c-.25-.06-.47-.09-.68-.11l-.23-.02c-.14-.02-.29-.03-.43-.05-.23-.03-.39-.06-.56-.1-.01,0-.03,0-.04-.02,0,0-.21-.03-.21-.03,0,0-.28-.05-.28-.04-.04,0-.07,0-.11-.01-.11-.01-.26-.02-.42-.03-.23-.02-.48-.03-.64-.06-.08-.01-.16-.03-.24-.04-.1-.02-.2-.04-.3-.05h-.07c-.23-.05-.46-.07-.69-.08-.2-.01-.39-.03-.59-.06-.24-.03-.41-.07-.59-.11l-.21-.04s-.05,0-.08-.01c0,0-.21-.04-.21-.03-.03,0-.06-.01-.1-.02-.27-.03-.77-.11-1-.16-.8-.17-1.63-.65-2.35-1.08-.76-.45-1.24-.84-1.69-1.57-.77-1.25-1.83-2.19-2.73-3.32-.06-.07-.12-.15-.17-.21,0,0-.04-.05-.04-.05-.73-.86-1.4-1.65-1.96-2.67-.04-.08-.08-.16-.11-.24-.05-.11-.1-.22-.16-.33l-.16-.26c-.06-.1-.11-.19-.17-.29-.09-.15-.19-.31-.27-.48-.08-.17-.17-.33-.25-.49,0,0-.12-.21-.12-.22v-.03s-.29-.52-.29-.52c-.12-.22-.23-.44-.34-.66-.04-.08-.08-.17-.11-.26-.04-.1-.09-.21-.14-.31l-.14-.27c-.04-.09-.09-.18-.14-.26-.09-.17-.18-.34-.26-.52-.1-.26-.2-.49-.31-.72l-.24-.56c-.09-.22-.18-.45-.26-.68-.03-.09-.06-.19-.08-.28-.03-.1-.05-.2-.09-.3l-.1-.28c-.1-.28-.17-.52-.23-.8l-.05-.25c.1-.11,.17-.22,.24-.32,.38-.64,.66-1.33,.52-2.07-.04-.27-.11-.49-.18-.73l-.06-.22c-.04-.12-.07-.24-.09-.34-.02-.08-.04-.15-.06-.22-.1-.51-.52-1.59-1.14-.98-.13,.13-.27,.3-.46,.52l-.15,.18c-.19,.23-.36,.45-.51,.65,0,0-.09,.14-.09,.14,0,0-.21,.31-.19,.31-.07,.11-.13,.22-.18,.33-.13,.27-.24,.54-.3,.81-.04,.2-.08,.43-.06,.63,0,.1,.03,.21,.05,.3,.13,.56,.73,.97,1.23,1.14,0,0,.17,.06,.19,.05,.05,.02,.11,.03,.18,.04,.04,0,.09,0,.13,0,.03,.14,.08,.32,.13,.48,.04,.13,.07,.26,.09,.34l.03,.17c.02,.12,.05,.23,.08,.34l.02,.07c.07,.28,.18,.54,.29,.79,.05,.12,.11,.25,.16,.38,.08,.2,.13,.35,.18,.51l.08,.22s.01,.03,.02,.04c0,0,.07,.21,.08,.2,.01,.03,.03,.06,.04,.1,.06,.12,.15,.31,.25,.5,.08,.16,.16,.31,.21,.42,.03,.07,.06,.14,.09,.21,.04,.1,.08,.19,.12,.28l.03,.06c.11,.26,.25,.49,.38,.73,.07,.13,.15,.25,.22,.39,.11,.19,.17,.34,.24,.49l.1,.21s.01,.03,.02,.04c0,0,.09,.19,.1,.19,.02,.03,.03,.06,.05,.1,.06,.11,.15,.26,.25,.42,.1,.17,.21,.35,.27,.45l.09,.19s-.02-.02-.03-.03c-.12-.09-.23-.18-.34-.27-.16-.13-.27-.24-.38-.35l-.17-.16s-.02-.02-.03-.03c0,0-.16-.15-.17-.15-.03-.02-.05-.04-.08-.06-.09-.07-.23-.18-.41-.31-.15-.1-.29-.2-.38-.28-.06-.05-.12-.11-.18-.17-.06-.06-.13-.12-.19-.17l-.05-.05c-.2-.18-.42-.32-.63-.46-.13-.08-.25-.16-.37-.25-.16-.11-.27-.21-.37-.3,0,0-.02-.01-.02-.03l-.2-.16s-.19-.15-.19-.15c-.03-.02-.05-.04-.09-.07-.09-.06-.21-.15-.35-.23-.17-.11-.36-.24-.47-.33-.07-.05-.13-.11-.2-.17-.06-.06-.12-.11-.18-.15l-.05-.05c-.17-.15-.35-.27-.54-.4-.15-.1-.29-.2-.43-.31,0,0-.03-.03-.03-.03l-.25-.27c-.18-.18-.33-.38-.44-.54-.05-.07-.09-.14-.14-.21-.06-.1-.12-.19-.2-.29-.03-.03-.05-.08-.08-.13l-.05-.08c-.05-.08-.09-.15-.14-.23-.1-.15-.18-.29-.25-.45,0,0-.17-.45-.16-.45l-.09-.21c-.06-.14-.11-.29-.16-.47-.06-.21-.11-.41-.16-.62-.02-.08-.03-.18-.04-.27,0-.09-.02-.17-.03-.26l-.08-.46c-.03-.18-.06-.35-.07-.55,0-.25-.02-.47-.04-.69l-.04-.74c0-.18-.02-.35-.01-.53,0-.08,0-.17,.01-.25,0-.11,.01-.22,.01-.33v-.28c0-.1,0-.2,0-.29,0-.17,0-.34,.02-.53,0,0,.11-1,.11-1,0-.1,.02-.19,.03-.29l.02-.17c.02-.17,.05-.33,.08-.51,.02-.09,.04-.18,.07-.27,.03-.09,.05-.19,.07-.28l.08-.44c.04-.21,.07-.4,.15-.62l.12-.38s.14,0,.14-.02c.16-.02,.32-.06,.48-.13,.26-.11,.51-.26,.72-.46,.14-.13,.33-.32,.44-.55,.04-.08,.08-.2,.11-.3,.09-.29,.1-.57,.11-.82,0-.16,0-.31-.02-.44,0,0-.04-.23-.04-.23,0,0-.05-.26-.05-.26-.02-.08-.03-.15-.05-.23l-.02-.08c-.04-.17-.09-.36-.18-.56-.04-.09-.1-.2-.2-.31-.1-.11-.22-.2-.35-.25-.12-.05-.28-.09-.43-.09-.18-.01-.36,.01-.57,.08-.15,.05-.31,.11-.48,.19-.21,.1-.38,.24-.55,.4l-.03-.02-.13,.18-.17,.21s.01,0,.01,.02l-.19,.32c-.12,.26-.2,.49-.25,.69-.03,.1-.05,.19-.07,.28-.03,.11-.04,.22-.04,.32,0,.09,0,.22,.02,.31,.02,.27,.1,.49,.19,.72l.03,.09c.05,.16,.13,.31,.23,.46l-.03,.02,.19,.21,.13,.17h.01s.02,.02,.04,.03l-.32,1.3c-.07,.28-.11,.56-.14,.83-.01,.12-.03,.23-.04,.35,0,0-.08,.52-.09,.52l-.03,.21s-.05,.29-.04,.29c0,.02,0,.04,0,.06-.02,.16-.02,.38-.02,.6,0,.14,0,.28,0,.38,0,.07-.01,.14-.02,.2-.01,.1-.02,.2-.02,.3v.07c-.03,.3,0,.59,.02,.88,0,.11,.02,.22,.02,.33,.01,.21,0,.37,0,.52,0,0,0,.02,0,.02,0,0,0,.21,0,.21,0,0,0,.29,.02,.28,0,.02,0,.03,0,.05,.01,.14,.04,.37,.07,.58,.02,.14,.04,.27,.05,.36l.06,.53c.02,.21,.07,.4,.12,.58,.03,.1,.06,.2,.09,.29,.03,.08,.05,.15,.07,.24,0,.01,0,.02,.01,.04l-.11-.18h-.01s-.02-.02-.03-.04l-.09-.13c-.14-.19-.33-.46-.43-.6-.06-.09-.1-.18-.15-.28l-.09-.17c-.11-.22-.24-.41-.38-.6-.08-.12-.17-.24-.24-.36-.1-.17-.16-.3-.22-.44l-.11-.21s-.01-.02-.02-.04c0,0-.1-.2-.11-.19-.02-.03-.03-.05-.05-.08l-.14-.22c-.13-.2-.28-.43-.36-.57l-.25-.49c-.11-.23-.25-.44-.39-.65-.08-.12-.16-.24-.23-.36-.1-.16-.16-.29-.22-.43,0,0-.1-.21-.1-.21,0,0-.11-.23-.12-.23-.02-.03-.02-.05-.04-.08-.05-.08-.12-.2-.2-.32-.11-.17-.24-.37-.29-.48l-.23-.52c-.1-.21-.21-.4-.33-.6-.08-.14-.17-.28-.24-.43,0,0,0,0,0-.02,0-.06,0-.12,0-.17,0-.02,0-.04,0-.07,0,0,.05-.56,.04-.56,0-.04,0-.07,0-.11,0-.11,0-.28,0-.45,0-.21-.01-.43,0-.56,0-.09,.02-.17,.03-.26,.01-.09,.02-.17,.03-.25v-.07c.03-.26,.03-.51,.02-.75,0-.16,0-.33,0-.5,0-.22,.03-.38,.05-.54,0,0,.02-.23,.02-.23,0,0,.03-.26,.02-.26,0-.03,0-.07,0-.1,0-.12,0-.29,0-.46,0-.2,0-.42,0-.55,0-.09,.02-.18,.03-.26,.01-.09,.02-.17,.03-.25v-.07c.03-.28,.02-.56,.01-.83,0-.14-.01-.29-.01-.43,0-.22,.02-.39,.03-.55l.02-.23s0-.02,0-.03c0,0,.02-.23,0-.23,0-.04,0-.07,0-.11,0-.13-.01-.32-.03-.52-.01-.19-.03-.38-.03-.5,0-.07,0-.15,0-.22,0-.1,.01-.21,0-.31v-.07c0-.29-.03-.58-.06-.85-.02-.14-.04-.29-.05-.43-.02-.2-.02-.36-.02-.51,0-.02,0-.04,0-.05v-.24s-.03-.26-.03-.26c0-.04,0-.07-.01-.12-.01-.14-.05-.35-.09-.56-.03-.18-.07-.36-.08-.48l-.06-.62c-.02-.2-.07-.39-.11-.58l-.17-.67c-.04-.19-.07-.34-.09-.48,0-.02,0-.04,0-.06,0,0-.04-.23-.05-.24,0,0-.05-.25-.05-.25,0-.04-.02-.07-.03-.11-.02-.09-.07-.21-.11-.35l-.35-1.21c-.06-.21-.14-.4-.22-.61-.03-.08-.07-.15-.1-.23-.05-.11-.1-.22-.14-.33-.1-.24-.15-.41-.22-.59l-.03-.07s-.02-.07-.02-.07l-.09-.25h-.01s-.03-.07-.05-.11l-.29-.55c-.07-.13-.14-.25-.19-.34l-.07-.16c-.05-.11-.1-.23-.15-.33l-.03-.07c-.11-.21-.22-.4-.33-.56l-.35-.51c-.12-.18-.2-.32-.27-.46,0,0-.13-.21-.14-.22l-.12-.21h-.01s-.04-.05-.06-.09c-.08-.11-.2-.27-.33-.43-.11-.14-.23-.28-.29-.37-.04-.06-.08-.13-.12-.19-.05-.08-.11-.17-.16-.24l-.04-.06c-.14-.21-.3-.41-.46-.6-.1-.13-.21-.25-.31-.38-.13-.17-.21-.3-.29-.43l-.13-.2s-.01-.02-.02-.03c0,0-.12-.18-.12-.18-.02-.03-.04-.06-.06-.09-.06-.08-.15-.2-.24-.32-.13-.17-.28-.36-.36-.47l-.31-.5c-.11-.18-.23-.35-.35-.53l-.03-.04c-.1-.15-.21-.29-.3-.45-.39-.65-.67-1.15-.61-1.9,.17-2.04,.52-4.05,.75-6.08,.01-.11,.02-.27,.03-.43,.01-.24,.03-.52,.06-.68,.02-.09,.04-.19,.06-.28,.02-.09,.04-.18,.06-.27l.02-.08c.06-.29,.08-.6,.11-.89,.01-.16,.03-.32,.04-.47,.01-.11,.03-.21,.05-.3,.02-.05,.04-.1,.07-.17,.02-.07,.05-.13,.07-.18l.06-.12,.11-.24,.21-.44c.11-.23,.22-.46,.34-.69,.04-.08,.09-.17,.14-.25,.06-.1,.12-.21,.18-.32l.13-.29c.05-.1,.1-.2,.14-.3,.08-.18,.16-.35,.27-.52,.15-.23,.27-.45,.41-.68l.34-.57c.13-.22,.26-.43,.4-.64,.05-.08,.11-.15,.17-.23,.07-.09,.14-.18,.2-.28l.22-.35c.15-.22,.28-.43,.45-.63,.18-.22,.34-.42,.5-.61l.38-.47c.15-.19,.31-.37,.47-.54,.06-.07,.13-.13,.2-.2,.07-.07,.15-.14,.22-.21l.35-.37c.15-.15,.29-.3,.46-.44,.06-.05,.12-.1,.18-.14,.12,.05,.24,.08,.34,.1,.24,.05,.48,.06,.7,.07h.17s.17,0,.17,0c.08,0,.19,0,.31-.05l.18-.07c.07-.03,.13-.07,.19-.1,.1-.06,.21-.15,.31-.23,.08-.07,.15-.13,.22-.2-1.79,20.63,5.29,41.85,18.6,57.8Zm-18.05-62.41c-.07-.03-.13-.07-.2-.09-.25-.09-.52-.13-.78-.12v-.02s-.25,.04-.25,.04c0,0,0,0,0,0l-.24,.03v.02c-.17,.04-.33,.09-.49,.16-.25,.11-.5,.27-.79,.5l-.07,.06c-.16,.14-.34,.3-.47,.49-.07,.09-.13,.21-.2,.37-.16,.34-.24,.69-.31,1.08-.05,.25-.06,.5-.06,.76h-.01s.01,.15,.01,.15v.16s.03,.19,.03,.19h.01s0,.05,.01,.08c0,.07,.02,.13,.05,.24,.02,.06,.03,.11,.04,.14,0,0,0,.02,.01,.02-.11,.1-.24,.23-.36,.36-.11,.11-.21,.21-.27,.27l-.13,.11c-.09,.08-.18,.15-.26,.23l-.05,.05c-.24,.21-.44,.46-.64,.71-.07,.08-.13,.16-.2,.25-.13,.16-.23,.27-.33,.38h0s-.17,.19-.17,.19c0,0,0,0,0,0l-.15,.17h0s-.06,.08-.09,.12c-.09,.11-.22,.3-.34,.48-.1,.14-.19,.28-.26,.37-.04,.06-.09,.11-.14,.17-.07,.08-.14,.17-.2,.25l-.05,.06c-.18,.23-.32,.48-.46,.73-.07,.13-.14,.25-.22,.38-.11,.18-.19,.31-.28,.43h0s-.15,.23-.15,.23c0,.01-.02,.03-.03,.04l-.09,.14h0s-.05,.1-.08,.15c-.07,.13-.18,.33-.28,.54-.08,.16-.16,.32-.22,.43-.02,.04-.05,.09-.08,.13,.02-.19,.04-.38,.08-.57,.04-.22,.08-.39,.12-.54h0s.06-.26,.06-.26c0-.01,0-.02,0-.04l.04-.18h0c.01-.06,.02-.11,.03-.17,.02-.12,.04-.31,.07-.5v-.06c.03-.22,.05-.41,.08-.51,.02-.09,.04-.18,.07-.27,.03-.09,.05-.18,.07-.27l.02-.07c.08-.28,.11-.58,.14-.86,.02-.16,.04-.32,.06-.48,.03-.22,.07-.38,.12-.54h0s.06-.25,.06-.25c0-.01,0-.03,.01-.04l.05-.18h0c.01-.05,.02-.1,.03-.16,.02-.11,.04-.28,.07-.46,.03-.23,.06-.47,.09-.61l.14-.61c.09-.38,.14-.76,.19-1.14l.02-.18s0-.02,0-.04l.19-.64c.05-.18,.1-.35,.16-.53,.03-.09,.07-.17,.1-.25,.05-.12,.1-.25,.15-.38l.1-.32c.03-.1,.07-.2,.1-.3,.06-.2,.13-.4,.21-.61,.07-.18,.14-.35,.21-.52h0s.68-1.57,.68-1.57c.07-.15,.15-.29,.23-.43l.21-.43c.05-.1,.09-.19,.14-.28,.09-.18,.17-.36,.28-.54,.1-.16,.18-.32,.27-.47h0s.13-.24,.13-.24c.06-.12,.13-.23,.2-.34l.21-.35c.1-.17,.2-.33,.31-.49,.05-.07,.1-.14,.16-.21,.07-.1,.15-.19,.22-.3l.17-.27c.17-.24,.32-.47,.51-.71l.33-.4h0s.16-.2,.16-.2l.15-.18h0s.24-.29,.24-.29c.15-.18,.32-.36,.49-.54,.07-.07,.14-.14,.22-.2,.08-.07,.15-.13,.23-.21l.33-.35c.16-.16,.3-.32,.48-.46l.31-.25,.11,.08h0c.12,.07,.26,.13,.41,.18,.18,.05,.36,.08,.55,.08,.09,0,.18,0,.27-.02,.18-.02,.45-.07,.68-.21,.06-.04,.14-.09,.21-.15-1.13,3.51-1.96,7.09-2.51,10.7Zm-10.66-26.2c7.1-12.47,17.48-22.07,30.46-28.16,12.1-5.67,25.34-7.66,38.58-7.82-5.11,1.1-9.99,2.58-14.83,4.83-6.08,2.83-11.67,6.55-16.81,10.84-10.25,8.55-18.2,19.77-22.98,32.22-.02-.02-.03-.04-.05-.06-.16-.17-.34-.25-.47-.31-.14-.06-.3-.11-.47-.14-.51-.1-1.03,.02-1.48,.27-.24,.14-.45,.29-.61,.44-.08,.07-.16,.14-.23,.2-.09,.08-.16,.17-.23,.25-.06,.08-.13,.19-.18,.28-.14,.24-.25,.51-.35,.85-.07,.21-.1,.41-.12,.58h-.02s0,.26,0,.26c0,0,0,.23,0,.23,0,.03,0,.06,0,.09l-1.06,.98c-.21,.19-.4,.41-.57,.62-.09,.11-.18,.22-.28,.32,0,0-.36,.4-.37,.4l-.16,.18s-.17,.18-.16,.19c-.03,.03-.05,.06-.08,.1-.09,.11-.21,.29-.34,.46-.1,.15-.2,.29-.28,.39-.04,.05-.09,.11-.13,.16-.08,.09-.15,.18-.21,.26l-.04,.06c-.19,.26-.35,.54-.51,.82l-.17,.28c-.12,.19-.21,.33-.31,.47l-.14,.21s-.01,.02-.02,.03c0,0-.12,.17-.11,.18-.02,.04-.05,.09-.08,.14l-.35,.71-.43,.78c-.16,.27-.26,.55-.37,.82-.04,.1-.08,.21-.13,.32,0,0,.02-.09,0-.09,0-.05,.01-.09,.02-.15v-.07c.03-.26,.07-.75,.11-.98,.01-.08,.03-.16,.05-.24,.02-.1,.05-.2,.06-.3v-.07c.07-.25,.08-.49,.1-.73,.01-.19,.02-.38,.05-.57,.03-.23,.07-.4,.11-.56l.04-.23s0-.02,0-.04c0,0,.04-.22,.03-.22,0-.04,.01-.08,.02-.12,.02-.11,.03-.27,.04-.43,.02-.22,.03-.47,.06-.61l.13-.61c.06-.28,.08-.56,.1-.83,.01-.16,.03-.31,.04-.46,.04-.22,.07-.38,.11-.53,0,0,0-.02,0-.03l.05-.23s0-.01,0-.02c0,0,.05-.24,.05-.24,0-.04,.01-.08,.02-.12,.02-.12,.04-.3,.06-.48,.02-.21,.05-.43,.07-.55l.16-.6c.07-.27,.11-.54,.14-.8,.02-.16,.05-.32,.08-.49,0-.01,0-.02,0-.03,.04-.05,.07-.11,.11-.17,.01-.02,.03-.04,.04-.06,0,0,.04-.05,.04-.05l.16-.2s.15-.18,.15-.19c.03-.04,.06-.08,.1-.13,.07-.1,.17-.24,.27-.39,.13-.19,.26-.39,.36-.5,.07-.09,.15-.18,.23-.27l.18-.2c.19-.22,.36-.45,.53-.68,.09-.13,.19-.26,.29-.39,.15-.19,.27-.32,.38-.44l.12-.13,.03-.04c.08-.08,.16-.18,.26-.3,.08-.1,.19-.24,.3-.39,.13-.18,.27-.36,.36-.46l.43-.46c.19-.21,.37-.45,.55-.67,.09-.12,.19-.25,.28-.36,.16-.2,.28-.33,.41-.46l.07-.08,.06-.07s.01-.01,.02-.02c0,0,.15-.16,.15-.17,0,0,.01-.01,.02-.02l.07-.08c.09-.11,.22-.28,.35-.45,.12-.16,.24-.31,.32-.41,.05-.06,.11-.12,.16-.17,.07-.08,.15-.16,.21-.23l.05-.06c.18-.2,.34-.43,.5-.64,.1-.14,.2-.27,.31-.41,.13-.17,.24-.29,.34-.4,0-.01,.02-.02,.03-.03,0,0,.16-.19,.16-.19,0,0,.16-.19,.15-.19,.03-.04,.05-.07,.08-.11,.08-.1,.18-.26,.29-.42,.12-.18,.25-.36,.33-.46l.4-.49c.12-.14,.22-.3,.31-.45l.43-.66c.11-.17,.21-.29,.29-.41,.02-.02,.04-.05,.06-.07,0,0,.14-.19,.14-.2,0,0,.15-.21,.14-.21,.03-.04,.05-.08,.08-.12l.9-1.46c.12-.19,.22-.37,.35-.64,.09-.18,.18-.36,.27-.54,.14-.26,.24-.43,.35-.62,0,0,.2-.34,.19-.35,.02-.04,.04-.08,.06-.13l.26-.62c.06-.15,.12-.29,.16-.38l.08-.16c.06-.12,.12-.24,.17-.35l.03-.07c.11-.23,.19-.45,.25-.65,.07-.21,.13-.42,.21-.63,.08-.22,.14-.38,.21-.54,0-.01,.01-.03,.02-.04l.08-.2s.1-.26,.09-.26c.01-.04,.02-.07,.04-.11,.04-.13,.09-.32,.15-.52,.05-.2,.1-.4,.15-.53,.03-.08,.06-.16,.09-.23,.04-.1,.08-.2,.11-.29l.03-.07c.1-.27,.17-.55,.24-.82,.04-.16,.08-.32,.13-.48,.07-.24,.14-.41,.21-.58l.08-.2s.02-.05,.02-.07c0,0,.08-.2,.07-.2,.01-.03,.02-.07,.03-.1,.04-.11,.08-.26,.13-.43,.06-.23,.13-.47,.19-.61l.24-.6c.09-.21,.17-.43,.24-.64l.02-.07c.06-.18,.12-.36,.19-.54,.1-.24,.18-.41,.26-.57,0,0,.09-.19,.09-.19,0,0,.13-.25,.12-.26l.05-.1c.03-.05,.05-.12,.09-.2,.04-.1,.09-.2,.15-.33,.08-.18,.17-.36,.23-.48,.05-.1,.11-.19,.17-.28,.04-.07,.09-.14,.12-.2l.04-.06c.07-.11,.13-.21,.19-.32,.05-.09,.1-.18,.15-.27l.04-.07c.1-.17,.2-.34,.3-.49,.14-.2,.26-.34,.38-.48l.15-.2s.07-.08,.12-.14l.14-.17s.27-.35,.27-.58c0-.04,0-.11-.02-.19,0-.03-.02-.05-.04-.08-.01-.02-.02-.04-.04-.06,0,0-.02-.02-.03-.02-.03-.02-.06-.04-.09-.05-.01,0-.02-.01-.03-.02h-.07c-.08,0-.19,.03-.34,.11-.06,.03-.13,.1-.2,.18-.02,.02-.04,.05-.07,.08-.05,.05-.09,.1-.14,.15l-.13,.13-.48,.43c-.14,.13-.28,.25-.43,.36l-.16,.13c-.11,.08-.22,.16-.32,.24l-.44,.35c-.24,.2-.47,.38-.73,.56,0,0-.46,.31-.47,.3l-.22,.16s-.19,.12-.18,.13c-.11,.08-.22,.16-.34,.23l-.2,.13c-.15,.1-.3,.2-.46,.29-.08,.05-.16,.09-.23,.13-.11,.06-.23,.12-.34,.19l-.27,.18c-.11,.07-.22,.14-.33,.22-.15,.1-.29,.2-.46,.29-.17,.1-.33,.19-.48,.28l-.19,.12s-.03,.02-.05,.03c0,0-.19,.12-.18,.12l-1.05,.66c-.07,.05-.15,.09-.23,.13-.12,.07-.24,.13-.35,.21l-.27,.19c-.11,.08-.22,.16-.33,.24-.14,.11-.29,.22-.45,.32-.18,.11-.34,.22-.49,.33l-.21,.16s-.19,.14-.19,.14c-.12,.09-.24,.19-.36,.29l-.65,.52c-.06,.05-.13,.1-.2,.16-.12,.09-.24,.18-.37,.31l-.93,.93c-.16,.15-.31,.3-.45,.44l-.11,.12s-.05,.05-.07,.07l-.16,.17h.01s-.86,1.02-.86,1.02c-.06,.07-.13,.14-.19,.22-.09,.1-.19,.2-.27,.31-.06,.08-.14,.19-.21,.3-.08,.12-.16,.25-.23,.37-.1,.16-.2,.32-.32,.48-.14,.19-.26,.37-.39,.54,0,0-.13,.21-.13,.21l-.14,.2h.01c-.08,.14-.16,.27-.23,.41l-.08,.15c-.11,.2-.22,.4-.33,.59-.04,.07-.09,.14-.13,.21-.09,.13-.18,.27-.25,.42l-.14,.31c-.07,.14-.13,.29-.19,.43-.07,.16-.14,.33-.22,.49-.12,.22-.2,.42-.29,.62l-.08,.2s-.1,.26-.1,.26l-.16,.41c-.11,.27-.21,.54-.3,.81-.03,.09-.07,.18-.11,.27-.05,.13-.11,.26-.15,.39l-.37,1.3c-.07,.23-.13,.44-.18,.65l-.03,.11s-.02,.07-.03,.11c0,0-.06,.26-.06,.26l-.28,1.23c-.02,.09-.04,.19-.07,.28-.04,.13-.07,.27-.09,.41l-.05,.34c-.02,.14-.04,.28-.05,.43-.02,.18-.03,.36-.07,.54-.07,.31-.1,.6-.13,.88,0,0-.03,.28-.02,.28,0,.06-.01,.13-.02,.19l-.03,.38c-.01,.22-.03,.43-.05,.64,0,.08-.02,.16-.03,.24-.02,.14-.05,.29-.05,.46v.33c0,.12,.01,.24,.02,.36,0,.19,.01,.38,0,.59-.01,.23-.02,.44-.02,.64v.22s.02,.28,.02,.28c0,.06,0,.11,0,.17l.03,.4c.01,.2,.03,.41,.03,.61,0,.08,0,.17,0,.25,0,.14,0,.28,.01,.42l.04,.32c.01,.14,.04,.27,.06,.41,.03,.17,.06,.33,.07,.52,.02,.22,.04,.42,.07,.61l.04,.26,.02,.14s0,.06,0,.09c0,.05,0,.1,.01,.15,.02,.1,.04,.22,.12,.34,0,.05-.02,.1-.02,.15-.02,.15-.04,.31-.08,.48-.04,.2-.08,.39-.12,.58l-.02,.13s-.01,.08-.02,.11c0,0-.04,.25-.04,.25l-.19,1.17c-.02,.09-.04,.19-.06,.28-.03,.12-.06,.24-.07,.37l-.15,1.24c-.04,.2-.07,.39-.09,.57l-.23,1.66c-.01,.09-.03,.18-.05,.27-.03,.12-.05,.24-.07,.37l-.03,.31c-.02,.12-.03,.23-.04,.34-.02,.19-.04,.38-.08,.57-.04,.19-.07,.38-.09,.57l-.05,.34s-.02,.15-.02,.15l-.08,.56c-.03,.2-.07,.41-.11,.6l-.03,.12c-.04,.18-.08,.35-.11,.54l-.04,.31c-.02,.11-.03,.23-.05,.34-.02,.19-.05,.38-.09,.58-.02,.1-.04,.2-.06,.29-.02,.09-.03,.17-.06,.25,0,0-.04,.27-.04,.27l-.12,.76c-.03,.21-.06,.42-.12,.64-.02,.09-.04,.17-.07,.26-.04,.13-.07,.25-.1,.38-.02,.1-.04,.23-.05,.34l-.02,.15c-.03,.26-.06,.5-.12,.76-.07,.29-.12,.56-.17,.83l-.02,.12-.13,.69c-.03,.21-.07,.41-.11,.62-.02,.1-.04,.19-.07,.29-.03,.11-.06,.23-.08,.35l-.05,.33c-.02,.12-.04,.24-.05,.36-.03,.19-.06,.39-.1,.59-.04,.19-.08,.37-.12,.55l-.05,.29s-.03,.2-.03,.2l-.07,.47c-.04,.26-.09,.52-.14,.77-.02,.08-.04,.15-.06,.22-.04,.15-.08,.29-.09,.44l-.04,.33c-.01,.07-.02,.14-.03,.21l-.1-.57c-.05-.24-.08-.48-.1-.63l-.08-.78c-.04-.28-.09-.57-.14-.81l-.05-.2c-.04-.19-.09-.37-.12-.57-.04-.24-.07-.43-.09-.61,0-.06-.02-.11-.02-.17,0,0-.04-.23-.04-.23v-.02s0-.03,0-.03c0,0-.03-.2-.04-.2-.01-.07-.02-.13-.04-.21-.03-.14-.08-.33-.13-.54-.07-.26-.15-.56-.17-.74l-.13-.77c-.06-.35-.16-.69-.26-1.02-.05-.18-.11-.37-.15-.54-.07-.3-.11-.51-.15-.73,0,0-.01-.06,0-.06l-.04-.21s0-.01,0-.02c0,0-.05-.26-.06-.26-.01-.06-.03-.12-.04-.18-.03-.14-.09-.33-.15-.53-.08-.26-.17-.55-.2-.73l-.15-.76c-.07-.35-.17-.68-.26-1.01-.05-.18-.11-.37-.15-.55-.05-.23-.09-.41-.12-.57-.01-.07-.03-.15-.04-.22l-.14-.62,.11-.11s0-.01,.01-.02l.02-.05s.19-.46,.2-.46v-.05s.02-.02,.02-.02c0,0,.01-.06,.02-.06,0,0,.09-.36,.09-.36,.06-.21,.11-.43,.16-.65,.07-.33,.13-.66,.18-.99l.03-.21c.04-.25,.08-.5,.11-.76l.03-.44c.02-.28,.02-.55,.01-.83,0-.15,0-.3,0-.46,0-.32-.02-.62-.03-.92,0,0-.02-.2-.02-.21,0,0-.02-.29-.03-.29-.02-.19-.04-.38-.07-.58-.04-.27-.1-.54-.15-.81l-.04-.22c-.03-.13-.05-.27-.06-.4-.02-.14-.04-.29-.07-.43l-.09-.4c-.02-.12-.05-.23-.08-.35-.06-.27-.12-.52-.15-.8-.04-.36-.08-.69-.1-1.03-.02-.27-.03-.54-.04-.82,0-.34,0-.68,.01-1.02,0-.17,.03-.35,.06-.52,.02-.11,.03-.21,.04-.32,0,0,.06-.62,.06-.62,.1-.95,.59-1.64-.01-2.44l-.27-.07h-.03c.97-2.03,2.01-4.03,3.12-5.99Zm22.55,116.86c-13.1-8.53-22.9-21.43-28.86-35.78-9.81-23.63-8.03-51.07,2.7-74.1,0,.02,0,.04-.01,.06l-.02,.08c-.05,.18-.1,.37-.17,.54l-.38,1.01c-.05,.14-.1,.28-.14,.42-.06,.19-.12,.37-.2,.57-.09,.21-.17,.41-.25,.61l-.1,.27s-.08,.2-.08,.2l-.18,.47c-.11,.28-.21,.56-.31,.84-.03,.09-.07,.18-.11,.27-.06,.14-.12,.28-.17,.43l-.11,.36c-.05,.15-.09,.31-.13,.46-.05,.19-.11,.38-.18,.59-.08,.24-.14,.47-.2,.7l-.05,.25s-.06,.23-.05,.24l-.11,.53c-.02,.12-.04,.25-.06,.37-.03,.19-.06,.37-.09,.56-.01,.07-.02,.15-.03,.22-.03,.18-.06,.37-.07,.56v1.48c-.02,.18-.02,.36-.01,.52,0,.1,.02,.19,.02,.29,0,0,.02,.2,.03,.21,0,0,.04,.28,.05,.28,.03,.16,.06,.33,.1,.51l.14,.47,.06,.16c.04,.09,.07,.18,.11,.27l.16,.35c.06,.11,.12,.22,.19,.32,.05,.07,.12,.15,.19,.22l.05,.06c.14,.16,.29,.28,.43,.4,.09,.07,.17,.15,.26,.23,.15,.14,.3,.26,.45,.38l.34,.24c.05,.04,.11,.08,.18,.13,.06,.04,.15,.07,.25,.09v.05s.08,.4,.09,.39l.3,1.47c.02,.12,.04,.23,.07,.35,.03,.15,.05,.3,.09,.45l.09,.38c.04,.2,.09,.4,.14,.6,.04,.17,.09,.35,.13,.54,0,0,.17,.78,.17,.78l.05,.23s.06,.25,.06,.25l.11,.49c.03,.17,.07,.33,.11,.5,.04,.15,.07,.3,.11,.46,.03,.12,.05,.25,.07,.37,.02,.14,.05,.27,.08,.41l.57,2.69c.04,.19,.07,.37,.1,.57l.17,.95c.02,.12,.03,.23,.04,.35,.02,.15,.03,.29,.06,.44l.07,.39c.06,.37,.12,.73,.17,1.12,0,0,.08,.73,.08,.73l.03,.28v.07c.04,.23,.06,.45,.08,.69,.03,.24,.04,.48,.05,.71v.24c.03,.12,.02,.24,.02,.37,0,.13,0,.27,.01,.4l.03,.49c.02,.33,.04,.65,.02,.98-.02,.22-.03,.43-.04,.63,0,.02,0,.05,0,.07-.02,.11-.03,.21-.05,.31l-.04,.4s-.01,.11-.01,.11l-.07,.67c-.02,.21-.04,.43-.07,.64-.01,.09-.03,.18-.05,.28-.03,.13-.05,.26-.06,.4-.01,.1-.02,.24-.02,.36,0,.13-.01,.25-.01,.37,0,.2-.01,.4-.04,.61-.02,.2-.04,.39-.06,.57,0,0-.02,.31-.02,.31,0,0-.01,.19-.01,.19,0,.02,0,.04,0,.06-.04-.11-.08-.23-.12-.34-.05-.2-.08-.35-.09-.5l-.05-.25s-.01-.09-.02-.15l-.03-.22s-.08-.41-.26-.56c-.04-.03-.08-.06-.14-.09-.04-.02-.09-.04-.14-.04,0,0-.11,.01-.12,.02l-.05,.02s-.13,.07-.22,.35c-.01,.03-.04,.14,0,.36,0,.06,.01,.12,.01,.18v.15s0,.21,0,.21c0,.13,0,.26,0,.4,0,.17,0,.33-.02,.5v.2c-.02,.1-.03,.2-.05,.31-.01,.09-.03,.18-.03,.28v.3c-.03,.28-.05,.54-.09,.84,0,0-.08,.5-.08,.5l-.03,.22s-.04,.27-.04,.27c-.02,.11-.03,.22-.05,.34-.02,.1-.04,.21-.05,.31-.02,.13-.04,.27-.07,.4-.02,.08-.04,.16-.06,.24-.03,.12-.06,.23-.08,.36l-.04,.29c-.02,.12-.04,.24-.05,.35-.02,.16-.04,.33-.09,.5-.04,.18-.08,.35-.12,.52l-.05,.3s-.04,.19-.03,.19l-.19,1.08c-.02,.07-.03,.15-.05,.22-.03,.13-.07,.26-.08,.4l-.03,.3c-.02,.13-.03,.25-.04,.38-.01,.16-.03,.33-.06,.5-.04,.2-.06,.38-.08,.55l-.03,.3s-.02,.19-.01,.19c-.01,.13-.02,.25-.03,.38l-.04,.76c0,.08-.01,.17-.02,.25-.01,.12-.02,.25-.02,.38v.31c.01,.11,.02,.22,.03,.32l.03,.58c0,.2,.02,.38,.03,.56l.02,.11s0,.09,.01,.13l.02,.24h.01s.15,1.13,.15,1.13c.01,.08,.02,.17,.03,.25,.01,.13,.02,.25,.05,.41l.06,.28c.03,.13,.07,.26,.11,.39,.05,.15,.09,.31,.13,.47,.04,.19,.08,.37,.12,.55,0,0,.07,.24,.07,.24l.06,.24h.01s.03,.1,.05,.15l.12,.35c.06,.19,.13,.37,.18,.56,.02,.06,.03,.13,.05,.19,.03,.14,.07,.28,.15,.46l.11,.25c.04,.11,.09,.21,.14,.31,.07,.16,.15,.32,.21,.48,.06,.19,.13,.35,.2,.5l.11,.22s.11,.23,.11,.23l.48,.98c.04,.07,.07,.15,.1,.22,.05,.11,.09,.23,.16,.34l.15,.26c.06,.11,.13,.21,.19,.32,.08,.14,.17,.28,.25,.43,.09,.17,.17,.32,.26,.48l.14,.23s.12,.19,.12,.19l.19,.31c.06,.09,.11,.17,.17,.26,.08,.12,.16,.24,.23,.36,.04,.07,.08,.14,.12,.22,.06,.11,.12,.22,.19,.33l.18,.24c.08,.11,.16,.21,.24,.31,.1,.12,.2,.25,.29,.39,.11,.16,.21,.31,.31,.46,0,0,.14,.19,.14,.2,0,0,.15,.2,.16,.2,.04,.05,.07,.09,.11,.14l.22,.27c.12,.15,.25,.3,.36,.46,.05,.06,.09,.13,.14,.2,.07,.11,.14,.22,.24,.32l.21,.22c.08,.08,.15,.16,.23,.24,.12,.12,.24,.25,.36,.4,.12,.15,.24,.29,.35,.42l.17,.17s0,0,.01,.01c0,0,.17,.17,.17,.17l.38,.38c.13,.13,.27,.26,.4,.4,.05,.06,.1,.11,.15,.17,.08,.1,.17,.2,.26,.28,.05,.04,.11,.09,.17,.14l.07,.05c.08,.07,.17,.14,.25,.21,.13,.11,.27,.22,.4,.35,.12,.12,.25,.24,.39,.36l.33,.26s.04,.04,.06,.06c.04,.03,.07,.07,.1,.1,.08,.06,.16,.13,.3,.17,.09,.15,.18,.3,.26,.47,.08,.16,.16,.31,.23,.45l.2,.36s0,.01,0,.02c0,0,.03,.06,.03,.06,.06,.1,.11,.2,.18,.31,.12,.2,.23,.4,.34,.6,.04,.07,.07,.14,.1,.22,.05,.11,.1,.22,.16,.33l.16,.24c.05,.08,.1,.16,.15,.23,.1,.15,.2,.3,.28,.47,.08,.16,.16,.31,.24,.45l.05,.08s.01,.02,.02,.03l.18,.31,.53,.89c.04,.07,.07,.14,.11,.22,.05,.1,.09,.2,.16,.3l.16,.24c.06,.09,.13,.18,.19,.27,.1,.13,.19,.25,.26,.39,.06,.12,.13,.23,.2,.35,0,0,.06,.08,.06,.08l.1,.14s.19,.26,.19,.26l.18,.24c.08,.13,.18,.25,.27,.35,.06,.07,.12,.14,.18,.22,.04,.06,.08,.12,.12,.18,.07,.1,.14,.21,.24,.31l1.26,1.21,.1,.1s.01,0,.02,.01l.17,.17h.01c.05,.03,.11,.08,.16,.12l.23,.18c.15,.12,.31,.24,.46,.38,.06,.05,.11,.1,.17,.15,.1,.09,.19,.18,.3,.26l.25,.17c.09,.06,.17,.12,.26,.18,.15,.1,.3,.2,.45,.32,.14,.12,.28,.23,.42,.33,0,0,.2,.15,.21,.15l.6,.44c.15,.11,.31,.23,.46,.35,.07,.05,.14,.12,.2,.18,.08,.08,.16,.15,.26,.22l.24,.17c.09,.07,.17,.13,.26,.19,.15,.1,.29,.2,.42,.32,.14,.13,.26,.24,.39,.35,0,0,.19,.15,.19,.16,0,0,.19,.16,.19,.15l.27,.21c.18,.15,.36,.31,.54,.46,.06,.06,.12,.12,.17,.18,.08,.09,.16,.17,.25,.25l.22,.18c.07,.06,.14,.12,.22,.18-.13-.05-.31-.12-.54-.19-.18-.06-.36-.11-.48-.16l-.62-.24c-.23-.08-.47-.14-.68-.19l-.67-.15c-.21-.05-.36-.09-.51-.14-.04-.01-.07-.02-.11-.04l-.33-.08s-.02,0-.02,0c0,0-.13-.03-.13-.03-.05-.01-.1-.03-.16-.04-.17-.03-.43-.07-.68-.11-.19-.03-.37-.05-.49-.08-.1-.02-.2-.05-.31-.07-.11-.03-.21-.05-.32-.08l-.09-.02c-.28-.06-.56-.1-.76-.12l-.79-.13c-.35-.07-.57-.11-.82-.19l-.2-.05-.28-.09v.02s-.22-.06-.22-.06c-.08-.02-.17-.04-.28-.06-.13-.03-.29-.06-.44-.1-.28-.08-.57-.17-.75-.24l-.12-.04c-.22-.08-.44-.16-.65-.26l-.1-.05c-.23-.11-.47-.21-.71-.31-.37-.15-.75-.31-1.1-.52-.47-.26-.75-.43-1.04-.62l-.17-.11s-.16-.11-.16-.11l-.19-.13-.04-.25s-.21-.47-.21-.48l-.07-.13-.13-.25s0,0,0-.01c0,0-.09-.18-.1-.17-.12-.23-.25-.46-.39-.69-.13-.22-.25-.42-.36-.62-.07-.12-.14-.25-.21-.37l-.13-.23c-.11-.19-.22-.38-.34-.57l-.24-.34c-.15-.21-.31-.41-.48-.61-.09-.11-.18-.21-.27-.33-.17-.21-.35-.42-.55-.63,0,0-.16-.16-.17-.16,0,0-.19-.18-.19-.18-.12-.11-.23-.21-.35-.32l-.06-.06c-.2-.17-.4-.33-.6-.49l-.16-.13c-.08-.06-.16-.13-.24-.2-.13-.11-.25-.22-.38-.31l-.31-.22c-.09-.07-.18-.13-.27-.2-.21-.15-.41-.29-.61-.47-.26-.24-.48-.45-.7-.67-.18-.18-.35-.35-.53-.55-.19-.21-.38-.44-.59-.71-.08-.1-.14-.21-.21-.32-.07-.11-.14-.22-.21-.33,0,0-.3-.43-.32-.46-.28-.41-.37-.96-.69-1.35-.23-.27-.75-.52-1.04-.21-.4,.43,.28,1.19,.4,1.59l.11,.38,.18,.55c.03,.1,.07,.19,.1,.29,.07,.2,.14,.39,.19,.6,.05,.2,.1,.39,.14,.57l.08,.25s.06,.22,.07,.22l.18,.57c.06,.21,.13,.42,.19,.64,.02,.08,.04,.16,.06,.24,.03,.14,.07,.29,.12,.43,.03,.09,.08,.22,.13,.33l.37,.94c.08,.22,.16,.42,.23,.62l.12,.24s.09,.2,.1,.2c.07,.14,.14,.29,.22,.44,.06,.1,.12,.2,.17,.3,.09,.16,.17,.31,.27,.46,.05,.08,.09,.16,.13,.23,.07,.14,.14,.27,.24,.41l.87,1.08c.11,.15,.19,.25,.33,.4,.08,.09,.16,.17,.24,.26,0,0,.14,.14,.15,.15,0,0,.22,.2,.22,.2,.15,.13,.3,.26,.46,.39l.44,.31,.17,.1c.11,.07,.22,.13,.33,.19l.41,.21c.14,.06,.28,.12,.41,.16,.09,.03,.19,.05,.29,.06l.11,.02c.2,.04,.38,.05,.54,.06h.1c.14,.01,.28,.02,.43,.04,.18,.02,.34,.02,.5,.02,.09,0,.17,0,.26,0l.41-.03c.07,0,.15,0,.25-.03,.08-.02,.19-.04,.29-.12,0,0,.04,.03,.04,.03l.08,.05,.34,.25v-.02c.15,.09,.29,.18,.44,.27l.2,.12c.41,.24,.76,.44,1.13,.61,.11,.05,.21,.11,.32,.16,.2,.1,.41,.21,.61,.3,.1,.05,.22,.09,.35,.13l.15,.05c.46,.16,.9,.31,1.37,.45,.4,.12,.76,.22,1.12,.31,0,0,.28,.07,.28,.07,.1,.02,.19,.04,.28,.05,.09,.02,.18,.03,.27,.05l.98,.2c.12,.02,.23,.05,.35,.08,.13,.03,.26,.06,.39,.09l.37,.06c.16,.03,.31,.05,.46,.07,.19,.03,.37,.05,.56,.1,.22,.06,.44,.1,.64,.16l.22,.04s.26,.06,.26,.06c.14,.03,.27,.06,.42,.09,.26,.06,.53,.13,.78,.21,.09,.03,.18,.06,.27,.1,.12,.05,.23,.09,.35,.12l.48,.14c.25,.07,.48,.14,.71,.25,0,0,.55,.24,.55,.24l.22,.09h.02c.18,.09,.36,.17,.56,.26,.23,.11,.46,.22,.68,.36,.09,.05,.17,.11,.25,.17,.09,.07,.18,.13,.28,.19l.35,.21c.23,.14,.45,.28,.65,.45,.1,.09,.19,.18,.29,.26,.05,.04,.1,.09,.14,.13,.06,.07,.12,.14,.18,.21l.64,.69c.13,.14,.25,.28,.38,.42,.05,.06,.1,.13,.15,.2,.06,.09,.13,.18,.21,.27l.19,.2c.07,.08,.14,.15,.21,.22,.11,.12,.23,.24,.34,.38,.09,.12,.17,.22,.25,.33-.01,0-.03-.02-.04-.02l-.06-.04c-.1-.07-.2-.13-.31-.2-.09-.05-.17-.11-.26-.16l-.55-.36c-.17-.13-.28-.25-.4-.37,0-.01-.02-.02-.03-.04l-.17-.17s-.07-.07-.11-.12l-.16-.18s-.3-.3-.53-.35c-.25-.05-.38,.02-.44,.19-.02,.05-.05,.13,.07,.42,.01,.03,.06,.13,.22,.3,.05,.05,.09,.1,.13,.15l.26,.34,.73,.98c.08,.11,.16,.22,.24,.33l.14,.2,.39,.48c.14,.17,.29,.33,.43,.52,0,0,.34,.46,.34,.46,0,0,.17,.22,.17,.22,0,0,.13,.18,.14,.17,.03,.04,.06,.08,.09,.11,.06,.07,.13,.15,.19,.23l.17,.2c.12,.14,.23,.28,.35,.43,.05,.07,.1,.14,.15,.21,.08,.11,.16,.23,.26,.34l.23,.24c.08,.09,.17,.18,.25,.27,.13,.14,.27,.28,.4,.45l.06,.07c.11,.13,.21,.25,.3,.38l1.24,1.3c.05,.06,.1,.12,.15,.18,.1,.12,.2,.23,.31,.34l.25,.22c.1,.1,.21,.19,.32,.28,.14,.12,.28,.24,.42,.38,.14,.15,.29,.28,.44,.42l.29,.24c.16,.13,.31,.26,.48,.39l.67,.53c.06,.05,.12,.1,.18,.15,.12,.1,.24,.2,.38,.29l1.15,.73c.19,.13,.37,.23,.54,.33l.24,.13s.19,.11,.19,.11l.42,.23,.76,.38c.09,.04,.17,.09,.25,.14,.12,.07,.24,.13,.37,.19l.32,.14c.14,.06,.27,.11,.4,.15,.17,.06,.35,.13,.53,.21,.21,.09,.4,.17,.59,.26l.23,.08s.23,.09,.24,.08c.06,.02,.12,.04,.18,.06l1.02,.34c.07,.03,.15,.06,.22,.09,.14,.06,.28,.12,.48,.17l.28,.07c.12,.03,.24,.06,.36,.09,.19,.04,.37,.09,.57,.15,.22,.08,.42,.12,.62,.17l.21,.05s.27,.06,.27,.06l1.18,.26c.09,.02,.18,.04,.26,.07,.13,.03,.25,.07,.39,.09l.31,.05c.13,.02,.26,.04,.39,.06,.17,.03,.35,.05,.53,.09,.21,.04,.42,.08,.63,.12l.13,.02s.05,.01,.08,.01c0,0,.28,.05,.28,.04l1.24,.18c.09,.01,.19,.03,.28,.05,.14,.03,.27,.05,.41,.07l.34,.03c.15,.01,.29,.01,.43,.02,.18,0,.36,0,.55,.03,.23,.03,.45,.04,.67,.06,0,0,.21,.01,.22,.01,0,0,.28,0,.28,0,.06,0,.12,0,.18,0h1.04c.09,0,.18,.01,.28,.02,.11,0,.23,.02,.34,.02l.42-.03c.13,0,.25-.02,.37-.03,.19-.02,.38-.04,.58-.04,.25,0,.46-.01,.66-.03l.2-.02s.01,0,.02,0h.05s1.39-.18,1.39-.18c.08-.01,.17-.02,.26-.02,.14-.01,.28-.02,.42-.05l.31-.07c.12-.03,.24-.05,.36-.08,.17-.04,.35-.09,.55-.11,.23-.04,.43-.08,.62-.12,0,0,.21-.05,.21-.05l.17-.04s.06-.01,.1-.02c.05,0,.1-.02,.14-.03,.51-.14,1.04-.11,1.56-.05h.25s.25,.02,.25,.02h.4c.26,.02,.52,.03,.79,.05,.1,0,.19,.01,.29,.02,.12,.01,.24,.02,.37,.03h.32s.16,0,.16,0c.09,0,.18,0,.26,0,.17,0,.34,0,.52,0,.21,.01,.4,.02,.59,.03h1.69c.09,.02,.19,.03,.28,.03,.12,.01,.23,.02,.37,.02h.31s.12,0,.12,0c.09,0,.18,0,.27,0,.18,0,.36,0,.55,0,.2,.02,.39,.03,.58,.04l1.69,.1c.09,0,.18,.02,.27,.03,.13,.02,.26,.04,.38,.04l.32,.02c.15,.02,.3,.02,.45,.02,.16,0,.32,.01,.5,.03l.23,.02c.12,.01,.22,.02,.33,.04l.93,.04c.14,.01,.28,.01,.42,.01,.13,0,.26,0,.39,.01,.09,0,.18,.01,.27,.02,.13,.01,.27,.03,.41,.03,.07,0,.15,0,.24-.02l.23-.02c.26-.02,.52-.04,.8-.04h.06c.2,0,.39-.02,.58-.03,0,0,.29-.03,.3-.03,.07,0,.14-.01,.21-.02,.16-.01,.32-.03,.47-.05l.83-.11c.09-.01,.17-.02,.26-.02,.15,0,.29-.02,.44-.05l.33-.07c.13-.02,.25-.05,.38-.08,.19-.04,.39-.09,.6-.12,.19-.03,.38-.06,.55-.09l.31-.07s.19-.04,.19-.04l1.28-.29c.09-.02,.18-.03,.26-.04,.13-.02,.27-.04,.4-.07l.32-.09c.05-.01,.11-.03,.16-.04l-.48,.26c-.21,.13-.43,.26-.57,.34-.16,.09-.32,.17-.49,.25l-.22,.11c-.25,.13-.5,.28-.76,.44-.23,.15-.45,.29-.7,.43-.24,.13-.43,.23-.61,.32-.05,.03-.11,.06-.16,.08l-.65,.34c-.14,.07-.34,.18-.54,.3-.26,.15-.56,.32-.76,.4l-2.49,1.1c-.35,.13-.6,.21-.86,.29,0,0-.09,.03-.09,.03l-.18,.06s-.28,.09-.27,.09c-.06,.02-.13,.04-.2,.06-.14,.05-.35,.12-.57,.2-.29,.1-.61,.22-.79,.27l-.79,.21c-.37,.1-.71,.22-1.04,.33-.17,.06-.33,.11-.5,.17-.22,.07-.38,.12-.54,.16-.06,.02-.13,.04-.19,.05l-.58,.18-.09-.08s-.5-.17-.5-.18c0,0-.08-.01-.08-.01,0,0-.05,0-.05,0,0,0-.36-.06-.36-.06-.19-.03-.38-.05-.58-.07-.33-.03-.67-.04-1-.06h-.08c-.1,0-.2,0-.3-.01-.16,0-.31-.01-.47-.01l-.57,.03c-.23,.02-.45,.04-.67,.07-.2,.02-.4,.05-.62,.07-.32,.03-.63,.08-.93,.14,0,0-.19,.04-.2,.04,0,0-.29,.06-.29,.07-.19,.04-.38,.08-.57,.13l-1,.28c-.1,.03-.21,.05-.31,.08-.17,.04-.35,.08-.52,.14l-.39,.13c-.12,.03-.23,.07-.34,.1-.26,.08-.51,.16-.8,.22-.32,.07-.6,.12-.89,.17l-.12,.02h-.03c-.27,.05-.54,.09-.83,.12-.34,.04-.69,.06-1.03,.07h-.09c-.15,0-.29,0-.44-.01-.11,0-.23-.01-.34-.01h-.6c-.36-.02-.7-.03-1.07-.09-.35-.06-1.37-.48-1.41,.04-12.36-1.53-24.37-5.8-34.81-12.6Zm98.57-5.23c-4.53,4.58-10.12,7.86-15.91,10.59-9.5,4.49-19.83,6.95-30.29,7.66,.06-.09,.12-.18,.17-.27h0s.2-.35,.2-.35c.03-.05,.07-.11,.1-.19,.03-.06,.06-.14,.07-.24l.37-.1h.04s0-.01,0-.01l1.64-.46c.18-.04,.38-.09,.57-.15l.4-.13c.19-.05,.38-.12,.58-.18,.2-.07,.41-.13,.63-.2l.06-.02c.3-.08,.58-.17,.86-.27h0s.08-.03,.08-.03c.04-.01,.08-.02,.12-.04l.28-.1h0s1.85-.7,1.85-.7c.23-.08,.47-.17,.69-.28l1.02-.5c.18-.1,.37-.2,.58-.3l.22-.1c.21-.1,.41-.2,.59-.3h0s1.11-.62,1.11-.62c.26-.14,.52-.29,.76-.43,.11-.06,.22-.11,.33-.17,.14-.07,.28-.14,.41-.22l.37-.21c.1-.06,.2-.12,.3-.19,.22-.14,.45-.27,.7-.4,.24-.12,.46-.23,.67-.35h0s.25-.13,.25-.13l.19-.1h0c.16-.09,.32-.18,.49-.26,.28-.15,.56-.29,.84-.42,.11-.05,.21-.09,.31-.13,.13-.05,.26-.1,.39-.16l.44-.21c.3-.14,.58-.26,.89-.37l.64-.2c.09-.02,.19-.04,.28-.06h0s.32-.08,.32-.08l.17-.04h0s.61-.16,.61-.16c.2-.05,.4-.1,.59-.15,.09-.02,.18-.03,.27-.05,.13-.02,.25-.04,.39-.08l.31-.09c.11-.03,.22-.06,.34-.1,.18-.06,.36-.11,.56-.15,.18-.04,.35-.07,.51-.11h0s.36-.09,.36-.09l.13-.03s.06-.01,.09-.02c.05,0,.1-.02,.19-.04,.11-.03,.23-.06,.37-.18,.19-.17,.32-.46,.2-.7-.06-.11-.15-.19-.28-.23-.03-.01-.07-.02-.11-.03h-.09c-.1,0-.19,.02-.3,.06-.02,0-.05,.02-.07,.02h-.02s0,0,0,0l-.29,.06s0,0,0,0l-.2,.04h0c-.05,.02-.11,.03-.17,.05-.12,.03-.28,.08-.46,.14-.21,.07-.43,.13-.57,.16-.09,.02-.17,.03-.26,.05-.09,.01-.18,.03-.26,.05h-.07c-.26,.06-.52,.15-.77,.22-.17,.05-.34,.1-.5,.15-.2,.05-.36,.08-.5,.11h0s-.27,.05-.27,.05c0,0-.01,0-.02,0l-.2,.04h0c-.05,.02-.11,.03-.17,.05-.11,.03-.26,.08-.43,.13-.22,.07-.45,.14-.61,.17-.09,.02-.18,.03-.27,.05-.09,.01-.18,.03-.27,.05h-.07c-.29,.07-.58,.16-.85,.24-.15,.05-.29,.09-.44,.13-.11,.03-.21,.05-.3,.07-.02,0-.04,0-.07,0h-.09s-.08,0-.11,0l-.47-.02h0s-.49-.02-.49-.02c-.25,0-.49-.02-.74-.04-.09,0-.19-.02-.28-.03-.12-.02-.23-.03-.35-.04h-.32c-.11-.02-.21-.03-.32-.03-.2,0-.39-.02-.6-.05-.17-.02-.33-.04-.48-.06h0s-.32-.04-.32-.04c-.2-.02-.4-.05-.61-.08-.25-.04-.5-.08-.74-.13-.09-.02-.18-.04-.27-.07-.1-.03-.21-.06-.32-.08l-.45-.09c-.23-.05-.45-.1-.66-.18l-.43-.15h0s-.25-.09-.25-.09h-.03c-.17-.07-.34-.13-.52-.21-.21-.09-.41-.19-.61-.29-.08-.04-.16-.09-.24-.14-.08-.05-.15-.1-.23-.14l-.33-.18c-.19-.12-.36-.23-.53-.37l-.16-.14c.01-.13,0-.24,0-.34-.02-.2-.06-.39-.1-.57l-.05-.21s0-.01,0-.02l-.04-.16c-.02-.08-.05-.16-.11-.26l-.1-.15c-.04-.06-.08-.1-.12-.15-.06-.08-.16-.17-.23-.24-.11-.11-.23-.21-.34-.3-.07-.06-.15-.13-.23-.2,16.72,1.69,35.78-2.09,49.23-12.82-2.34,3.41-4.86,6.69-7.78,9.64Z"/>
      <path class="cls-1" d="M37.21,26.35c.14,0,.21-.1,.26-.16,.02-.02,.04-.05,.06-.07,.19-.2,.31-.52,.44-.98,.05-.37-.02-.5-.08-.57-.05-.06-.13-.1-.21-.1l-.12,.02-.07,.05c-.18,.13-.32,.38-.49,.88-.06,.17-.1,.3-.11,.4-.02,.1,.02,.2,.04,.26,.05,.24,.2,.28,.28,.28Z"/>
      <path class="cls-1" d="M35.2,29.92c-.05,.15-.12,.32-.1,.47,0,.08,.04,.13,.07,.18-.09,.03-.16,.08-.21,.13-.06,.06-.19,.27-.21,.31l-.17,.36h-.01s-.14,.31-.14,.31l-.06,.13h0s-.46,1.04-.46,1.04c-.09,.19-.17,.37-.3,.59-.34,.65-.74,1.41-1.17,2.15-.38,.67-.81,1.33-1.32,2.02l-.12,.15c-.13,.17-.26,.34-.35,.52-.14,.28-.34,.5-.55,.74-.06,.07-.13,.15-.19,.23h-.01s-.18,.23-.18,.23l-.11,.15h0c-.09,.12-.19,.25-.27,.37-.15,.23-.21,.41-.17,.54l.05,.13,.1,.05c.08,.04,.19,.09,.3,.09,.08,0,.15-.02,.2-.06,.14-.09,.29-.28,.45-.49l.16-.21,.95-1.21,.87-1.2c.06-.08,.12-.17,.17-.26,.03-.05,.05-.09,.08-.14l.7-1.16c.05-.1,.11-.19,.17-.29,.16-.25,.28-.47,.39-.68l.07-.13c.08-.16,.16-.32,.23-.48l.28-.61c.1-.21,.2-.43,.33-.67,.06-.13,.17-.38,.26-.58l.42-1.01,.17-.37s.08-.21,.08-.31c0-.09-.02-.17-.06-.24,.03,0,.05-.01,.09-.03,.14-.08,.23-.25,.33-.43,.16-.32,.27-.65,.38-.98l.13-.37c.06-.17,.11-.32,.19-.48,.24-.47,.42-.84,.56-1.36l.02-.07-.02-.07s0-.04-.01-.06c-.02-.09-.04-.22-.14-.3l-.11-.07h-.09c-.22,0-.37,.22-.52,.49-.16,.45-.33,.89-.51,1.33l-.14,.34c-.18,.44-.22,.53-.48,1.19l-.03,.08Zm.25,.58h0l-.07,.07s0,0,0,0l.08-.07Z"/>
      <path class="cls-1" d="M29.05,41.25c-.15-.07-.35-.06-.47,.03-.42,.33-1.16,1.2-1.14,1.72,0,.16,.08,.29,.2,.37l.09,.05h.07c.42,0,1.19-1.25,1.37-1.67,.06-.14,.08-.4-.11-.5Z"/>
      <path class="cls-1" d="M31.34,30.2h.11c.07,0,.13-.03,.17-.05,.02,0,.04-.02,.06-.03,.26-.09,.47-.36,.65-.6l.04-.06c.14-.28,.17-.45,.08-.59-.05-.09-.15-.15-.29-.13-.21,.02-.46,.2-.73,.53-.11,.12-.17,.22-.22,.3-.05,.09-.04,.19-.04,.26,0,.05-.02,.18,.07,.28l.09,.09Z"/>
      <path class="cls-1" d="M24.51,45.21h0c.23,0,.37-.23,.46-.79,.04-.17,.06-.36,.08-.53,.02-.2,.03-.38,.02-.52,0-.15-.11-.36-.34-.36h0c-.13,.01-.3,.08-.37,.23-.08,.15-.15,.33-.22,.53-.07,.24-.1,.42-.11,.58-.03,.35,.02,.59,.16,.73,.08,.09,.19,.14,.31,.14Z"/>
      <path class="cls-1" d="M24.66,42.6h.13c.11,0,.33-.02,.44-.19,.08-.12,.14-.32,.19-.49l.03-.1h0s.06-.2,.06-.2v-.03c.09-.27,.18-.54,.27-.81l.13-.38c.11-.35,.25-.72,.43-1.17,.03-.08,.05-.15,.08-.23,.01-.05,.03-.1,.05-.14,.21-.59,.36-.94,.53-1.31,.21-.43,.37-.77,.52-1.11,.12-.28,.28-.63,.53-1.06,.05-.08,.13-.24,.21-.39,.05-.09,.1-.18,.14-.25l.09-.18,.31-.47h0s.17-.27,.17-.27c.02-.03,.1-.19,.11-.29,0-.06-.01-.11-.02-.16h.02c.17-.02,.3-.16,.42-.3,.17-.2,.32-.42,.45-.64,.06-.09,.12-.18,.18-.28l.05-.08c.09-.14,.16-.25,.27-.36,.08-.09,.16-.17,.23-.24,.2-.21,.4-.41,.58-.7l.04-.07v-.08s0-.04,0-.06c0-.08,.02-.2-.04-.3-.06-.11-.17-.18-.3-.18-.14,0-.27,.08-.44,.21l-.43,.51c-.09,.11-.18,.23-.27,.35l-.54,.7c-.08,.1-.15,.2-.26,.36l-.19,.27c-.08,.13-.18,.28-.19,.44,0,.05,.01,.09,.03,.13-.06,0-.11,.02-.17,.06-.08,.05-.23,.22-.26,.25l-.18,.25h-.01s-.15,.24-.15,.24l-.12,.17h0s-.21,.34-.21,.34c-.12,.2-.2,.37-.29,.53-.09,.16-.17,.33-.28,.52-.15,.26-.29,.52-.42,.79l-.34,.69-.36,.87c-.09,.22-.18,.43-.26,.65-.13,.34-.25,.67-.39,1.01-.09,.23-.18,.48-.21,.73-.03,.25-.11,.48-.21,.72-.04,.09-.07,.19-.1,.29h-.01s-.06,.21-.06,.21h0s0,0,0,0v.05c-.07,.18-.12,.36-.14,.55-.02,.16-.03,.38,.08,.5l.11,.1Z"/>
      <path class="cls-1" d="M14.78,61.76c.06,0,.12-.01,.18-.04l.05-.03c.08-.06,.13-.17,.15-.31,.03-.25-.02-.62-.19-.84-.06-.08-.14-.11-.22-.12,.08-.08,.12-.19,.13-.31,.04-.4,.01-.74-.08-1.04,0-.03-.01-.06-.02-.09-.02-.1-.07-.33-.26-.4,.04-.03,.08-.07,.12-.15,.13-.28,.05-.97-.1-1.32-.05-.1-.17-.21-.31-.21l-.11,.02c-.05,.02-.23,.11-.28,.28-.09,.35-.12,.97,.1,1.27,.06,.08,.14,.12,.22,.15-.13,.07-.22,.22-.17,.51,0,.02,.01,.06,.01,.07-.02,.33-.02,.83,.22,1.26l.1,.19s-.02,.04-.03,.06c-.08,.26-.06,.64,.11,.87,.09,.12,.22,.19,.35,.19h0Z"/>
      <path class="cls-1" d="M18.16,97.05c.07,.07,.17,.1,.24,.12,.05,.02,.11,.04,.17,.04h.14s.07-.1,.07-.1c.08-.11,.06-.22,.04-.29,0-.02-.01-.05-.01-.08-.03-.27-.23-.56-.48-.89-.28-.26-.42-.26-.47-.26-.16,0-.28,.11-.3,.27-.02,.22,.09,.49,.36,.88,.1,.14,.18,.24,.24,.31Z"/>
      <path class="cls-1" d="M18.65,97.46c-.09,.17-.03,.37,.06,.58l.02,.04c.24,.37,.47,.73,.69,1.11l.76,1.3,.04,.06c.08,.13,.17,.27,.3,.34,.05,.03,.1,.03,.16,.04-.02,.06-.04,.12-.03,.2,0,.09,.08,.31,.1,.35l.14,.3h0s.13,.26,.13,.26l.09,.18h0s.18,.36,.18,.36c.11,.22,.2,.4,.29,.56,.08,.17,.16,.34,.25,.54l.14,.36c.23,.59,.44,1.16,.63,1.74,.26,.81,.42,1.5,.52,2.15l.02,.18c.03,.2,.05,.4,.12,.58,.1,.3,.11,.6,.13,.92,0,.06,0,.12,.01,.18h-.01s.03,.28,.03,.28l.02,.21h0c.01,.13,.03,.27,.05,.4,.03,.2,.13,.52,.4,.52h.09c.1-.04,.34-.12,.39-.33,.04-.16,.03-.38,0-.64l-.02-.26v-.04s0-.04,0-.05l-.02-.2h0c-.03-.35-.07-.72-.12-1.14l-.23-1.37c-.02-.1-.05-.19-.08-.28-.02-.05-.03-.09-.04-.14l-.44-1.5c-.08-.28-.16-.49-.24-.68l-.05-.13c-.06-.16-.12-.31-.19-.44l-.26-.56c-.09-.19-.18-.39-.29-.63-.06-.12-.19-.37-.28-.54l-.46-.86h0s-.17-.32-.17-.32c0-.02-.11-.19-.19-.24-.06-.05-.13-.07-.19-.09,0-.01,.01-.02,.02-.04,.04-.16-.03-.33-.11-.52-.17-.36-.39-.69-.63-1.03l-.08-.11c-.09-.13-.17-.25-.24-.39-.21-.46-.38-.79-.69-1.17l-.05-.06-.07-.02s-.04-.02-.06-.03c-.07-.03-.15-.07-.24-.07h-.07c-.1,.03-.18,.08-.22,.17Z"/>
      <path class="cls-1" d="M24.09,111.67c-.14,.04-.29,.15-.33,.32-.12,.53-.11,1.47,.2,1.85,.13,.16,.28,.2,.38,.2h.08c.09-.02,.17-.07,.22-.16,.19-.32,.06-1.42-.12-1.94-.04-.11-.17-.29-.34-.29h-.08Z"/>
      <path class="cls-1" d="M17.3,103.4s.12,.11,.24,.11c.13,0,.22-.08,.28-.23,0-.02,.01-.04,.02-.06,.12-.25,.06-.57,0-.86l-.02-.05c-.13-.28-.26-.4-.43-.4-.09,0-.18,.04-.24,.12-.13,.17-.17,.43-.11,.84,.02,.15,.04,.26,.08,.34,.04,.1,.12,.15,.18,.2Z"/>
      <path class="cls-1" d="M22.89,116.4c-.09-.14-.19-.28-.29-.41-.11-.15-.22-.27-.33-.36-.07-.06-.19-.11-.28-.11h-.12s-.07,.07-.07,.07c-.1,.09-.2,.25-.16,.41,.03,.15,.09,.32,.17,.49,.08,.17,.18,.33,.28,.46,.21,.27,.42,.4,.63,.4,.1,0,.2-.03,.29-.1,.24-.19,.06-.56-.12-.86Z"/>
      <path class="cls-1" d="M21.59,114.45h0s0,0,0,0l-.1-.18-.02-.04c-.12-.22-.22-.45-.33-.67l-.15-.32c-.16-.33-.31-.67-.45-1.01-.03-.07-.07-.13-.1-.2-.02-.04-.04-.08-.06-.11-.24-.49-.36-.81-.49-1.14-.15-.39-.27-.7-.41-1-.15-.32-.25-.61-.36-.97-.02-.09-.08-.24-.13-.38-.03-.09-.06-.17-.08-.22-.01-.03-.03-.07-.05-.11-.01-.03-.02-.05-.03-.06l-.13-.51h0s-.06-.25-.06-.25c0-.04-.07-.2-.15-.27-.03-.03-.06-.04-.09-.06,.09-.13,.08-.3,.07-.45-.03-.24-.09-.47-.15-.69-.03-.09-.05-.19-.08-.29l-.02-.07c-.04-.14-.07-.25-.07-.39v-.19c-.02-.32-.03-.6-.13-.94l-.03-.09-.08-.05s-.03-.02-.04-.04c-.06-.05-.14-.13-.26-.14h-.06c-.35,0-.39,.41-.41,.54v.03s.29,1.74,.29,1.74c.02,.11,.04,.23,.08,.4l.07,.29c.04,.13,.08,.31,.22,.41,.02,.02,.05,.03,.07,.04-.02,.03-.04,.07-.05,.11-.03,.09-.02,.3,0,.35l.05,.25h-.02s.08,.28,.08,.28l.04,.2h.01s.09,.31,.09,.31c.05,.16,.1,.3,.15,.43,.07,.18,.13,.35,.19,.57,.07,.26,.16,.5,.24,.74l.55,1.38c.08,.19,.16,.38,.25,.56,.13,.28,.26,.57,.38,.86,.08,.21,.18,.43,.32,.61,.14,.17,.22,.36,.31,.57,.03,.07,.06,.15,.09,.22h0s.12,.22,.12,.22c0,0,0,0,0,0l.12,.21h0c.05,.09,.1,.18,.16,.26,.08,.11,.23,.29,.42,.29h.13s.07-.07,.07-.07c.09-.08,.26-.22,.24-.42-.01-.15-.1-.32-.2-.51Zm-3.46-7.62h0s0,.01,0,.01h0Z"/>
      <path class="cls-1" d="M24.25,134.13h-.07c-.07,0-.14,.02-.2,.06,.01-.13-.02-.25-.09-.37-.19-.28-.43-.6-.78-.82-.02-.01-.04-.03-.06-.05-.08-.06-.19-.15-.34-.15-.03,0-.06,.01-.09,.02,0-.05,.01-.1,0-.17-.08-.3-.55-.74-.88-.89-.06-.03-.12-.03-.16-.03-.12,0-.22,.05-.28,.14-.04,.07-.13,.24-.07,.4,.15,.35,.55,.88,.95,.88h0c.05,0,.1-.02,.14-.03-.02,.05-.02,.1-.02,.15,.02,.16,.13,.25,.2,.3,.02,.02,.05,.04,.06,.05,.25,.34,.57,.72,1.02,.91l.22,.09s0,.06,.02,.08c.15,.33,.54,.68,.86,.68,.18,0,.33-.1,.41-.32,.07-.35-.56-.87-.87-.93Z"/>
      <path class="cls-1" d="M53.85,151.35s-.05-.03-.09-.05c-.24-.14-.61-.2-.94-.26h-.06s-.02,0-.02,0c-.35,0-.53,.07-.59,.24-.03,.09-.03,.22,.09,.33,.21,.2,.63,.3,.95,.35,.12,.02,.28,.04,.39,.04h.02c.1,0,.19-.05,.25-.08,.14-.06,.22-.14,.23-.26,0-.18-.14-.25-.21-.29Z"/>
      <path class="cls-1" d="M56.26,152.54c.62,.12,.75,.15,1.14,.22l.56,.1c.1,.01,.2,.03,.29,.03,.07,0,.13,0,.18-.02,.07-.02,.13-.06,.17-.1,.05,.09,.13,.15,.17,.17,.09,.06,.36,.14,.36,.14l.39,.09h0s.25,.06,.25,.06l.23,.06h0s.43,.09,.43,.09c.27,.06,.48,.11,.68,.15,.2,.04,.4,.09,.65,.16l.63,.19c.58,.17,1.17,.35,1.75,.55,.91,.32,1.65,.62,2.3,.94l.18,.09c.19,.1,.39,.2,.59,.26,.34,.11,.63,.29,.94,.48,.06,.04,.12,.07,.18,.11h0s.24,.14,.24,.14l.19,.11h0c.14,.08,.29,.16,.43,.23,.08,.04,.29,.13,.44,.13,.16,0,.26-.1,.29-.19,.03-.08,.11-.32-.05-.5-.11-.12-.32-.24-.56-.38l-.26-.15-.03-.02s0,0-.01,0l-.19-.11h0c-.38-.21-.77-.42-1.16-.63l-1.39-.67c-.09-.05-.2-.08-.3-.12-.05-.02-.11-.04-.16-.06l-1.64-.6c-.29-.1-.54-.18-.76-.24l-.14-.04c-.18-.05-.36-.1-.53-.14l-.67-.16c-.23-.05-.47-.11-.75-.18l-1.7-.35h0s-.4-.08-.4-.08c-.04,0-.18-.02-.24-.02h-.06c-.09,.02-.16,.06-.22,.1-.01-.03-.03-.05-.06-.08-.09-.1-.25-.16-.49-.23-.32-.08-.64-.13-.96-.17-.11-.01-.22-.03-.32-.05l-.13-.02c-.18-.02-.33-.05-.5-.09-.48-.14-.89-.23-1.43-.29h-.08s-.07,.03-.07,.03c-.02,0-.04,.01-.06,.02-.09,.03-.21,.07-.27,.19-.04,.08-.05,.17-.02,.26,.07,.17,.26,.26,.56,.37l.43,.07c.33,.05,.65,.11,.97,.17Z"/>
      <path class="cls-1" d="M72.35,158.38c.26,0,.37-.14,.42-.23l.05-.14-.04-.11c-.13-.34-1.26-.94-1.79-1.12-.05-.02-.12-.03-.19-.03-.21,0-.28,.11-.3,.18-.05,.13-.05,.32,.09,.46,.35,.34,1.22,.98,1.76,.98Z"/>
      <path class="cls-1" d="M58.99,156.08c-.15-.23-.47-.38-.79-.52-.09-.02-.22-.05-.32-.05-.14,0-.24,.05-.31,.14l-.07,.15,.05,.12c.07,.19,.27,.36,.68,.57,.14,.08,.25,.12,.34,.15h.1c.06,.01,.11,0,.16,0,.06,0,.23-.02,.29-.18,.06-.15-.03-.27-.08-.32-.01-.01-.03-.03-.04-.05Z"/>
      <path class="cls-1" d="M74.1,160.6c-.17-.02-.36-.04-.54-.04-.19,0-.37,0-.52,.01-.09,.01-.22,.07-.29,.16l-.07,.11,.02,.11c.03,.13,.11,.28,.26,.34,.15,.06,.34,.12,.54,.17,.2,.04,.41,.07,.58,.07h.04c.34,0,.57-.07,.69-.21,.08-.09,.11-.2,.1-.32-.03-.25-.32-.34-.82-.4Z"/>
      <path class="cls-1" d="M72.07,160.49c-.13-.07-.33-.12-.56-.16h-.06s-.02-.02-.02-.02l-.24-.05c-.27-.06-.53-.12-.8-.19l-.39-.1c-.4-.09-.78-.2-1.18-.31-.08-.02-.15-.04-.23-.05-.05,0-.09-.02-.14-.03-.55-.13-.91-.23-1.34-.35-.44-.13-.8-.24-1.16-.32-.38-.09-.72-.2-1.11-.34-.09-.03-.26-.09-.42-.13-.1-.03-.19-.06-.27-.08l-.71-.26h0s-.29-.12-.29-.12c-.05-.02-.21-.05-.3-.05-.06,0-.11,.02-.16,.04,0,0,0,0,0-.01-.06-.15-.22-.25-.37-.34-.23-.12-.46-.21-.69-.3-.11-.04-.22-.08-.32-.13l-.09-.03c-.15-.06-.27-.11-.4-.19l-.18-.11c-.3-.18-.55-.34-.92-.47l-.07-.03-.07,.02s-.04,0-.07,0c-.09,0-.19,.02-.28,.09-.08,.07-.12,.16-.12,.26,0,.19,.16,.33,.32,.45l1.78,.87c.11,.05,.22,.1,.4,.18l.3,.13c.11,.04,.25,.1,.39,.1h.08c.05-.02,.09-.04,.12-.06,.02,.05,.04,.1,.09,.16,.06,.07,.25,.18,.29,.2l.27,.12h0s.27,.12,.27,.12l.18,.08h0s.36,.12,.36,.12c.18,.06,.33,.11,.48,.15,.2,.06,.39,.12,.63,.21,.27,.11,.55,.19,.82,.28l2.23,.62c.33,.08,.66,.17,.99,.26,.22,.07,.46,.13,.71,.14,.25,0,.49,.08,.74,.15,.1,.03,.2,.05,.3,.08h0s.22,.06,.22,.06h0s.27,.05,.27,.05h0c.11,0,.23,.03,.34,.04,.03,0,.07,0,.12,0,.2,0,.32-.04,.4-.13l.08-.12-.02-.11c-.02-.1-.05-.31-.22-.41Z"/>
    </g>
  </g>
  <g>
    <path d="M57.98,113.24c0-.11,.09-.22,.22-.22h4.52c.13,0,.22,.1,.22,.22v.33c0,.12-.09,.22-.22,.22h-3.86v2.8h3.3c.12,0,.22,.1,.22,.22v.33c0,.13-.1,.22-.22,.22h-3.3v2.93h3.86c.13,0,.22,.1,.22,.22v.33c0,.11-.09,.22-.22,.22h-4.52c-.13,0-.22-.1-.22-.22v-7.6Z"/>
    <path d="M65.69,113.12c0-.12,.1-.21,.22-.21h.29l5.18,6.45h.02v-6.12c0-.11,.09-.22,.22-.22h.4c.11,0,.22,.1,.22,.22v7.73c0,.11-.1,.21-.22,.21h-.21l-5.27-6.58h-.01v6.25c0,.11-.09,.22-.22,.22h-.4c-.12,0-.22-.1-.22-.22v-7.73Z"/>
    <path d="M75.5,113.24c0-.11,.09-.22,.22-.22h4.52c.13,0,.22,.1,.22,.22v.33c0,.12-.09,.22-.22,.22h-3.86v2.8h3.3c.12,0,.22,.1,.22,.22v.33c0,.13-.1,.22-.22,.22h-3.3v2.93h3.86c.13,0,.22,.1,.22,.22v.33c0,.11-.09,.22-.22,.22h-4.52c-.13,0-.22-.1-.22-.22v-7.6Z"/>
    <path d="M83.21,113.24c0-.11,.09-.22,.22-.22h2.97c1.38,0,2.5,1.08,2.5,2.45,0,1.06-.7,1.94-1.7,2.34l1.57,2.92c.08,.15,0,.33-.2,.33h-.59c-.1,0-.16-.06-.18-.1l-1.53-3.04h-2.19v2.93c0,.11-.1,.22-.22,.22h-.45c-.13,0-.22-.1-.22-.22v-7.6Zm3.13,3.92c.88,0,1.65-.73,1.65-1.68,0-.87-.77-1.62-1.65-1.62h-2.23v3.3h2.23Z"/>
    <path d="M95.28,112.91c1.16,0,2,.4,2.78,1.07,.09,.09,.1,.23,.01,.32-.1,.1-.23,.22-.32,.32-.1,.12-.17,.1-.3-.01-.59-.52-1.41-.9-2.18-.9-1.81,0-3.19,1.52-3.19,3.3s1.38,3.32,3.19,3.32c1.26,0,2.07-.48,2.07-.48v-1.61h-1.32c-.13,0-.22-.09-.22-.21v-.43c0-.13,.09-.22,.22-.22h1.99c.11,0,.21,.1,.21,.22v2.63c0,.06-.05,.15-.09,.18,0,0-1.17,.76-2.84,.76-2.3,0-4.14-1.83-4.14-4.12s1.85-4.15,4.14-4.15Z"/>
    <path d="M101.05,113.24c0-.11,.1-.22,.22-.22h.46c.11,0,.22,.1,.22,.22v7.6c0,.11-.1,.22-.22,.22h-.46c-.12,0-.22-.1-.22-.22v-7.6Z"/>
    <path d="M104.38,120.64l4.17-6.77v-.03h-3.62c-.12,0-.22-.1-.22-.22v-.37c0-.11,.1-.22,.22-.22h4.65c.11,0,.22,.1,.22,.22v.15l-4.24,6.86h0s3.79,.01,3.79,.01c.13,0,.22,.1,.22,.22v.37c0,.11-.09,.22-.22,.22h-4.75c-.12,0-.22-.1-.22-.22v-.21Z"/>
    <path d="M112.25,113.24c0-.11,.09-.22,.22-.22h4.52c.13,0,.22,.1,.22,.22v.33c0,.12-.09,.22-.22,.22h-3.86v2.8h3.3c.12,0,.22,.1,.22,.22v.33c0,.13-.1,.22-.22,.22h-3.3v2.93h3.86c.13,0,.22,.1,.22,.22v.33c0,.11-.09,.22-.22,.22h-4.52c-.13,0-.22-.1-.22-.22v-7.6Z"/>
    <path d="M119.97,113.24c0-.11,.09-.22,.21-.22h2.57c2.22,0,4.03,1.8,4.03,4.01s-1.81,4.03-4.03,4.03h-2.57c-.11,0-.21-.1-.21-.22v-7.6Zm2.59,7.03c1.88,0,3.25-1.34,3.25-3.24s-1.37-3.23-3.25-3.23h-1.72v6.46h1.72Z"/>
    <path d="M136.49,112.91c1.16,0,2,.4,2.78,1.07,.09,.09,.1,.23,.01,.32l-.31,.31c-.09,.11-.18,.1-.3-.01-.6-.52-1.41-.86-2.19-.86-1.81,0-3.2,1.53-3.2,3.31s1.39,3.3,3.2,3.3c1,0,1.58-.4,2.19-.86,.12-.09,.21-.08,.28-.03l.34,.31c.09,.07,.07,.23-.01,.31-.78,.76-1.77,1.11-2.79,1.11-2.3,0-4.14-1.83-4.14-4.12s1.85-4.15,4.14-4.15Z"/>
    <path d="M140.87,120.77l3.49-7.73c.03-.07,.09-.13,.19-.13h.12c.1,0,.16,.06,.19,.13l3.47,7.73c.07,.15-.02,.3-.19,.3h-.46c-.1,0-.17-.07-.19-.13l-.85-1.9h-4.08l-.84,1.9c-.02,.06-.09,.13-.2,.13h-.46c-.17,0-.26-.15-.19-.3Zm5.45-2.43c-.56-1.25-1.11-2.52-1.68-3.77h-.09l-1.68,3.77h3.45Z"/>
    <path d="M150.5,113.12c0-.12,.1-.21,.22-.21h.29l5.18,6.45h.02v-6.12c0-.11,.09-.22,.22-.22h.4c.11,0,.22,.1,.22,.22v7.73c0,.11-.1,.21-.22,.21h-.21l-5.27-6.58h-.01v6.25c0,.11-.09,.22-.22,.22h-.4c-.11,0-.22-.1-.22-.22v-7.73Z"/>
    <path d="M160.31,113.24c0-.11,.09-.22,.21-.22h2.57c2.22,0,4.03,1.8,4.03,4.01s-1.81,4.03-4.03,4.03h-2.57c-.11,0-.21-.1-.21-.22v-7.6Zm2.59,7.03c1.88,0,3.25-1.34,3.25-3.24s-1.37-3.23-3.25-3.23h-1.72v6.46h1.72Z"/>
    <path d="M169.8,113.24c0-.11,.09-.22,.22-.22h.45c.11,0,.22,.1,.22,.22v7.05h3.31c.13,0,.22,.1,.22,.22v.33c0,.11-.09,.22-.22,.22h-3.97c-.13,0-.22-.1-.22-.22v-7.6Z"/>
    <path d="M176.36,113.24c0-.11,.09-.22,.22-.22h4.52c.13,0,.22,.1,.22,.22v.33c0,.12-.09,.22-.22,.22h-3.86v2.8h3.3c.11,0,.22,.1,.22,.22v.33c0,.13-.1,.22-.22,.22h-3.3v2.93h3.86c.13,0,.22,.1,.22,.22v.33c0,.11-.09,.22-.22,.22h-4.52c-.13,0-.22-.1-.22-.22v-7.6Z"/>
    <path d="M183.56,119.86c.06-.07,.11-.15,.17-.22,.12-.15,.24-.24,.4-.1,.08,.07,.92,.87,1.94,.87,.93,0,1.54-.59,1.54-1.26,0-.79-.69-1.26-2.01-1.81-1.26-.55-2.02-1.07-2.02-2.38,0-.78,.62-2.04,2.45-2.04,1.13,0,1.96,.59,1.96,.59,.07,.03,.21,.17,.07,.39-.05,.07-.09,.15-.14,.22-.1,.16-.22,.21-.4,.1-.08-.05-.8-.53-1.5-.53-1.22,0-1.58,.78-1.58,1.26,0,.77,.59,1.22,1.55,1.62,1.55,.63,2.55,1.22,2.55,2.55,0,1.19-1.14,2.07-2.48,2.07s-2.27-.79-2.42-.93c-.09-.08-.21-.17-.07-.39Z"/>
  </g>
  <g>
    <path d="M89.13,32.59c-1.03,0-1.86,1.14-1.86,3.69v25.58c0,2.43,.84,3.65,1.86,3.65h.34v.3h-8.06v-.3h.34c1.03,0,1.86-.72,1.86-3.65v-28.85l-11.59,24.18-11.97-23.64v28.32c0,2.13,.8,3.65,1.82,3.65h.34v.3h-4.68v-.3h.34c1.03,0,1.86-1.06,1.86-3.65v-25.58c0-2.59-.84-3.69-1.86-3.69h-.34v-.3h6.01l10.26,20.34,9.81-20.34h5.85v.3h-.34Z"/>
    <path d="M124.64,49.01c0,9.31-6.61,16.84-16.61,16.84s-16.65-7.53-16.65-16.84,6.65-16.84,16.65-16.84,16.61,7.56,16.61,16.84Zm-26.53,10.57v-.19c0-3.08,4.79-7.22,9.2-10.64,4.37-3.42,8.48-6.46,8.82-10,.04-.19,.04-.34,.04-.53,0-1.29-.61-2.47-1.48-3.23-1.9-1.6-3.95-2.43-6.65-2.43-7.79,0-12.62,7.37-12.62,16.5,0,3.99,.95,7.68,2.7,10.53Zm22.5-10.53c0-4.83-1.33-9.16-3.76-12.17,.15,.46,.19,.88,.19,1.22,0,.19-.04,.38-.04,.57-.49,3.57-4.98,6.92-9.43,10.42-3.88,3.08-7.41,5.78-8.44,8.74-.11,.38-.19,.84-.19,1.29,0,.91,.23,1.9,.68,2.55,1.94,2.66,4.79,3.84,8.4,3.84,7.75,0,12.58-7.37,12.58-16.46Z"/>
    <path d="M160.41,49.01c0,9.31-6.61,16.84-16.61,16.84s-16.65-7.53-16.65-16.84,6.65-16.84,16.65-16.84,16.61,7.56,16.61,16.84Zm-26.53,10.57v-.19c0-3.08,4.79-7.22,9.2-10.64,4.37-3.42,8.48-6.46,8.82-10,.04-.19,.04-.34,.04-.53,0-1.29-.61-2.47-1.48-3.23-1.9-1.6-3.95-2.43-6.65-2.43-7.79,0-12.62,7.37-12.62,16.5,0,3.99,.95,7.68,2.7,10.53Zm22.5-10.53c0-4.83-1.33-9.16-3.76-12.17,.15,.46,.19,.88,.19,1.22,0,.19-.04,.38-.04,.57-.49,3.57-4.98,6.92-9.43,10.42-3.88,3.08-7.41,5.78-8.44,8.74-.11,.38-.19,.84-.19,1.29,0,.91,.23,1.9,.68,2.55,1.94,2.66,4.79,3.84,8.4,3.84,7.75,0,12.58-7.37,12.58-16.46Z"/>
    <path d="M188.09,32.28v.3h-.34c-.99,0-1.82,1.44-1.82,3.69v29.54h-.3l-21.44-30.75v26.8c0,2.13,.84,3.65,1.86,3.65h.34v.3h-4.68v-.3h.34c1.03,0,1.83-1.06,1.83-3.65v-25.58c0-.8-.08-1.44-.19-1.98-.23-.87-.65-1.41-1.14-1.6-.15-.08-.3-.11-.49-.11h-.34v-.3h5.06l18.85,27.1v-23.11c0-2.59-.84-3.69-1.82-3.69h-.38v-.3h4.68Z"/>
    <path d="M83.48,100.46v6.6h-25.94v-.32h.36c1.09,0,1.98-.77,1.98-3.89v-27.24c0-2.79-.89-3.93-1.98-3.93h-.36v-.32h8.58v.32h-.36c-1.09,0-1.98,1.21-1.98,3.93v27.24c0,2.59,1.01,3.89,2.79,3.89h11.05c3.04,0,5.54-2.47,5.54-5.54v-.73h.32Z"/>
    <path d="M93.73,71.68c-1.09,0-1.98,1.21-1.98,3.93v27.24c0,2.59,.89,3.89,1.98,3.89h.36v.32h-8.58v-.32h.36c1.09,0,1.98-.77,1.98-3.89v-27.24c0-2.79-.89-3.93-1.98-3.93h-.36v-.32h8.58v.32h-.36Z"/>
    <path d="M127,89.33h-.36c-1.09,0-1.98,1.21-1.98,3.93v9.71c-1.13,1.01-2.47,1.86-3.89,2.51-2.31,1.05-4.9,1.62-7.77,1.62-10.64,0-17.69-8.01-17.69-17.93s7.04-17.93,17.69-17.93c4.69,0,8.7,1.58,11.7,4.13v5.58h-.32c0-1.17-2.67-9.27-11.37-9.27s-13.4,7.81-13.4,17.52,5.14,17.52,13.4,17.52c4.17,0,7.77-2.75,7.77-5.75v-7.73c0-2.79-.89-3.93-1.98-3.93h-.36v-.32h8.58v.32Z"/>
    <path d="M160.35,71.68c-1.09,0-1.98,1.21-1.98,3.93v27.24c0,2.59,.89,3.89,1.98,3.89h.36v.32h-8.58v-.32h.36c1.09,0,1.98-.77,1.98-3.89v-15.95c-1.34,1.66-5.71,2.23-9.96,2.79-2.02,.28-4.05,.57-5.71,.93-2.06,.49-3.52,2.35-3.52,4.45v7.77c0,2.59,.85,3.89,1.94,3.89h.36v.32h-8.58v-.32h.4c1.05,0,1.94-.77,1.94-3.89v-27.24c0-2.79-.89-3.93-1.94-3.93h-.4v-.32h8.58v.32h-.36c-1.09,0-1.94,1.21-1.94,3.93v16.19c1.25-1.34,5.1-1.86,9.15-2.43,2.27-.28,4.57-.61,6.39-1.05,2.14-.53,3.64-2.43,3.64-4.61v-8.09c0-2.79-.89-3.93-1.98-3.93h-.36v-.32h8.58v.32h-.36Z"/>
    <path d="M191.03,71.36v6.6h-.32v-.73c0-3.08-2.47-5.54-5.54-5.54h-3.89c-1.34,0-2.43,1.21-2.43,3.93v27.24c0,2.59,.89,3.89,1.94,3.89h.37v.32h-8.54v-.32h.37c1.09,0,1.94-.77,1.94-3.89v-27.24c0-2.79-.85-3.93-2.59-3.93h-3.72c-3.08,0-5.55,2.47-5.55,5.54v.73h-.32v-6.6h28.29Z"/>
  </g>
</svg>