<?xml version="1.0" encoding="UTF-8"?>
<svg id="Layer_1" data-name="Layer 1" xmlns="http://www.w3.org/2000/svg" viewBox="0 0 326.4 129.95">
  <defs>
    <style>
      .cls-1 {
        font-family: Qeilab, Qeilab;
        font-size: 38px;
      }

      .cls-2 {
        letter-spacing: -.02em;
      }

      .cls-3 {
        letter-spacing: .02em;
      }

      .cls-4 {
        fill: #474747;
      }

      .cls-5 {
        letter-spacing: -.02em;
      }
    </style>
  </defs>
  <text class="cls-1" transform="translate(31.95 70.7)"><tspan x="0" y="0">M</tspan><tspan class="cls-3" x="33.82" y="0">O</tspan><tspan class="cls-5" x="69.58" y="0">O</tspan><tspan x="104.12" y="0">NL</tspan><tspan class="cls-2" x="158.65" y="0">I</tspan><tspan x="167.84" y="0">GHT</tspan></text>
  <g>
    <path class="cls-4" d="M116.43,86.64c-.46-.16-.7-.66-.55-1.11,.15-.45,.65-.69,1.11-.54,.46,.15,.71,.64,.55,1.11-.16,.46-.65,.71-1.11,.54Z"/>
    <path class="cls-4" d="M113.72,93.05c-.44-.22-.6-.72-.41-1.16,.19-.43,.71-.62,1.15-.42,.44,.2,.64,.72,.43,1.17-.19,.45-.75,.62-1.18,.41Z"/>
    <path class="cls-4" d="M71.1,6.36c-.1,.48-.55,.79-1.02,.71-.47-.08-.78-.54-.7-1.02,.08-.48,.54-.8,1.02-.71,.48,.09,.79,.54,.7,1.02Z"/>
    <path class="cls-4" d="M77.84,8.14c-.15,.46-.63,.71-1.09,.57-.45-.13-.71-.61-.58-1.08,.14-.47,.63-.74,1.1-.6,.47,.15,.72,.65,.57,1.11Z"/>
    <path class="cls-4" d="M84.32,10.67c-.2,.44-.72,.64-1.15,.45-.43-.19-.63-.72-.44-1.16,.19-.45,.7-.65,1.15-.45,.45,.2,.64,.72,.44,1.16Z"/>
    <path class="cls-4" d="M90.48,13.91c-.25,.41-.79,.56-1.2,.32-.41-.24-.55-.77-.31-1.19,.24-.42,.77-.57,1.2-.32,.42,.24,.56,.78,.31,1.19Z"/>
    <path class="cls-4" d="M96.22,17.85c-.3,.38-.84,.46-1.21,.16-.38-.28-.47-.82-.18-1.21,.28-.39,.84-.48,1.23-.2,.38,.3,.46,.86,.16,1.24Z"/>
    <path class="cls-4" d="M101.48,22.41c-.34,.35-.89,.36-1.23,.04-.34-.33-.35-.88-.03-1.24,.33-.36,.88-.37,1.23-.04,.35,.34,.37,.89,.03,1.24Z"/>
    <path class="cls-4" d="M106.2,27.54c-.19,.15-.42,.22-.64,.2-.22-.02-.44-.12-.6-.29-.31-.36-.26-.91,.1-1.22,.37-.32,.92-.28,1.24,.09,.16,.18,.23,.41,.21,.64-.02,.23-.13,.44-.32,.6Z"/>
    <path class="cls-4" d="M110.29,33.17c-.41,.26-.95,.15-1.2-.25-.25-.4-.15-.93,.25-1.21,.4-.27,.96-.18,1.22,.24,.26,.41,.15,.96-.26,1.22Z"/>
    <path class="cls-4" d="M113.72,39.23c-.44,.21-.96,.04-1.18-.38-.22-.42-.04-.95,.39-1.17,.43-.23,.96-.06,1.18,.38,.22,.44,.05,.96-.39,1.17Z"/>
  </g>
  <path class="cls-4" d="M292.97,87.19c-.47,0-.96,.45-.96,.91,0,.48,.47,.96,.92,.95,.47-.01,.92-.47,.92-.95,.05-.45-.46-.9-.88-.91Z"/>
  <path class="cls-4" d="M272.12,28.85c-.79-.01-1.61,.76-1.6,1.52,0,.8,.79,1.61,1.54,1.59,.78-.02,1.53-.79,1.54-1.59,.09-.76-.76-1.5-1.48-1.51Z"/>
  <path class="cls-4" d="M312.88,27.75c-1.42,0-1.42,2.2,0,2.2s1.42-2.2,0-2.2Z"/>
  <g>
    <path class="cls-4" d="M256.38,23.5c.07,.24,.15,.43,.28,.74,.15,.38,.24,.69,.28,1.07,.03,.29,.1,.56,.14,.85-.01,.33-.01,.68-.02,1.02-.02,.05-.04,.24,.02,.67,.03,.18,.02,.42,0,.6-.01,.07,.01,.17,.04,.26,.03,.08,.06,.2,.1,.32,.02,.16,.17,.36,.33,.44l.25-.5s-.03-.03-.05-.07c0,0-.02-.09-.01-.09-.02-.81-.02-1.61-.04-2.44,0-.24-.02-.51-.06-.75,0-.08-.02-.17-.04-.25-.05-.26-.1-.51-.15-.77-.01-.08-.09-.33-.12-.41-.2-.56-.39-.86-.54-1.39-.06-.2-.13-.42-.23-.62l-.5,.26c.13,.32,.23,.7,.33,1.06Z"/>
    <path class="cls-4" d="M251.18,20.42c.28,0,.47-.03,.79-.05,.4-.02,.72,0,1.1,.1,.29,.07,.57,.09,.85,.15,.3,.12,.58,.27,.84,.45,.02,.04,.16,.15,.48,.36,.13,.09,.28,.27,.35,.41,.06,.12,.25,.22,.35,.33,.04,.09,.08,.17,.12,.26l.5-.25c-.04-.09-.08-.17-.13-.26l-.09-.15c-.47-.76-1.17-1.32-2.01-1.65-.24-.09-.49-.16-.74-.2-.08-.02-.16-.04-.24-.04-.26-.04-.51-.08-.77-.12-.08-.02-.34-.03-.43-.03-.6,0-.98,.17-1.43,.04-.04-.02-.08-.03-.12-.05h-.03s0-.02,0-.02c.03,.01,0,0,.01,0,0,0-.01,0,0,0,.02,.01,.03,.02,.03,.02,.02,.02,.01,0,0,0l-.02-.06v-.02s0-.01,0-.01c0,0,.02,.05,0,.03h0s0,0,0,0h0s0,0,0,0c0,0,0,0,0,0,0,.02,0,.04,0,.06,0,.06-.01,.06-.02,.07,0,0,0,.01-.01,.02,0,0-.01,.01-.03,.03h.01s.08-.05,.08-.05l-.29-.48-.06,.03s-.14,.08-.16,.13c-.02,.03-.04,.06-.06,.1,0,.03-.02,.05-.03,.1-.01,.08,.03,.19,.02,.16l.02,.08s.02,.07,.05,.12c.02,.03,.03,.05,.06,.09,.02,.02,.03,.03,.06,.06,.02,.01,.04,.03,.05,.04h0s.11,.06,.11,.06l.09,.03c.24,.08,.47,.1,.68,.11Z"/>
    <path class="cls-4" d="M255.45,16.87c-.16,.17-.28,.34-.49,.57-.26,.3-.51,.49-.85,.67-.26,.13-.48,.3-.74,.43-.31,.1-.62,.19-.95,.25-.05,0-.23,0-.62,.13-.16,.05-.4,.05-.58,.05-.13,0-.3,.08-.46,.15-.03,.01-.07,.03-.1,.04-.15,.04-.26,.11-.35,.15l.29,.48c.08-.05,.15-.08,.2-.1,0,0,.04-.01,.07-.02,.02,0,.05,0,.04,0,.38-.06,.8-.07,1.22-.15,.41-.06,.83-.17,1.24-.32,.12-.05,.24-.09,.35-.15l.34-.18c.08-.04,.15-.08,.21-.13,.11-.07,.22-.14,.33-.21,.11-.07,.22-.14,.33-.22,.07-.05,.27-.22,.33-.29,.42-.44,.6-.76,.95-1.19,.13-.18,.26-.36,.36-.56l-.5-.25c-.19,.31-.41,.6-.65,.86Z"/>
    <path class="cls-4" d="M256.96,10.28c-.03,.25-.03,.48-.02,.82,.01,.43,.01,.76-.04,1.16-.04,.3,0,.62,.01,.89-.04,.32-.11,.64-.2,.96-.03,.04-.1,.21-.16,.62-.03,.17-.13,.39-.21,.53-.07,.12-.06,.34-.1,.5-.05,.09-.1,.17-.15,.26l.5,.25,.13-.25s.07-.15,.07-.16c.34-.79,.59-1.56,.7-2.44,.03-.25,.02-.51,.02-.75,0-.08,0-.16,0-.24,0-.25,0-.5,.04-.75,0-.08,.01-.33,.01-.42,0-.57-.08-.94,.06-1.44l.03-.15s.01-.06,.02-.07c0,.02,0,.03-.03,.06-.03,.03-.08,.04-.1,.04-.02,0-.03,0-.01,0,.01,0,.04,.03,.04,.04l.44-.35c-.06-.08-.12-.13-.19-.18-.06-.03-.19-.13-.42-.06-.11,.04-.2,.13-.24,.2-.02,.04-.04,.07-.05,.12v.02s-.01,.03-.01,.03l-.03,.15c-.04,.2-.09,.4-.13,.59Z"/>
    <path class="cls-4" d="M258.9,15.39c-.06-.23-.13-.41-.2-.72-.03-.09-.04-.19-.06-.27-.01-.1-.03-.19-.04-.29-.02-.19-.04-.37-.05-.58-.02-.31-.1-.6-.17-.89l-.06-1.01s.03-.24-.06-.65c-.03-.17-.02-.41,0-.58,.02-.14-.08-.35-.1-.51,0-.04,0-.14,0-.22-.01-.08-.04-.17-.11-.27l-.44,.35s.01,.05,.01,.11c0,0,0,.16,0,.16,0,.85,.05,1.65,.14,2.49,.03,.24,.07,.48,.11,.72,0,.08,.02,.16,.04,.23,.04,.25,.08,.49,.08,.74,0,.08,.04,.33,.05,.42,.12,.6,.3,.93,.47,1.45,.07,.21,.16,.41,.26,.61l.49-.28c-.15-.33-.27-.68-.36-1.02Z"/>
    <path class="cls-4" d="M264.08,18.58c-.26-.03-.47-.02-.81,0-.42,.01-.74,0-1.11-.08-.28-.07-.56-.09-.83-.16-.29-.13-.57-.29-.81-.48-.02-.04-.15-.15-.46-.39-.13-.1-.25-.29-.32-.43-.06-.13-.26-.25-.36-.36-.05-.09-.09-.18-.13-.27l-.49,.28c.04,.08,.09,.17,.13,.25,0,0,.09,.14,.09,.15,.22,.36,.48,.72,.8,1.02,.32,.3,.7,.54,1.11,.72,.24,.1,.49,.17,.74,.22,.08,.02,.16,.04,.25,.04,.26,.04,.52,.07,.78,.11,.08,.01,.34,.02,.43,.02,.58,0,.94-.08,1.46,0,.1,.01,.18,.03,.27,.06,.04,.01,.09,.03,.13,.05h.02s0,0,0,0h0s.02,.01-.02-.01h0s0,0,0,0h0s0,0,0,0h0s-.02,0-.02-.01c-.06-.04-.05-.05-.05-.05,0,0,0,0,0,.02l.54-.15s-.02-.07-.04-.13c-.01-.03-.03-.06-.07-.11-.01-.01-.01-.02-.04-.04-.02-.02-.06-.04-.07-.04h0s0,0,0,0h0s-.03-.02-.03-.02h0c-.05-.03-.11-.05-.16-.07-.11-.04-.22-.06-.34-.08-.21-.03-.39-.05-.59-.07Z"/>
    <path class="cls-4" d="M260.21,21.86c.18-.17,.31-.33,.52-.58,.26-.31,.49-.5,.82-.64,.25-.11,.48-.21,.78-.32l.99-.2s.24,0,.63-.14c.16-.06,.4-.08,.57-.07,.07,0,.16-.03,.24-.06,.12-.04,.23-.1,.3-.14l.08-.02s0,0,.08-.03c.04-.02,.07-.04,.1-.07,.03-.02,.05-.05,.08-.09,0-.01,.02-.03,.02-.05v-.04s.03-.06,.03-.09v-.03s0-.05,0-.05h0s-.02-.1-.02-.1l-.54,.15v.06s.01,.02,.01,.02h0s0,0,0,0h0s0-.03,0-.03h0s0,0,0,0c0,.03,0-.05,0-.08,.02-.06,.03-.06,.03-.07,.01-.01,0,0,.04-.03,0,0-.03,.01-.05,.01,0,0-.14,.04-.14,.04-.05,.01-.06,.01-.12,.02l-.16,.02-.31,.04c-.21,.03-.41,.07-.61,.11-.41,.08-.81,.18-1.22,.28-.24,.07-.45,.13-.71,.22-.08,.03-.17,.06-.24,.1-.25,.12-.48,.26-.71,.41-.08,.05-.28,.23-.33,.3-.4,.43-.59,.74-.98,1.14-.15,.16-.29,.33-.42,.51l.47,.31c.23-.29,.48-.56,.75-.81Z"/>
    <path class="cls-4" d="M258.45,28.28c.04-.26,.04-.49,.02-.84-.01-.22-.02-.41-.04-.61-.01-.19-.02-.38-.01-.57,0-.29-.02-.57-.02-.86,.06-.32,.14-.63,.25-.94,.03-.04,.11-.2,.21-.59,.05-.16,.16-.37,.27-.49,.08-.11,.11-.33,.16-.48l.18-.24-.46-.31-.16,.23s-.09,.15-.09,.15c-.45,.73-.78,1.51-.92,2.39-.04,.25-.05,.51-.05,.76,0,.08,0,.17,0,.25l.02,.39c0,.12,.01,.25,0,.37,0,.08,0,.32,.01,.41,.03,.56,.07,.92-.05,1.44l-.03,.15-.02,.08s-.01,.06-.01,.04c0-.03,.04-.04,.03-.04l-.16,.54c.1,.03,.22,.05,.34,0,.12-.04,.23-.13,.3-.24,.03-.05,.06-.14,.06-.17l.02-.07,.03-.14c.04-.19,.08-.39,.11-.58Z"/>
  </g>
  <g>
    <path class="cls-4" d="M306.8,94.68c.05,.19,.12,.34,.22,.58,.12,.3,.19,.55,.22,.85,.02,.23,.08,.44,.11,.67,0,.26-.01,.54-.01,.81-.01,.04-.03,.19,.02,.53,.02,.14,.01,.34,0,.47,0,.06,0,.13,.03,.2,.02,.06,.05,.16,.08,.25,.02,.13,.13,.29,.26,.35l.2-.39s-.03-.03-.04-.05c0,0-.01-.07,0-.07-.01-.64-.01-1.27-.03-1.92,0-.19-.02-.4-.05-.59,0-.07-.02-.13-.03-.19-.04-.2-.08-.4-.12-.61-.01-.07-.07-.26-.09-.33-.16-.44-.31-.68-.43-1.09-.05-.16-.1-.33-.18-.49l-.4,.2c.1,.25,.18,.55,.26,.84Z"/>
    <path class="cls-4" d="M302.7,92.25c.22,0,.37-.02,.62-.04,.32-.02,.57,0,.87,.08,.23,.06,.45,.07,.67,.12,.24,.1,.46,.21,.66,.36,.02,.03,.13,.12,.38,.28,.11,.07,.22,.21,.27,.32,.05,.09,.2,.17,.28,.26,.03,.07,.07,.14,.09,.21l.39-.2c-.03-.07-.06-.14-.1-.2l-.07-.12c-.37-.6-.93-1.04-1.58-1.3-.19-.07-.39-.12-.58-.16-.06-.02-.13-.03-.19-.03-.2-.03-.4-.07-.61-.1-.07-.01-.27-.02-.34-.02-.47,0-.78,.14-1.13,.03-.03-.01-.07-.02-.1-.04h-.02s0-.01,0-.01c.02,.01,0,0,0,0,0,0-.01,0,0,0,.02,.01,.02,.02,.03,.02,.01,.01,0,0,0,0v-.05s-.02-.02-.02-.02h0s.01,.03,0,.01h0s0,0,0,0h0s0,0,0,0c0,0,0,0,0,0,0,.02,0,.03,0,.05,0,.05-.01,.05-.01,.06,0,0,0,0-.01,.02,0,0,0,0-.03,.02h.01s.06-.04,.06-.04l-.23-.38-.04,.02s-.11,.07-.13,.11c-.02,.02-.03,.05-.05,.08,0,.02-.02,.04-.02,.08-.01,.06,.02,.15,.02,.13l.02,.06s.02,.05,.04,.09c.01,.02,.02,.04,.05,.07,.01,.01,.02,.02,.05,.05,.01,.01,.03,.02,.04,.03h0s.09,.04,.09,.04l.07,.03c.19,.07,.37,.08,.54,.09Z"/>
    <path class="cls-4" d="M306.07,89.45c-.13,.14-.22,.26-.38,.45-.2,.24-.41,.39-.67,.53-.2,.1-.38,.23-.58,.34-.24,.08-.49,.15-.75,.19-.04,0-.18,0-.49,.1-.13,.04-.32,.04-.46,.04-.1,0-.24,.07-.36,.12-.03,.01-.05,.02-.08,.03-.12,.03-.21,.08-.28,.12l.23,.38c.06-.04,.12-.07,.16-.08,0,0,.03-.01,.05-.01,.02,0,.04,0,.03,0,.3-.05,.63-.06,.96-.12,.33-.05,.65-.14,.98-.25,.09-.04,.19-.07,.28-.11l.27-.14c.06-.03,.12-.06,.17-.1,.09-.05,.18-.11,.26-.17,.09-.06,.18-.11,.26-.17,.06-.04,.22-.17,.26-.23,.33-.35,.48-.6,.75-.94,.1-.14,.21-.28,.28-.44l-.4-.2c-.15,.25-.33,.47-.52,.68Z"/>
    <path class="cls-4" d="M307.27,84.25c-.03,.2-.02,.38-.01,.64,.01,.34,0,.6-.03,.92-.03,.24,0,.49,0,.7-.03,.25-.09,.51-.16,.75-.02,.03-.08,.17-.13,.49-.02,.14-.1,.31-.16,.42-.05,.1-.05,.27-.08,.39-.04,.07-.08,.13-.12,.2l.39,.2,.11-.2s.05-.12,.06-.12c.27-.63,.47-1.23,.55-1.93,.02-.2,.02-.4,.02-.59,0-.06,0-.13,0-.19,0-.2,0-.4,.03-.59,0-.06,.01-.26,0-.33,0-.45-.06-.74,.05-1.14l.03-.12s0-.05,.01-.05c0,.02,0,.03-.03,.05-.02,.02-.06,.03-.08,.03-.01,0-.02,0-.01,0,.01,0,.03,.03,.03,.03l.35-.28c-.05-.06-.1-.1-.15-.14-.05-.03-.15-.1-.33-.05-.09,.03-.16,.1-.19,.16-.02,.03-.03,.06-.04,.1v.02s-.01,.03-.01,.03l-.03,.12c-.03,.15-.07,.31-.1,.47Z"/>
    <path class="cls-4" d="M308.8,88.28c-.04-.18-.1-.33-.16-.56-.02-.07-.03-.15-.05-.22-.01-.08-.02-.15-.03-.23-.02-.15-.03-.29-.04-.45-.01-.25-.08-.47-.13-.7l-.05-.8s.02-.19-.04-.51c-.03-.14-.02-.33,0-.46,.02-.11-.06-.27-.08-.4,0-.04,0-.11,0-.17-.01-.06-.03-.14-.09-.21l-.34,.28s.01,.04,0,.08c0,0,0,.12,0,.13,0,.67,.04,1.3,.11,1.96,.02,.19,.06,.38,.09,.57,0,.06,.02,.12,.03,.19,.03,.19,.06,.39,.07,.59,0,.06,.03,.26,.04,.33,.1,.47,.24,.73,.37,1.15,.06,.16,.13,.32,.21,.48l.39-.22c-.12-.26-.22-.53-.28-.8Z"/>
    <path class="cls-4" d="M312.88,90.8c-.2-.02-.37-.01-.64,0-.33,.01-.59,0-.88-.06-.22-.05-.44-.07-.66-.12-.23-.1-.45-.23-.64-.38-.02-.04-.12-.12-.36-.31-.1-.08-.2-.23-.25-.34-.05-.1-.2-.19-.28-.29-.04-.07-.07-.14-.1-.21l-.38,.22c.03,.07,.07,.13,.11,.19,0,0,.07,.11,.07,.12,.17,.28,.37,.57,.63,.81,.25,.24,.55,.43,.88,.57,.19,.08,.39,.13,.58,.17,.06,.02,.13,.03,.2,.03,.2,.03,.41,.06,.61,.08,.07,.01,.27,.02,.34,.02,.46,0,.74-.06,1.16,0,.08,.01,.14,.03,.22,.05,.03,.01,.07,.02,.1,.04h.01s0,0,0,0h0s.02,0-.02,0h0s0,0,0,0h0s0,0,0,0h0s-.01,0-.02,0c-.05-.03-.04-.04-.04-.04,0,0,0,0,0,.02l.43-.12s-.01-.06-.03-.1c0-.02-.02-.05-.05-.08-.01-.01-.01-.01-.03-.03-.02-.01-.05-.03-.05-.04h0s0,0,0,0h0s-.03-.01-.03-.01h0s-.08-.04-.13-.05c-.09-.03-.18-.05-.27-.06-.16-.02-.31-.04-.46-.06Z"/>
    <path class="cls-4" d="M309.83,93.39c.14-.13,.24-.26,.41-.46,.21-.24,.39-.39,.65-.5,.2-.08,.38-.17,.61-.26l.78-.16s.19,0,.5-.11c.13-.04,.32-.06,.45-.05,.06,0,.12-.02,.19-.05,.09-.03,.18-.08,.24-.11l.06-.02s0,0,.07-.03c.04-.02,.05-.04,.08-.05,.02-.02,.04-.04,.06-.07,0,0,.01-.02,.02-.04v-.03s.02-.05,.02-.07v-.02s0-.04,0-.04h0s-.01-.08-.01-.08l-.43,.12v.04s.01,.01,.01,.01h0s0,0,0,0h0s0-.03,0-.03h0s0,0,0,0c0,.02,0-.04,0-.06,.01-.05,.02-.05,.02-.05,0,0,0,0,.03-.03,0,0-.03,0-.04,.01,0,0-.11,.03-.11,.03-.04,0-.05,0-.1,.01h-.12s-.25,.05-.25,.05c-.16,.02-.32,.05-.48,.08-.32,.06-.64,.14-.96,.22-.19,.05-.35,.1-.56,.18-.07,.02-.13,.05-.19,.08-.2,.09-.38,.21-.56,.33-.06,.04-.22,.18-.26,.23-.32,.34-.47,.59-.77,.9-.12,.12-.23,.26-.33,.4l.37,.25c.18-.23,.38-.44,.59-.64Z"/>
    <path class="cls-4" d="M308.44,98.46c.03-.21,.03-.38,.02-.66-.01-.17-.02-.33-.03-.48,0-.15-.02-.3,0-.45,0-.23-.02-.45-.02-.68,.05-.25,.11-.5,.19-.74,.03-.03,.08-.16,.16-.47,.04-.13,.13-.29,.21-.39,.06-.09,.08-.26,.13-.38l.15-.19-.37-.25-.13,.18s-.07,.11-.07,.11c-.36,.57-.61,1.19-.72,1.88-.03,.2-.04,.4-.04,.6,0,.07,0,.13,0,.2l.02,.31c0,.1,0,.19,0,.29,0,.06,0,.26,0,.32,.02,.44,.05,.72-.04,1.13l-.03,.12v.06s-.02,.05-.02,.03c0-.02,.03-.03,.03-.03l-.13,.43c.08,.03,.17,.04,.27,0,.1-.03,.18-.1,.24-.19,.03-.04,.04-.11,.05-.14v-.06s.04-.11,.04-.11c.03-.15,.06-.31,.09-.46Z"/>
  </g>
  <path class="cls-4" d="M297.97,40.24c.14,.08,.29,.16,.43,.21,1.46,.55,2.49,1.44,2.8,3.12,.18,.98,.35,1.77,.23,3.31-.03,.46,.67,.35,.68-.11,.01-.41,0-.82,.06-1.21,.31-2.3,1.14-4.61,3.11-5.52,.17-.08,.42-.15,.43-.39,.01-.37-.31-.28-.5-.36-1.8-.75-2.89-2.52-3.19-4.74-.05-.36,.08-1.9-.28-2.06-.53-.21-.34,1.48-.34,1.78,0,1.11-.17,2.15-.74,3.06-.65,1.03-1.4,1.92-2.45,2.38-.09,.04-.17,.09-.25,.15-.11,.08-.1,.29,.02,.36Z"/>
  <path class="cls-4" d="M312.22,69.22c-1.03-.71-1.99,.08-2.24,1.07-.11,.45-.07,.95,.18,1.36,1.44,2.35,3.91-1.16,2.06-2.43Z"/>
  <path class="cls-4" d="M295.64,59.76c-2.03-2.04-4.1,1.8-1.42,2.24,1.5,.24,2.57-1.09,1.42-2.24Z"/>
  <g>
    <path class="cls-4" d="M108.99,99.33c-.42,.32-.83,.66-1.23,1-1.19,1.01-2.33,2.08-3.6,3-2.47,1.79-5.18,3.26-8.01,4.42-5.61,2.31-11.67,3.47-17.72,3.72-11.48,.47-23.04-2.88-32.52-9.34-17.12-11.66-25.93-34.08-22.05-54.3,2.35-12.26,9.58-23.33,19.17-31.2,3.81-3.13,8.01-5.82,12.51-7.84,2.15-.97,4.47-1.95,6.79-2.43,1.13-.23,2.33-.51,3.49-.75,.42-.08,2.27-.77,.91-.95-10.35-1.36-21.19,.57-30.72,4.73-9.4,4.11-16.88,11.04-22.2,19.74C3.11,46.64,.84,69.32,8.3,88.44c7.54,19.32,24.57,32.51,44.9,35.86,9.63,1.59,19.59,.85,28.93-1.95,8.57-2.57,16.67-6.92,22.39-13.91,2.4-2.94,4.45-6.17,6.45-9.39,.64-1.03-1.72,.1-1.97,.29Zm-37.75,14.2c.23,.3,.33,.64-.11,.87-.65,.35-1.54-.27-1.67-.94-.01-.06-.02-.12-.02-.2,0-.05,0-.15,.02-.24,.01-.07,.05-.14,.08-.17,.33-.4,.78-.11,1.09,.12,.16,.12,.42,.33,.6,.56Zm-12.21-.7c-.08-.06-.16-.12-.21-.2-.08-.1-.11-.17-.15-.27l-.02-.04h0c-.01-.05-.03-.09-.04-.16,0-.03-.03-.12-.03-.21,0-.08,.02-.14,.03-.17,.02-.05,.06-.08,.09-.1,.05-.02,.09-.04,.17-.03,.08,0,.18,.03,.27,.06,.1,.03,.18,.06,.25,.09h0l.21,.09,.11,.05h0s.01,0,.01,0c.03,.01,.06,.03,.1,.04,.05,.02,.1,.04,.15,.07,.09,.05,.17,.09,.2,.12,.06,.05,.12,.12,.18,.2,.06,.08,.09,.14,.12,.22,.03,.08,.04,.16,.04,.23,0,.03,0,.06-.01,.09-.04-.03-.08-.05-.14-.07-.19-.07-.38,0-.42,.15-.02,.06-.02,.13,0,.22-.04,0-.08,0-.13,0-.12-.02-.2-.03-.24-.05-.06-.02-.11-.05-.16-.08l-.15-.09c-.08-.05-.15-.1-.23-.15Zm-2.07,4.97h0s-.23,.01-.23,.01h-.13s0,0,0,0h-.05c-.08,0-.19,.02-.31,.04-.16,.02-.33,.04-.47,.04-.05,0-.11,0-.16,0-.06,0-.12,0-.19,0h-.15c-.14,0-.28,0-.42,.01-.13,0-.27,.01-.42,.02-.18,0-.31-.01-.45-.02h0s-.14-.01-.14-.01l-.22-.02h0s-.06,0-.06,0c-.08,0-.2,0-.32,0-.16,0-.34,0-.45-.01-.07,0-.15-.02-.22-.03-.06-.01-.11-.02-.16-.03h-.05c-.18-.04-.37-.05-.55-.06-.14,0-.27-.02-.4-.03-.17-.02-.29-.05-.41-.08,0,0-.02,0-.03,0h0s-.14-.03-.14-.03c0,0,0,0,0,0l-.2-.04h0s-.05,0-.07,0c-.08-.01-.19-.02-.31-.04h-.07c-.14-.02-.27-.04-.34-.06l-.43-.11c-.15-.04-.29-.06-.47-.08-.15-.02-.29-.04-.43-.07-.16-.04-.28-.07-.4-.11h0s0,0,0,0l-.15-.04s-.03,0-.05-.01l-.14-.04h0s-.05,0-.08-.01c-.25-.05-.58-.12-.72-.16l-1.01-.31c-.11-.03-.22-.06-.32-.09-.2-.07-.33-.12-.47-.18l-.07-.03h0c-.08-.03-.16-.07-.26-.11-.07-.03-.16-.06-.26-.09-.17-.06-.36-.12-.47-.17-.06-.03-.12-.05-.17-.08l-.23-.12c-.16-.09-.33-.16-.5-.22-.13-.05-.26-.11-.38-.17-.15-.07-.25-.14-.35-.21h0s-.15-.1-.15-.1c0,0,0,0-.01,0l-.13-.08h0s-.06-.04-.1-.06l-.36-.19c-.11-.05-.2-.12-.28-.17l-.4-.3c-.13-.1-.27-.18-.41-.27-.13-.09-.26-.18-.38-.27-.13-.1-.21-.17-.3-.25h0s-.15-.14-.15-.14c0,0-.01-.01-.02-.02l-.09-.09h0s-.06-.05-.1-.08c-.16-.13-.47-.38-.59-.5l-.32-.33c-.11-.11-.22-.21-.33-.32-.12-.11-.24-.23-.36-.34-.11-.11-.19-.2-.26-.29h0s-.13-.16-.13-.16c0,0-.01-.01-.02-.02l-.08-.1h0s-.05-.06-.08-.09c-.05-.05-.12-.13-.2-.21-.12-.13-.26-.28-.34-.36l-.92-1.07c-.09-.11-.16-.2-.22-.28-.05-.06-.09-.11-.14-.17l-.17-.23c-.06-.08-.17-.2-.27-.31-.06-.06-.11-.12-.16-.18,.04,.02,.08,.04,.11,.06,.11,.05,.21,.1,.33,.16,.15,.08,.3,.14,.44,.2h0s.15,.06,.15,.06c0,0,0,0,0,0,0,0,0,0,0,0l.18,.06h0s.09,.03,.13,.04l.7,.22c.06,.02,.12,.03,.18,.05,.1,.03,.19,.06,.3,.08l.23,.04c.1,.02,.19,.04,.29,.05,.12,.02,.24,.04,.38,.08,.16,.03,.3,.06,.44,.08h0s.17,.03,.17,.03l.18,.03h0s.26,.04,.26,.04c.19,.03,.37,.05,.56,.08,.07,0,.13,.02,.2,.03,.09,.02,.18,.03,.27,.04l.22,.02c.1,.01,.19,.02,.29,.03,.12,.01,.24,.02,.37,.04,.21,.03,.4,.06,.59,.08h0s.45,.06,.45,.06c.18,.02,.37,.05,.55,.08,.08,.01,.15,.03,.22,.05,.07,.02,.15,.04,.23,.05l.22,.03c.09,.02,.18,.03,.27,.05,.13,.02,.25,.04,.39,.08,.12,.04,.24,.07,.35,.1,.02,0,.05,.01,.07,.02h0l.22,.06,.12,.03h0s.41,.11,.41,.11c.14,.04,.28,.08,.41,.12,.06,.02,.12,.05,.19,.07,.09,.04,.17,.07,.26,.1l.23,.07c.07,.02,.14,.04,.21,.07,.15,.05,.29,.09,.44,.16l.4,.17h0s.16,.07,.16,.07l.17,.07h0c.1,.04,.19,.07,.29,.12l.11,.05c.14,.06,.29,.12,.43,.19,.06,.03,.13,.07,.19,.1,.08,.04,.16,.09,.25,.13l.37,.17c.17,.07,.33,.14,.49,.24l.1,.06c.1,.06,.19,.11,.29,.16h0s.16,.09,.16,.09c0,0,0,0,.01,0h0s.43,.24,.43,.24c.18,.1,.35,.2,.52,.31,.07,.04,.13,.09,.19,.13,.07,.05,.15,.1,.23,.15l.21,.12c.07,.04,.13,.08,.2,.12,.12,.07,.25,.15,.37,.24,.12,.09,.23,.16,.33,.24h0s1.02,.69,1.02,.69c.05,.04,.1,.08,.15,.12,.07,.06,.15,.12,.23,.17l.2,.13c.07,.04,.14,.09,.2,.13,.12,.07,.24,.15,.36,.24,.12,.09,.23,.16,.33,.23h0s.14,.09,.14,.09l.16,.1h0s.75,.48,.75,.48c.05,.04,.11,.08,.16,.11,.07,.06,.15,.11,.24,.17l.1,.06c-.17-.04-.34-.06-.52-.09-.05,0-.09-.01-.14-.02v-.02c-.04-.1-.13-.16-.45-.31-.14-.05-.4-.13-.64-.13-.07,0-.22,.04-.25,.17-.05,0-.09-.02-.14-.03,0-.11-.04-.24-.22-.35l-.03-.02c-.3-.18-.62-.37-.99-.5-.04-.01-.09-.03-.14-.06-.19-.09-.43-.13-.53,.02-.05,.07-.07,.15-.05,.23,.03,.13,.16,.2,.28,.25-.14-.04-.25-.08-.36-.12h0s0,0,0,0l-.16-.05s-.03-.01-.05-.02l-.13-.04h0s-.05-.01-.09-.02c-.07-.02-.16-.04-.26-.07-.17-.05-.36-.1-.47-.13l-.43-.16c-.19-.07-.38-.12-.56-.17-.12-.03-.23-.06-.35-.1-.17-.05-.29-.09-.41-.14h0s-.16-.06-.16-.06c0,0-.02,0-.03,0l-.15-.05h0s-.06-.01-.09-.02c-.08-.02-.2-.06-.33-.09-.15-.04-.31-.08-.41-.11l-.43-.15c-.19-.06-.38-.11-.56-.16-.12-.03-.23-.06-.35-.09-.17-.05-.28-.09-.4-.13h0s0,0,0,0l-.16-.05s-.04-.01-.05-.02l-.12-.04h0s-.06-.01-.09-.02c-.07-.02-.18-.05-.29-.08-.16-.04-.34-.09-.45-.12l-.43-.15c-.18-.06-.36-.11-.54-.16-.12-.03-.24-.07-.36-.1-.17-.05-.28-.1-.4-.14h0s-.18-.06-.18-.06l-.15-.06h0s-.09-.03-.09-.03c-.08-.03-.19-.06-.31-.09-.16-.05-.33-.1-.43-.13l-.42-.16c-.15-.06-.3-.11-.46-.16l-.45-.14c-.16-.06-.28-.1-.4-.14h0s-.2-.08-.2-.08l-.13-.05h0s-.1-.04-.1-.04c0,0-.23-.08-.36-.08h-.05c-.06,.01-.15,.03-.2,.11l-.04,.09,.02,.08s.02,.08,.18,.2c.05,.04,.13,.08,.25,.12,.05,.02,.1,.04,.14,.06l.3,.13h0s.08,.03,.12,.04l.7,.27c.06,.02,.13,.05,.19,.08,.08,.04,.17,.07,.26,.11l.22,.07c.08,.03,.16,.05,.24,.08,.13,.04,.27,.08,.41,.14,.15,.06,.28,.11,.41,.15h0s.26,.09,.26,.09l.07,.02h0s.82,.27,.82,.27c.06,.02,.11,.04,.17,.06,.09,.04,.19,.07,.28,.1l.23,.06c.08,.02,.16,.05,.24,.07,.13,.04,.27,.07,.41,.12,.15,.05,.28,.1,.42,.14h0s1.16,.35,1.16,.35c.06,.02,.13,.04,.19,.07,.09,.03,.17,.06,.26,.09l.22,.06c.08,.02,.16,.04,.24,.06,.13,.04,.27,.07,.41,.12,.14,.05,.28,.09,.41,.13h0s1.16,.35,1.16,.35c.06,.02,.12,.04,.18,.07,.09,.03,.17,.07,.27,.09l.22,.06c.08,.02,.16,.05,.24,.07,.13,.04,.27,.07,.41,.12,.15,.05,.28,.1,.42,.14h0s.13,.04,.13,.04c.01,0,.02,0,.03,0l.17,.05h0s.83,.23,.83,.23c.06,.02,.13,.04,.19,.06,.09,.03,.18,.06,.27,.08l.23,.05c.08,.02,.16,.04,.24,.05,.14,.03,.27,.06,.41,.1,.15,.04,.29,.08,.43,.11h0s.09,.02,.09,.02h.04c-.15,0-.29,0-.45,.03-.03,0-.07,0-.11,0-.13,0-.42,.01-.42,.28,0,.09,.04,.28,.35,.28h.13s.03,0,.03,0c.23,.04,.42,.05,.59,.05h0c.22,0,.42-.03,.61-.09l.18-.05-.06-.17c-.03-.07-.07-.13-.12-.18l.14,.03s-.02,.09,0,.13c.02,.05,.08,.17,.18,.21,.1,.03,.21,.05,.33,.05,.2,0,.43-.05,.56-.19,.01,0,.02,0,.03,0,.14,.02,.27,.03,.42,.06,.05,0,.09,.01,.13,.02-.07,.01-.14,.02-.21,.04-.15,.03-.29,.06-.44,.08-.17,.02-.29,.03-.41,.03h-.02Zm-29.09-24.35h0s.12-.2,.12-.2c.04-.07,.11-.17,.18-.25,.07-.09,.13-.16,.17-.2,.03-.03,.05-.05,.07-.06,0,0,0,.02,.01,.03,0,.02,.01,.05,.02,.07,0,.03,.01,.06,.03,.1,.02,.04,.03,.09,.04,.13v.04s.07,.2,.07,.2c.02,.07,.05,.17,.08,.28,.01,.07,.03,.15,.05,.22,.01,.04,.02,.08,.03,.1,.02,.1,.03,.21,.03,.33v.06s0,.09,0,.14l-.03,.16c-.05,.15-.11,.28-.17,.39-.04,.08-.08,.13-.11,.16l-.03-.02c-.08-.04-.15-.04-.22-.04l-.09-.03-.08-.03s-.05-.02-.08-.04l-.06-.03c-.1-.04-.14-.08-.17-.1-.02-.02-.05-.05-.07-.06l-.05-.07s-.03-.07-.04-.09v-.04s-.02-.04-.02-.05v-.11s0-.09,0-.09c0-.03,0-.06,0-.1v-.04s.02-.09,.03-.14v-.04s.04-.08,.05-.13c.07-.18,.14-.29,.23-.44Zm-3.35-6.7c.05-.12,.1-.18,.18-.27l.03-.04h0s.07-.08,.12-.13c.03-.03,.1-.09,.19-.15,.07-.04,.15-.07,.19-.08,.05,0,.1,0,.16,.01,.05,.03,.09,.05,.12,.1,.03,.05,.06,.13,.09,.22,.02,.1,.04,.17,.04,.24h0s.02,.15,.02,.15l.02,.2h0s0,.03,0,.03c0,.06,.02,.13,.02,.21,0,.1,0,.18-.01,.21-.02,.08-.05,.15-.1,.25-.04,.08-.08,.14-.15,.21-.07,.07-.14,.13-.22,.17-.04,.02-.07,.03-.1,.05,0-.04,0-.07,0-.11-.03-.17-.15-.28-.29-.28h-.08c-.06,.03-.12,.07-.18,.13l-.02,.03s-.04-.07-.06-.11c-.05-.1-.07-.17-.07-.21,0-.04,0-.1,0-.16v-.15c.01-.09,.02-.18,.03-.27,.01-.11,.04-.2,.07-.28Zm-6.02,1.45s-.01-.02-.02-.02l-.1-.12h0s-.03-.03-.04-.05c-.04-.05-.11-.11-.18-.18-.11-.11-.24-.24-.31-.32-.04-.04-.07-.09-.1-.14-.04-.05-.07-.1-.11-.14l-.03-.04c-.11-.14-.22-.27-.34-.39-.08-.08-.15-.17-.22-.25-.09-.12-.16-.21-.21-.29h0s-.09-.13-.09-.13l-.1-.17h0s-.02-.03-.04-.05c-.05-.06-.12-.15-.19-.23-.09-.11-.19-.23-.25-.31-.04-.05-.07-.11-.1-.17-.03-.05-.05-.09-.07-.13l-.02-.04c-.09-.16-.2-.3-.3-.43-.07-.09-.14-.18-.2-.27-.08-.12-.12-.21-.17-.31h0s-.07-.15-.07-.15h0s0,0,0,0l-.09-.17h0s-.02-.03-.03-.06c-.04-.07-.1-.16-.17-.26l-.03-.04c-.07-.1-.13-.21-.17-.27-.03-.05-.05-.1-.07-.16-.02-.06-.05-.12-.07-.16l-.02-.04c-.06-.14-.14-.27-.22-.39-.07-.1-.13-.21-.19-.34-.06-.13-.1-.23-.14-.32h0s-.06-.16-.06-.16c0-.01-.01-.03-.02-.04l-.05-.13h0s-.02-.04-.03-.06c-.05-.1-.22-.44-.29-.6-.02-.05-.04-.11-.05-.17-.02-.06-.04-.12-.06-.17l-.21-.54c-.04-.1-.08-.2-.12-.3-.07-.19-.09-.31-.13-.47v-.04c-.02-.07-.04-.15-.07-.25-.02-.07-.05-.18-.09-.28-.05-.14-.09-.29-.12-.38-.01-.06-.02-.11-.03-.16,0-.06-.01-.13-.02-.19v-.05c-.03-.18-.07-.35-.11-.51-.03-.11-.05-.22-.07-.33-.02-.14-.02-.25-.03-.36h0s0-.16,0-.16c0,0,0,0,0,0v-.18s-.01,0-.01,0c0-.02,0-.05,0-.07,0-.08-.02-.18-.04-.3v-.07c-.03-.1-.03-.2-.03-.28v-.04c0-.06,0-.12,0-.19,0-.06,0-.12,.01-.17v-.05c.01-.14,0-.28,0-.45,0-.14,0-.27,0-.41,0-.14,.02-.25,.04-.35h0s.03-.17,.03-.17c0-.01,0-.03,0-.04l.02-.14h0s0-.05,0-.08c0-.05,0-.12,.01-.2,.01-.17,.02-.38,.04-.5l.08-.39c.03-.17,.05-.33,.07-.5,.01-.12,.03-.24,.04-.35,.02-.15,.05-.25,.07-.36h0s.04-.2,.04-.2l.03-.15h0s.01-.08,.01-.08c.01-.08,.03-.2,.05-.33,.02-.14,.04-.28,.05-.36l.1-.41c.03-.15,.05-.29,.07-.44l.04-.42c.02-.13,.04-.22,.06-.32,0-.02,0-.03,0-.05h0s.03-.17,.03-.17c0,0,0,0,0,0h0s.03-.18,.03-.18h0s0-.05,.01-.08c0-.08,.02-.19,.02-.31,0-.13,.02-.26,.03-.35,.03,.07,.06,.14,.1,.21,.04,.09,.09,.18,.13,.28,.07,.17,.15,.31,.22,.46l.12,.22h0c.04,.06,.07,.13,.11,.19l.31,.51s.06,.1,.08,.15c.04,.08,.09,.16,.14,.24l.13,.18c.05,.08,.11,.15,.16,.22,.07,.1,.14,.19,.21,.3,.07,.12,.15,.22,.22,.32h0s.13,.17,.13,.17l.08,.11h0s.48,.64,.48,.64c.04,.05,.07,.1,.1,.15,.05,.07,.09,.15,.15,.22l.13,.16c.05,.07,.1,.13,.16,.2,.08,.09,.15,.19,.22,.3,.11,.17,.21,.32,.31,.46h0s.24,.36,.24,.36c.1,.14,.19,.28,.27,.43,.03,.06,.06,.12,.09,.18,.03,.07,.06,.13,.1,.2l.11,.17c.03,.06,.07,.12,.1,.18,.07,.12,.13,.23,.19,.36,.04,.11,.09,.21,.13,.31,.02,.04,.03,.07,.05,.11l.09,.21,.02,.04h0s.15,.35,.15,.35c.05,.12,.1,.24,.14,.36,.02,.05,.03,.11,.04,.17,.02,.09,.04,.17,.07,.25l.07,.2c.02,.06,.04,.12,.07,.19,.05,.13,.09,.25,.12,.4l.09,.36h0s.04,.17,.04,.17c0,0,0,.01,0,.02l.04,.15h0c.02,.08,.04,.16,.06,.24l.02,.11c.03,.13,.06,.26,.08,.4,0,.06,.02,.12,.02,.18,0,.08,.02,.17,.03,.26l.08,.36c.03,.16,.06,.31,.08,.48v.1c.02,.1,.03,.19,.04,.29h0s.06,.62,.06,.62c.02,.18,.03,.35,.04,.53,0,.07,0,.13,0,.2,0,.08,0,.16,0,.25l.02,.21c0,.07,0,.15,.01,.22,.01,.14,.02,.27,.01,.41,0,.14,0,.27,0,.39h0v.15s0,.2,0,.2h0v.26s0,.53,0,.53c0,.06-.01,.12-.02,.18-.01,.09-.02,.18-.02,.27v.21c0,.08,0,.16,0,.24,0,.13,0,.25,0,.38-.01,.14-.02,.27-.03,.39h0s0,.2,0,.2v.15s0,0,0,0v.37c-.02,.14-.02,.28-.03,.42,0,.06-.01,.12-.02,.18-.01,.09-.02,.18-.02,.27v.22s0,0,0,.01l-.02-.06c-.06-.15-.14-.3-.21-.44-.02-.04-.04-.08-.06-.12h.02c.08-.09,.09-.22,.04-.53-.03-.1-.1-.36-.24-.55-.05-.06-.14-.11-.22-.11h-.05s-.03,.02-.03,.02c0,0,0,0,0,0,0,0,0,0,0,0-.01-.03-.02-.05-.04-.07,.1-.06,.2-.16,.19-.36,0-.32-.01-.68-.13-1.05-.01-.04-.02-.08-.03-.12-.03-.14-.08-.4-.34-.4h0c-.12,0-.18,.06-.22,.11-.09,.11-.06,.26-.04,.37,0,.04,.02,.07,.02,.1,0,0,0,.02,0,.03-.02-.04-.03-.07-.05-.11-.05-.14-.09-.24-.12-.34h0s-.05-.16-.05-.16c0-.01-.01-.03-.02-.05l-.04-.13h0s-.02-.04-.02-.06c-.03-.07-.07-.16-.11-.26-.06-.14-.13-.28-.16-.37l-.12-.39c-.06-.17-.13-.33-.2-.49-.04-.1-.09-.2-.13-.3-.05-.14-.08-.24-.12-.34h0s-.05-.16-.05-.16c0-.02-.01-.04-.02-.05l-.04-.12h0s-.01-.04-.02-.06c-.03-.07-.07-.17-.12-.28-.06-.13-.12-.27-.15-.35l-.12-.39c-.06-.17-.13-.34-.2-.49-.04-.1-.09-.2-.13-.3-.05-.14-.09-.24-.12-.34h0s-.05-.16-.05-.16c0,0,0,0,0-.01l-.05-.16h0s-.01-.04-.02-.06c-.03-.07-.07-.16-.11-.27-.06-.14-.12-.28-.15-.37l-.12-.39c-.05-.16-.12-.32-.18-.47-.04-.11-.09-.21-.13-.32-.05-.15-.09-.26-.12-.36h0s0,0,0,0l-.05-.16-.05-.15h0s-.02-.06-.02-.06c-.03-.07-.06-.17-.11-.27-.06-.14-.11-.28-.14-.37l-.12-.39c-.04-.14-.09-.28-.15-.41l-.15-.39c-.05-.14-.08-.24-.11-.34h0s-.08-.23-.08-.23l-.03-.11h0s-.02-.06-.03-.09c-.03-.08-.11-.27-.2-.34-.04-.03-.1-.07-.17-.07h-.11s-.05,.07-.05,.07c-.02,.03-.06,.06-.07,.26,0,.02,0,.1,.06,.26,.01,.04,.03,.07,.04,.11v.05s.09,.26,.09,.26h0s.22,.73,.22,.73c.02,.06,.03,.12,.05,.17,.02,.08,.04,.16,.07,.24l.07,.2c.03,.08,.05,.16,.08,.23,.04,.11,.08,.22,.12,.35,.04,.13,.07,.24,.11,.36h0s.07,.2,.07,.2l.04,.13h0s.25,.72,.25,.72c.02,.06,.03,.11,.05,.17,.02,.08,.04,.16,.08,.24l.08,.19c.03,.08,.06,.15,.09,.23,.04,.11,.09,.22,.13,.34,.04,.13,.08,.24,.12,.35h0s.09,.24,.09,.24l.03,.09h0s.27,.71,.27,.71c.02,.05,.04,.11,.05,.17,.02,.08,.05,.16,.08,.25l.08,.19c.03,.07,.06,.14,.09,.21,.05,.11,.1,.23,.14,.35,.04,.12,.08,.24,.12,.35h0s.06,.16,.06,.16c0,0,0,0,0,0l.06,.16h0s.13,.32,.13,.32c.05,.13,.1,.25,.14,.38,.02,.05,.04,.11,.05,.17,.02,.08,.05,.16,.08,.25l.08,.19c.03,.07,.06,.14,.09,.21,.05,.11,.1,.23,.14,.35,.04,.13,.09,.25,.13,.37h0s.08,.2,.08,.2l.04,.1h0s.28,.71,.28,.71c.02,.05,.04,.11,.05,.17,.02,.08,.05,.16,.08,.24l.09,.19c.03,.07,.06,.14,.1,.21,.05,.11,.1,.22,.15,.34,.04,.12,.09,.24,.13,.35h0s.18,.4,.18,.4c-.13-.24-.27-.43-.44-.59-.02-.02-.04-.04-.06-.07-.08-.09-.17-.2-.32-.2-.05,0-.1,.02-.15,.05-.1,.06-.13,.14-.13,.2-.02,.13,.07,.23,.13,.3,.02,.02,.04,.05,.05,.06,.19,.38,.42,.66,.72,.86l.13,.09,.1-.11c.06-.07,.12-.18,.1-.31l.08,.19s-.08,.03-.12,.07c-.05,.06-.12,.17-.09,.28,.07,.27,.35,.57,.62,.6,0,.01,.01,.03,.02,.05,.05,.1,.1,.19,.15,.3,.03,.06,.05,.12,.08,.18-.09-.08-.18-.16-.27-.24-.09-.08-.19-.16-.28-.25-.1-.1-.17-.19-.24-.27h0s-.1-.13-.1-.13Zm2.84-38.01s.1,0,.15,0h.06c.06,0,.16,.01,.25,.04,.62,.2,0,1.59-.28,1.89-.15,.16-1.36,.88-1.33,.41,0-.09-.02-.17-.06-.26,0,0,0-.03,0-.03v-.09s-.02-.11-.02-.11c0-.05,0-.1,0-.16v-.08c0-.09,0-.21,.02-.34,0-.05,.02-.11,.03-.17l.04-.14s.04-.09,.07-.14l.24-.34s.05-.06,.08-.09l.05-.05s.07-.06,.11-.09l.08-.06s.07-.05,.1-.06c.17-.09,.28-.11,.43-.12Zm2.25-10.37h.05s0-.01,0-.01c.04,0,.09-.02,.16-.03,.05,0,.14-.01,.23,0,.08,0,.15,.03,.18,.05,.04,.02,.07,.05,.1,.11,.03,.06,.03,.11,.03,.17,0,.07-.03,.16-.08,.27-.04,.1-.08,.18-.12,.25h0s-.05,.08-.05,.08c0,0,0,0,0,.01l-.12,.21h0s-.15,.26-.15,.26c-.06,.09-.11,.16-.14,.19-.05,.05-.12,.1-.22,.16-.08,.04-.15,.08-.24,.1-.09,.02-.19,.02-.25,.01-.04,0-.07-.02-.1-.03,.03-.04,.06-.08,.09-.13,.05-.11,.06-.21,.02-.3-.03-.07-.07-.12-.14-.14-.06-.03-.12-.03-.23-.01h0s.01-.09,.02-.14c.02-.12,.05-.19,.08-.23,.03-.05,.06-.1,.1-.15l.11-.14c.06-.07,.12-.15,.18-.22,.08-.09,.15-.15,.23-.2,.11-.07,.19-.09,.29-.12Zm-5.55-2.3v-.14s0-.01,0-.02v-.2s0,0,0,0c0-.02,0-.04,0-.06,0-.08,0-.19-.01-.31,0-.16-.02-.33-.01-.44,0-.06,0-.13,.01-.19,0-.07,.01-.14,.02-.19v-.05c.03-.19,.03-.38,.03-.57,0-.12,0-.24,.01-.37,.01-.18,.03-.31,.05-.44h0s.02-.15,.02-.15l.04-.2h0s0-.07,0-.07c.01-.08,.02-.2,.03-.32,.01-.16,.03-.33,.05-.44,.01-.07,.03-.15,.05-.22,.01-.06,.03-.11,.04-.17v-.06c.05-.17,.07-.34,.1-.51,.02-.14,.04-.29,.07-.43,.03-.16,.07-.28,.11-.4,0,0,0-.02,0-.03h0s.04-.14,.04-.14c0,0,0,0,0,0l.06-.19h0s.01-.05,.02-.09l.08-.39c.03-.14,.07-.28,.1-.35l.17-.44c.06-.15,.1-.3,.15-.48,.03-.13,.08-.29,.14-.44,.06-.17,.12-.28,.18-.4h0s0,0,0,0l.07-.14s.01-.03,.02-.05l.06-.13h0s.02-.06,.04-.09c.07-.18,.21-.55,.29-.71l.2-.36,.3-.58c.05-.11,.11-.23,.17-.34,.1-.18,.18-.3,.27-.43l.05-.07h0c.05-.07,.1-.15,.16-.24,.05-.07,.11-.18,.18-.29,.09-.14,.17-.29,.24-.38,.04-.05,.08-.1,.11-.15l.17-.19c.13-.15,.25-.32,.36-.48,.07-.1,.14-.2,.22-.3,.1-.13,.19-.21,.28-.3,0,0,0,0,0,0h0s.05-.06,.05-.06c.02-.02,.05-.05,.07-.07l.12-.12h0s.35-.38,.35-.38c.07-.09,.15-.16,.22-.23l.38-.32c.09-.07,.17-.16,.26-.24l.1-.09c.11-.11,.23-.21,.34-.3,.12-.1,.22-.17,.31-.23h0s.16-.11,.16-.11c0,0,.02-.01,.03-.02l.11-.07h0s.06-.05,.09-.07l.08-.07c.16-.12,.39-.31,.51-.39l.39-.23c.17-.1,.33-.22,.48-.33,.1-.07,.19-.14,.29-.21,.13-.09,.23-.14,.33-.2h0s.16-.09,.16-.09c0,0,0,0,0,0l.14-.08h0s.06-.04,.1-.06c.08-.05,.18-.13,.3-.2,.12-.09,.25-.18,.33-.23l.39-.22c.14-.08,.27-.17,.4-.26l.37-.27,.34-.22h0s.16-.1,.16-.1l.13-.09h0s.09-.06,.09-.06c.08-.06,.2-.15,.32-.25,.08-.06,.15-.12,.22-.17-.02,.05-.05,.1-.08,.15-.05,.11-.1,.21-.17,.33-.1,.18-.18,.35-.25,.51l-.03,.06h0s0,0,0,0l-.08,.18h0s-.04,.08-.05,.13l-.29,.7c-.02,.06-.05,.12-.08,.17-.04,.09-.09,.18-.12,.28l-.07,.23c-.03,.09-.06,.18-.09,.28-.04,.13-.08,.25-.13,.38-.06,.15-.11,.29-.15,.43h0s-.05,.15-.05,.15c0,0,0,0,0,0l-.06,.19h0s-.25,.82-.25,.82c-.02,.06-.05,.13-.07,.19-.03,.09-.07,.17-.1,.26l-.06,.22c-.03,.1-.06,.2-.08,.29-.03,.12-.06,.23-.11,.35-.08,.2-.14,.39-.2,.57l-.15,.44c-.06,.18-.12,.35-.19,.53-.03,.07-.06,.14-.1,.21-.03,.07-.07,.14-.1,.21l-.08,.21c-.03,.07-.06,.13-.08,.2-.05,.13-.11,.27-.18,.41-.06,.11-.11,.22-.16,.32-.02,.03-.03,.06-.05,.09l-.53,1.01c-.03,.06-.07,.11-.1,.16-.05,.08-.1,.15-.15,.23l-.11,.2c-.04,.06-.07,.12-.1,.18-.07,.13-.14,.26-.23,.38-.08,.11-.15,.22-.22,.33v.02s-.01,0-.01,0l-.07,.1-.13,.19h0c-.05,.08-.1,.16-.16,.24l-.06,.09c-.08,.12-.16,.24-.25,.36l-.08,.1c-.07,.09-.14,.18-.21,.27l-.21,.31c-.1,.14-.19,.28-.3,.41-.15,.17-.27,.32-.37,.47h0s-.27,.36-.27,.36c-.11,.15-.23,.29-.35,.43-.04,.05-.08,.09-.13,.14-.07,.07-.13,.14-.19,.21l-.13,.18c-.05,.06-.09,.12-.14,.18-.08,.11-.17,.23-.27,.34-.1,.11-.19,.21-.27,.31h0s-.14,.17-.14,.17l-.08,.1h0s-.25,.31-.25,.31c-.1,.12-.19,.24-.29,.35-.04,.05-.09,.09-.13,.14-.07,.07-.13,.13-.19,.2-.03,.04-.06,.08-.1,.13l-.05,.06c-.05,.06-.1,.13-.14,.19-.09,.12-.17,.23-.27,.34-.13,.15-.25,.28-.36,.42l-.03,.04s0,0,0,0l-.1,.12h0c-.06,.08-.13,.16-.19,.25l-.08,.1c-.09,.12-.18,.23-.27,.34-.04,.05-.09,.1-.13,.14-.06,.07-.13,.14-.19,.21l-.1,.14h0c.06-.19,.1-.38,.15-.56,0-.04,.02-.08,.03-.13h.02c.1-.02,.17-.09,.35-.42,.08-.19,.17-.41,.19-.61,0-.09-.04-.23-.16-.27,0,0,0-.01,0-.02,.01-.04,.02-.08,.03-.12,.02,0,.03,0,.05,0,.19,0,.29-.14,.33-.19l.03-.04c.21-.28,.42-.57,.58-.92,.02-.04,.04-.08,.06-.12,.08-.14,.21-.39,.02-.55-.07-.06-.14-.07-.18-.07-.17,0-.26,.16-.33,.29-.01,.02-.02,.04-.04,.06,0-.02,.01-.04,.02-.06,.06-.16,.1-.27,.15-.38h0s.09-.22,.09-.22l.04-.1h0s.03-.08,.03-.08c.03-.08,.07-.19,.11-.31,.05-.15,.11-.31,.15-.4l.19-.41c.07-.16,.13-.31,.19-.47,.05-.13,.1-.26,.16-.39,.07-.16,.12-.27,.18-.38h0s.07-.15,.07-.15c0-.01,.02-.03,.02-.05l.06-.12h0s.02-.06,.04-.09c.05-.13,.22-.52,.3-.69l.22-.4c.08-.15,.14-.3,.21-.45,.06-.13,.12-.27,.18-.4,.08-.15,.14-.26,.2-.37h0s.08-.14,.08-.14c0-.01,.02-.03,.02-.04l.07-.12h0s.03-.05,.04-.08c.03-.05,.06-.12,.1-.2,.08-.17,.17-.37,.24-.48l.24-.39c.1-.16,.18-.33,.27-.5,.06-.11,.11-.22,.17-.33,.09-.15,.16-.25,.22-.36h0s.1-.16,.1-.16l.09-.14h0s.05-.08,.05-.08c.04-.07,.09-.17,.15-.28,.08-.15,.16-.3,.21-.39l.25-.38c.09-.13,.17-.27,.25-.41l.23-.41c.09-.15,.15-.25,.22-.35h0s.08-.12,.08-.12l.11-.17h0s0,0,0-.01c.02-.03,.04-.06,.05-.08,.03-.04,.16-.26,.16-.39,0-.06,0-.14-.06-.21l-.08-.06h-.08s-.08,0-.24,.13c-.02,.02-.07,.06-.17,.22-.03,.04-.05,.09-.08,.13l-.07,.1h0s0,0,0,.01l-.11,.15h0c-.05,.08-.11,.16-.16,.24l-.32,.48c-.04,.06-.08,.11-.12,.17-.05,.07-.11,.15-.16,.23l-.12,.2c-.06,.09-.11,.19-.17,.28-.06,.1-.11,.2-.18,.31-.08,.13-.16,.25-.23,.37h0s-.06,.11-.06,.11c0,.01-.02,.03-.02,.04l-.09,.16h0s-.43,.75-.43,.75c-.03,.06-.07,.11-.11,.17-.05,.08-.1,.15-.15,.24l-.43,.81c-.08,.13-.14,.26-.21,.38h0s-.09,.17-.09,.17l-.07,.14h0s-.4,.77-.4,.77c-.03,.06-.06,.12-.1,.17-.05,.08-.09,.16-.13,.25l-.09,.21c-.04,.08-.07,.15-.1,.23-.06,.13-.11,.25-.18,.38-.08,.14-.13,.27-.19,.39h0s-.05,.12-.05,.12l-.09,.2h0s-.08,.18-.08,.18l-.33,.73c-.05,.1-.1,.21-.15,.32l-.08,.22c-.03,.08-.06,.16-.09,.23-.05,.13-.09,.26-.16,.4l-.02,.05c-.05,.12-.1,.23-.15,.35h0s-.41,1.14-.41,1.14c-.02,.06-.05,.12-.08,.18-.04,.09-.08,.17-.11,.27l-.06,.22c-.03,.08-.05,.16-.07,.24-.04,.13-.07,.26-.13,.4-.05,.14-.1,.28-.14,.41h0s-.05,.15-.05,.15c0,0,0,0,0,.01l-.03,.09c.03-.18,.05-.37,.04-.57,0-.03,0-.06,0-.1,0-.13,.02-.43-.28-.45-.28,0-.29,.3-.29,.39,0,.04,0,.08,0,.09-.12,.43-.14,.83-.05,1.21l.04,.17,.17-.04c.1-.02,.17-.07,.22-.14-.02,.06-.03,.12-.05,.18-.03-.01-.06-.02-.09-.02h-.05c-.05,.02-.19,.07-.23,.17-.12,.26-.11,.65,.02,.85,.01,.02,.03,.04,.05,.06,0,0,0,.02,0,.02-.03,.13-.05,.27-.09,.41-.02,.06-.03,.11-.05,.17,0-.11-.02-.21-.03-.31-.02-.13-.03-.26-.04-.4-.01-.17,0-.29,0-.42h0Zm-6.4,9.52s-.07-.05-.12-.08c-.05-.03-.1-.07-.16-.11-.1-.07-.18-.14-.22-.2-.04-.05-.08-.1-.12-.16-.03-.04-.05-.08-.09-.13-.04-.07-.08-.13-.11-.18l-.1-.17c-.06-.11-.12-.23-.16-.37-.03-.08-.04-.17-.05-.24v-.04s-.02-.08-.02-.13h0s-.02-.15-.02-.15c0-.07-.01-.15-.02-.27l-.02-.41c0-.15,0-.3,0-.4,0-.08,.01-.17,.02-.25,0-.06,.01-.12,.02-.18l.04-.57c.01-.18,.04-.35,.06-.49,.03-.18,.06-.3,.1-.43,.02-.06,.03-.12,.05-.18h0c.02-.1,.05-.19,.08-.3,.02-.12,.06-.29,.1-.45-.01,.29-.01,.33-.01,.55v.19c0,.08,.02,.2,.1,.28,0,0-.02,.01-.02,.02-.04,.05-.06,.18-.06,.21v.14s-.02,0-.02,0v.15s0,.02,0,.04v.17s0,0,0,0c0,.04,0,.07,0,.11,.02,.18,.12,.3,.25,.3h.08c.1-.05,.2-.1,.24-.2,.04-.09,.04-.2,.04-.33v-.04s0-.08,0-.08v-.31s0-.13-.06-.21c0,0-.01,0-.02-.01,.06-.08,.08-.18,.09-.24,.02-.17,0-.34,0-.5v-.13c-.01-.08-.02-.14,0-.21v-.04c.06-.22,.1-.4,.07-.64l-.03-.1-.07-.04s-.07-.05-.12-.07c.08-.02,.12-.08,.14-.11,0,0,.01-.02,.02-.03,.13-.15,.14-.35,.12-.53v-.05c-.04-.06-.08-.11-.11-.15,.05-.13,.1-.24,.15-.34,0,0,0,0,0-.01h0s0-.01,0-.01v.44s0,0,0,0v.07s0,.29,0,.29h.02s0,.04,0,.07v.08c.03,.13,.06,.32,.1,.51l.1,.47,.09,.57c.04,.2,.09,.4,.13,.59,.05,.18,.09,.36,.12,.54,.04,.26,.05,.43,.06,.63v.08s0,0,0,0c0,.05,0,.1,0,.15v.06s0,0,0,0c0,.04,0,.08,.01,.13,.01,.12,.03,.29,.04,.47,.01,.19,.01,.37,0,.46,0,.13-.02,.26-.04,.39l-.02,.16c-.02,.14-.03,.29-.04,.43-.02,.24-.04,.49-.09,.73-.04,.22-.08,.37-.13,.52h0s-.03,.11-.03,.11c0,0,0,.02,0,.03l-.03-.02-.03,.2v.03s0,0,0,0h0s-.01,.05-.01,.05l-.02,.02h-.08s0,0,0,0c-.01,0-.02,0-.03,0h-.01s-.18-.15-.18-.15h0s0,0,0,0Zm7.32,52.35c-.06,0-.13,.01-.22,.01-.13,0-.25,0-.34-.02-.07,0-.15-.03-.23-.06-.05-.02-.1-.03-.13-.04l-.07,.16h0s.03-.18,.03-.18c-.08-.03-.16-.06-.23-.08l-.22-.09c-.12-.05-.26-.11-.39-.21-.08-.05-.15-.12-.22-.18l-.03-.03s-.08-.08-.12-.13l-.56-.6c-.1-.11-.19-.22-.24-.29-.05-.06-.09-.13-.13-.19-.03-.05-.06-.1-.09-.14l-.03-.05c-.09-.14-.18-.27-.27-.41-.09-.13-.18-.27-.25-.39-.09-.14-.13-.26-.18-.38-.02-.05-.04-.09-.06-.14v-.02c-.04-.08-.07-.16-.11-.25l-.08-.16c-.05-.1-.1-.22-.15-.33l.21,.28c.07,.09,.12,.15,.28,.35,.05,.05,.13,.13,.24,.14,0,0,0,0,0,0,0,.09,.08,.22,.08,.22l.07,.1h0s.1,.12,.1,.12c0,0,0,0,0,0l.13,.15h0s.05,.05,.08,.07c.03,.03,.13,.11,.24,.11,.08,0,.14-.04,.18-.1,.06-.09,.12-.19,.09-.29-.03-.09-.09-.18-.17-.27l-.06-.07-.2-.24s-.09-.1-.19-.11h0c0-.09-.05-.17-.08-.22-.09-.15-.2-.26-.31-.38l-.08-.08c-.05-.05-.09-.09-.11-.14l-.02-.04c-.09-.19-.17-.35-.34-.5l-.09-.05h-.08s-.06,.01-.1,.02c.02-.04,.03-.08,.03-.13v-.04c.03-.2-.1-.36-.22-.48l-.05-.04c-.06-.03-.12-.04-.17-.05-.03-.11-.06-.21-.08-.31,0,0,0,0,0,0h0s-.02-.06-.02-.06l.28,.32h0s.1,.11,.1,.11l.14,.16h0s.07,.06,.1,.09c.09,.08,.24,.2,.38,.31l.37,.28c.05,.04,.11,.09,.16,.13,.07,.06,.14,.12,.2,.17l.05,.04c.14,.12,.29,.22,.44,.32,.15,.1,.3,.21,.44,.32,.2,.16,.31,.27,.44,.41l.18,.19h0s.39,.4,.39,.4c.12,.13,.23,.25,.28,.32,.07,.1,.14,.2,.2,.31l.08,.13c.06,.1,.13,.19,.19,.29,.16,.24,.33,.49,.48,.75,.18,.29,.27,.48,.39,.72h0s-.03,0-.03,0l.14,.21v.02s.01,.06,.01,.06l-.06,.07s0,.01-.01,.02v.02s-.3-.01-.3-.01v.02s-.07,0-.12,0Zm53,18.92h0s0,0,0,0h0Zm-8.7,4.38h0s.19-.03,.19-.03l.17-.03h0s.12-.02,.12-.02c.11-.02,.29-.06,.47-.09,.18-.03,.35-.05,.47-.06,.13,0,.27-.01,.4-.01h.16c.15,0,.3,0,.44-.01,.24,0,.48-.02,.72,0,.28,.02,.42,.05,.6,.08v.02s.2,.02,.2,.02h.03s0,0,0,0h0s.02,.02,.02,.02v.09s.01,.02,.02,.02h0s-.12,.2-.12,.2h0s-.04,.07-.06,.12c-.02,.05-.05,.1-.08,.16-.06,.1-.11,.18-.15,.23,0,0,0,0-.01,.01-.31,.02-.61,.03-.92,.04,.09-.03,.17-.07,.25-.12l.12-.08s.03,.01,.04,.01c.04,0,.08,0,.13,0,.18,0,.41-.06,.51-.22,.06-.09,.06-.21,0-.31l-.03-.04c-.08-.08-.21-.1-.39-.06-.08,.01-.27,.06-.4,.18-.04,.04-.06,.09-.07,.16-.06-.04-.14-.06-.23-.06h0c-.22,0-.48,.03-.72,.14-.02,0-.04,.01-.06,.02-.08,.03-.2,.06-.25,.17,0,.02,0,.03-.01,.05-.08-.09-.22-.09-.26-.09-.2,0-.55,.07-.77,.19-.05,.03-.09,.08-.11,.13-.09,0-.19,0-.28,0-.02,0-.03-.02-.05-.02-.08-.02-.19,0-.33,0h0s-.02,0-.02,0c0,0-.01,0-.02,0h-.03s-.04,0-.04,0c-.77,0-1.53-.02-2.3-.05l.55-.16c.12-.03,.24-.06,.35-.09l.07-.02c.22-.06,.42-.13,.62-.2,.16-.06,.32-.11,.48-.16,.23-.07,.39-.09,.57-.12h0Zm-28.32-28.71c8.59,10.29,20.98,16.56,34.15,18.37-.12,.14-.22,.32-.3,.55-.05,.17-.07,.34-.05,.53h-.01s.04,.18,.04,.18l.04,.16h.01c.04,.11,.08,.21,.14,.32,.09,.17,.2,.32,.37,.5l.04,.04c.1,.1,.22,.22,.36,.29,.07,.04,.16,.08,.24,.11,.21,.08,.44,.13,.7,.15,.05,0,.09,0,.14,0,.12,0,.23-.01,.33-.03h0s.07,0,.07,0l.14-.04,.09-.03h0s.01-.02,.02-.02c.04-.01,.08-.03,.14-.06,.03-.01,.05-.02,.06-.04,.09,.07,.2,.15,.3,.22,.06,.04,.11,.08,.15,.11l.07,.06c.07,.05,.13,.1,.2,.15l.03,.02c.18,.13,.37,.22,.56,.3,.07,.03,.13,.06,.2,.09,.12,.05,.21,.1,.3,.14h0s.18,.09,.18,.09c0,0,.14,.07,.14,.06,.03,.01,.06,.03,.09,.04,.1,.03,.26,.08,.42,.12,.1,.03,.2,.05,.27,.07,.04,.01,.09,.03,.13,.04,.07,.03,.15,.05,.22,.07h.05c.2,.08,.41,.1,.6,.13,.1,.01,.19,.03,.29,.04,.14,.02,.24,.04,.34,.07l.21,.04s.01,0,.02,0c0,0,.12,.02,.13,.02,.04,0,.08,.01,.13,.02,.1,.01,.25,.02,.4,.03,.13,0,.27,.01,.35,.02,.02,0,.05,0,.07,0,0,0,0,0-.01,0-.12,.04-.24,.07-.37,.1-.15,.04-.26,.05-.38,.07,0,0-.2,.03-.21,.03,0,0-.14,.02-.14,.02-.04,0-.09,.02-.14,.03l-.39,.1c-.14,.04-.29,.07-.37,.08-.07,.01-.14,.02-.21,.02-.07,0-.13,.01-.19,.02h-.05c-.14,.02-.27,.05-.4,.08l-.2,.04c-.12,.02-.24,.05-.36,.06-.16,.02-.27,.03-.39,.04,0,0-.19,0-.19,0,0,0-.16,0-.16,0-.04,0-.08,0-.13,.01-.06,0-.13,.02-.22,.03-.16,.02-.37,.05-.5,.05h-.73c-.24-.01-.47,0-.69,0-.11-.02-.22-.03-.33-.05l-.14-.03c-.14-.03-.28-.05-.42-.08-.06-.02-.13-.03-.19-.05-.09-.03-.18-.05-.27-.07l-.23-.05c-.21-.05-.43-.1-.66-.16,0,0-.38-.11-.38-.12l-.19-.06s-.15-.04-.15-.04l-.31-.09-1.01-.34-.31-.09c-.2-.06-.36-.11-.55-.19-.19-.08-.36-.14-.54-.21l-.55-.23c-.12-.05-.25-.1-.37-.16-.06-.03-.11-.06-.17-.09-.07-.04-.15-.08-.23-.12l-.35-.16c-.14-.07-.27-.13-.41-.21,0,0-.3-.18-.3-.19,0,0-.17-.1-.17-.1-.12-.07-.24-.14-.36-.22l-.05-.03c-.13-.08-.25-.17-.38-.26-.06-.04-.11-.09-.17-.14-.05-.04-.1-.09-.15-.13l-.29-.21c-.12-.09-.23-.17-.34-.28l-.19-.18,.05-.08h0c.04-.09,.08-.19,.09-.29,.03-.18,.03-.37-.02-.56-.03-.12-.09-.3-.2-.44-.04-.05-.1-.12-.16-.16-.16-.15-.32-.25-.5-.35-.1-.06-.2-.1-.29-.15,0,0-.16-.06-.17-.06,0,0-.16-.06-.16-.06-.06-.02-.13-.04-.19-.07l-.1-.03c-.11-.04-.23-.08-.38-.1-.08-.01-.17-.02-.27,0-.1,.01-.21,.04-.29,.09-.08,.04-.17,.12-.23,.19-.11,.12-.16,.25-.19,.34-.03,.1-.05,.21-.07,.33-.02,.14,0,.28,.03,.42h-.03s.08,.18,.08,.18l.06,.16h.01s.03,.05,.03,.05l.12,.18c.12,.16,.24,.29,.35,.39,.05,.05,.11,.1,.16,.14,.06,.05,.13,.1,.19,.13,.06,.03,.14,.07,.21,.1,.21,.1,.43,.14,.62,.18,.13,.03,.27,.04,.42,.05v.02s.18-.02,.18-.02h.17s0-.02,0-.02c.02,0,.04,0,.06,0l.78,.64c.17,.15,.36,.27,.55,.39,.06,.04,.12,.08,.18,.11,0,0,.45,.32,.46,.32,0,0,.14,.1,.14,.09,.03,.02,.05,.03,.08,.05,.08,.05,.22,.12,.36,.19,.11,.06,.23,.11,.3,.16l.11,.06c.08,.04,.15,.09,.23,.13l.05,.03c.28,.15,.57,.27,.85,.37,.14,.06,.25,.11,.34,.16l.21,.09s.12,.05,.12,.05c.04,.01,.07,.03,.11,.04l.72,.24,.13,.05c.08,.03,.16,.06,.24,.09l.05,.02c.19,.07,.39,.12,.58,.17,.07,.02,.14,.04,.21,.06-.03,0-.07,0-.11,0h-.78c-.06,0-.12,0-.18-.01-.07,0-.14-.01-.21-.02h-.05c-.18-.02-.36,0-.55,0-.11,0-.22,.01-.32,.01h-.07c-.17,0-.29,0-.41-.02h-.19s-.16-.02-.16-.01h-.14c-.09,0-.2,0-.32,0-.12,0-.23,0-.32,0l-.5-.04c-.17-.01-.34,0-.52,0-.14,0-.27,0-.41,0-.2,0-.33-.02-.48-.04h-.03s-.06-.01-.06-.01c0,0-.02,0-.03,0,0,0-.16-.02-.16-.01-.03,0-.05,0-.08,0-.08,0-.19,0-.31,0-.16,0-.34,0-.44-.02l-.44-.06c-.17-.02-.35-.03-.52-.04-.13,0-.26-.02-.4-.03,0,0-.02,0-.03,0-.04-.02-.09-.04-.13-.07-.01,0-.03-.01-.04-.02,0,0-.03-.02-.03-.02,0,0-.16-.1-.16-.11,0,0-.13-.09-.13-.08-.03-.02-.07-.04-.11-.06-.06-.03-.14-.07-.22-.12-.16-.08-.35-.18-.45-.25l-.37-.26c-.16-.11-.34-.21-.51-.31-.1-.06-.21-.12-.31-.18-.14-.08-.23-.15-.32-.23,0,0-.15-.11-.15-.11,0,0-.13-.09-.13-.09-.03-.02-.06-.04-.1-.07l-.15-.09c-.17-.1-.39-.23-.5-.31l-.36-.27c-.17-.13-.35-.24-.52-.34-.09-.06-.19-.11-.28-.17-.14-.09-.23-.17-.32-.24l-.15-.11s-.02-.01-.03-.02c0,0-.11-.08-.11-.08-.03-.02-.06-.04-.09-.06-.07-.04-.17-.1-.27-.17-.14-.09-.3-.18-.39-.24-.05-.03-.09-.07-.13-.1-.06-.05-.13-.1-.19-.14l-.05-.03c-.19-.13-.4-.24-.6-.35-.1-.06-.21-.11-.31-.17-.15-.08-.25-.15-.35-.21-.01,0-.02-.02-.03-.03,0,0-.16-.09-.16-.1,0,0-.14-.09-.14-.08-.04-.02-.07-.04-.12-.06-.1-.05-.25-.12-.4-.19-.14-.06-.27-.12-.35-.17l-.42-.23c-.14-.08-.28-.14-.42-.19l-.52-.21c-.14-.06-.25-.11-.35-.16-.02-.01-.05-.02-.07-.04l-.16-.07s-.16-.07-.16-.07l-.11-.04c-.07-.03-.18-.06-.29-.1l-.93-.34c-.16-.06-.32-.11-.48-.15l-.19-.05c-.09-.02-.18-.05-.28-.07-.21-.06-.34-.11-.49-.16h-.04s-.04-.03-.05-.03c0,0-.18-.06-.18-.05-.03,0-.06-.02-.1-.02l-.51-.1c-.1-.02-.2-.03-.26-.05l-.13-.04c-.09-.03-.18-.05-.27-.07h-.05c-.18-.05-.34-.08-.49-.09l-.16-.02c-.1-.01-.2-.02-.3-.04-.16-.02-.28-.04-.4-.07-.01,0-.02,0-.03-.01,0,0-.15-.02-.15-.02,0,0-.2-.04-.2-.03-.02,0-.05,0-.08,0-.08,0-.18-.02-.3-.02-.17-.01-.34-.02-.45-.04-.06,0-.11-.02-.17-.03-.07-.01-.14-.03-.21-.04h-.05c-.16-.03-.33-.05-.49-.06-.14-.01-.28-.02-.42-.04-.17-.02-.29-.05-.42-.08l-.15-.03s-.04,0-.05,0c0,0-.15-.03-.15-.02-.02,0-.05,0-.07-.01-.19-.02-.55-.08-.71-.11-.57-.12-1.16-.46-1.67-.77-.54-.32-.88-.6-1.2-1.12-.55-.89-1.3-1.56-1.94-2.36-.04-.05-.08-.1-.12-.15,0,0-.03-.04-.03-.04-.52-.61-.99-1.17-1.39-1.9-.03-.05-.05-.11-.08-.17-.04-.08-.07-.16-.11-.23l-.11-.19c-.04-.07-.08-.14-.12-.2-.07-.11-.13-.22-.19-.34-.06-.12-.12-.24-.18-.35,0,0-.08-.15-.08-.16v-.02s-.21-.37-.21-.37c-.08-.16-.17-.31-.24-.47-.03-.06-.05-.12-.08-.18-.03-.07-.06-.15-.1-.22l-.1-.19c-.03-.06-.06-.12-.1-.19-.06-.12-.13-.24-.18-.37-.07-.19-.15-.35-.22-.51l-.17-.4c-.07-.16-.13-.32-.18-.48-.02-.06-.04-.13-.06-.2-.02-.07-.04-.14-.06-.22l-.07-.2c-.07-.2-.12-.37-.16-.57l-.03-.17c.07-.08,.12-.15,.17-.23,.27-.45,.47-.95,.37-1.47-.03-.19-.08-.35-.13-.52l-.05-.16c-.03-.09-.05-.17-.06-.24-.01-.06-.03-.1-.04-.16-.07-.36-.37-1.13-.81-.7-.09,.09-.2,.21-.33,.37l-.11,.13c-.14,.17-.25,.32-.36,.47,0,0-.06,.1-.07,.1,0,0-.15,.22-.14,.22-.05,.08-.09,.16-.13,.24-.1,.19-.17,.39-.21,.58-.03,.14-.06,.31-.04,.45,0,.07,.02,.15,.04,.21,.09,.4,.52,.69,.88,.81,0,0,.12,.04,.13,.04,.04,.01,.08,.02,.13,.03,.03,0,.06,0,.1,0,.02,.1,.06,.22,.09,.34,.03,.09,.05,.18,.07,.24l.02,.12c.02,.08,.03,.17,.05,.24v.05c.06,.2,.14,.38,.22,.56,.04,.09,.08,.18,.11,.27,.06,.14,.09,.25,.13,.37l.06,.15s0,.02,.01,.03c0,0,.05,.15,.06,.15,0,.02,.02,.05,.03,.07,.04,.09,.11,.22,.18,.35,.06,.11,.12,.22,.15,.3,.02,.05,.04,.1,.06,.15,.03,.07,.06,.14,.08,.2l.02,.05c.08,.18,.18,.35,.27,.52,.05,.09,.11,.18,.15,.27,.08,.14,.12,.24,.17,.35l.07,.15s.01,.02,.01,.03c0,0,.06,.14,.07,.13,.01,.02,.02,.05,.04,.07,.04,.08,.11,.18,.18,.3,.07,.12,.15,.25,.19,.32l.07,.13s-.02-.01-.02-.02c-.08-.06-.16-.12-.24-.19-.11-.1-.19-.17-.27-.25l-.12-.11s-.02-.01-.02-.02c0,0-.11-.11-.12-.1-.02-.02-.03-.03-.05-.05-.06-.05-.17-.13-.29-.22-.11-.07-.21-.15-.27-.2-.05-.04-.09-.08-.13-.12-.05-.04-.09-.09-.13-.12l-.04-.03c-.14-.13-.3-.23-.45-.33-.09-.06-.18-.12-.26-.18-.11-.08-.19-.15-.26-.22,0,0-.01-.01-.01-.02l-.14-.11s-.13-.11-.13-.1c-.02-.02-.04-.03-.06-.05-.06-.04-.15-.1-.25-.17-.12-.08-.26-.17-.34-.23-.05-.04-.09-.08-.14-.12-.04-.04-.09-.08-.13-.11l-.04-.03c-.12-.1-.25-.19-.38-.28-.1-.07-.21-.14-.31-.22,0,0-.02-.02-.02-.02l-.18-.19c-.13-.13-.23-.27-.31-.39-.04-.05-.07-.1-.1-.15-.04-.07-.09-.14-.14-.21-.02-.02-.04-.06-.06-.09l-.04-.06c-.03-.06-.07-.11-.1-.16-.07-.11-.13-.21-.18-.32,0,0-.12-.32-.12-.32l-.07-.15c-.04-.1-.08-.21-.11-.34-.04-.15-.08-.29-.11-.44-.01-.06-.02-.12-.03-.19,0-.06-.01-.12-.02-.18l-.06-.32c-.02-.13-.04-.25-.05-.39,0-.18-.01-.34-.02-.49l-.03-.53c0-.13-.01-.25,0-.38,0-.06,0-.12,0-.18,0-.08,.01-.16,0-.24v-.2c0-.07,0-.14,0-.21,0-.12,0-.24,.01-.37,0,0,.08-.71,.08-.71,0-.07,.01-.14,.02-.2l.02-.12c.02-.12,.03-.24,.06-.36,.01-.07,.03-.13,.05-.19,.02-.07,.04-.13,.05-.2l.06-.31c.03-.15,.05-.28,.1-.44l.08-.27s.1,0,.1-.01c.11-.02,.23-.04,.34-.09,.19-.08,.36-.19,.51-.32,.1-.09,.24-.23,.31-.39,.03-.06,.06-.14,.08-.21,.06-.21,.07-.41,.08-.58,0-.12,0-.22-.01-.31,0,0-.03-.16-.03-.16,0,0-.03-.18-.04-.18-.01-.05-.02-.11-.03-.17v-.06c-.04-.12-.07-.26-.14-.4-.03-.06-.07-.14-.14-.22-.07-.08-.16-.14-.25-.18-.08-.04-.2-.06-.3-.06-.13,0-.25,0-.41,.05-.11,.03-.22,.08-.34,.14-.15,.07-.27,.17-.39,.28l-.02-.02-.1,.13-.12,.15s.01,0,0,.01l-.13,.23c-.09,.18-.15,.35-.18,.49-.02,.07-.04,.14-.05,.2-.02,.08-.03,.16-.03,.23,0,.06,0,.15,.02,.22,.02,.19,.07,.35,.13,.52l.02,.06c.04,.11,.1,.22,.16,.33l-.02,.02,.14,.15,.09,.12h0s.02,.01,.03,.02l-.23,.93c-.05,.2-.08,.4-.1,.59,0,.08-.02,.17-.03,.25,0,0-.06,.37-.06,.37l-.02,.15s-.03,.2-.03,.2c0,.01,0,.03,0,.04-.01,.11-.02,.27-.02,.43,0,.1,0,.2,0,.27,0,.05,0,.1-.01,.14,0,.07-.02,.14-.02,.21v.05c-.02,.22,0,.42,.01,.62,0,.08,.01,.16,.02,.23,0,.15,0,.26,0,.37,0,0,0,.01,0,.01,0,0,0,.15,0,.15,0,0,0,.2,.01,.2,0,.01,0,.02,0,.04,0,.1,.03,.26,.05,.41,.01,.1,.03,.19,.03,.25l.04,.38c.02,.15,.05,.29,.08,.42,.02,.07,.04,.14,.06,.21,.02,.05,.04,.11,.05,.17,0,.01,0,.02,0,.03l-.08-.13h0s-.01-.02-.02-.03l-.06-.09c-.1-.14-.24-.33-.3-.43-.04-.06-.07-.13-.11-.2l-.06-.12c-.08-.16-.17-.3-.27-.43-.06-.08-.12-.17-.17-.26-.07-.12-.12-.22-.16-.31l-.08-.15s0-.02-.01-.03c0,0-.07-.14-.08-.14-.01-.02-.02-.04-.03-.06l-.1-.16c-.09-.14-.2-.31-.26-.4l-.18-.35c-.08-.16-.18-.31-.28-.46-.06-.08-.11-.17-.16-.26-.07-.12-.11-.21-.15-.3,0,0-.07-.15-.07-.15,0,0-.08-.17-.09-.16-.01-.02-.02-.03-.03-.06-.03-.06-.08-.14-.14-.23-.08-.12-.17-.26-.21-.34l-.17-.37c-.07-.15-.15-.29-.23-.42-.06-.1-.12-.2-.17-.3,0,0,0,0,0-.01,0-.04,0-.08,0-.12,0-.02,0-.03,0-.05,0,0,.03-.4,.03-.4,0-.03,0-.05,0-.08,0-.08,0-.2,0-.32,0-.15,0-.3,0-.4,0-.06,.01-.12,.02-.19,0-.06,.02-.12,.02-.18v-.05c.02-.18,.02-.36,.02-.53,0-.12,0-.23,0-.35,0-.16,.02-.27,.04-.38,0,0,.02-.16,.02-.17,0,0,.02-.18,.01-.18,0-.02,0-.05,0-.07,0-.08,0-.2,0-.33,0-.15,0-.3,0-.39,0-.06,.01-.12,.02-.19,0-.06,.01-.12,.02-.18v-.05c.02-.2,.02-.4,0-.59,0-.1,0-.2,0-.3,0-.16,.01-.27,.02-.39v-.16s.01-.02,.01-.02c0,0,.01-.17,0-.17,0-.03,0-.05,0-.08,0-.09,0-.23-.02-.37,0-.14-.02-.27-.02-.36,0-.05,0-.11,0-.16,0-.07,0-.15,0-.22v-.05c0-.21-.02-.41-.04-.6-.01-.1-.03-.2-.03-.31-.01-.14-.02-.25-.02-.36,0-.01,0-.03,0-.04v-.17s-.02-.18-.02-.18c0-.03,0-.05,0-.08,0-.1-.04-.25-.07-.4-.02-.13-.05-.26-.06-.34l-.05-.44c-.01-.15-.05-.28-.08-.41l-.12-.48c-.03-.13-.05-.24-.06-.34,0-.01,0-.03,0-.04,0,0-.03-.16-.03-.17,0,0-.04-.18-.04-.18,0-.03-.01-.05-.02-.08-.02-.06-.05-.15-.08-.25l-.25-.86c-.04-.15-.1-.29-.16-.43-.02-.05-.05-.11-.07-.16-.03-.08-.07-.16-.1-.23-.07-.17-.11-.29-.15-.42l-.02-.05s-.02-.05-.02-.05l-.06-.17h0s-.02-.05-.04-.08l-.21-.39c-.05-.09-.1-.18-.13-.24l-.05-.11c-.04-.08-.07-.16-.11-.23l-.02-.05c-.08-.15-.16-.28-.24-.4l-.25-.36c-.09-.13-.14-.22-.19-.32,0,0-.09-.15-.1-.15l-.09-.15h0s-.03-.04-.05-.06c-.05-.08-.15-.19-.24-.3-.08-.1-.16-.2-.21-.27-.03-.04-.06-.09-.09-.14-.04-.06-.07-.12-.11-.17l-.03-.04c-.1-.15-.22-.29-.33-.42-.07-.09-.15-.18-.22-.27-.09-.12-.15-.22-.21-.31l-.09-.14s-.01-.01-.01-.02c0,0-.08-.13-.09-.13-.02-.02-.03-.04-.05-.06-.04-.06-.11-.14-.17-.23-.1-.12-.2-.25-.25-.34l-.22-.36c-.08-.13-.16-.25-.25-.37l-.02-.03c-.07-.1-.15-.21-.22-.32-.28-.46-.48-.82-.43-1.35,.12-1.45,.37-2.88,.53-4.33,0-.08,.01-.19,.02-.31,0-.17,.02-.37,.04-.48,.01-.07,.03-.13,.04-.2,.01-.07,.03-.13,.04-.19v-.05c.05-.21,.07-.42,.09-.63,0-.11,.02-.23,.03-.34,.01-.08,.02-.15,.03-.21,.02-.03,.03-.07,.05-.12,.02-.05,.03-.09,.05-.13l.04-.08,.08-.17,.15-.31c.08-.17,.16-.33,.24-.49,.03-.06,.07-.12,.1-.18,.04-.07,.09-.15,.13-.23l.1-.21c.04-.07,.07-.14,.1-.21,.06-.13,.12-.25,.19-.37,.1-.17,.19-.32,.29-.48l.24-.41c.09-.16,.19-.31,.29-.46,.04-.06,.08-.11,.12-.16,.05-.06,.1-.13,.14-.2l.16-.25c.1-.16,.2-.31,.32-.45,.13-.15,.24-.3,.35-.44l.27-.34c.11-.13,.22-.26,.34-.39,.05-.05,.1-.1,.14-.14,.05-.05,.11-.1,.16-.15l.25-.26c.1-.11,.21-.21,.32-.31,.04-.03,.08-.07,.12-.1,.09,.04,.17,.06,.24,.07,.17,.03,.34,.05,.49,.05h.12s.12,0,.12,0c.06,0,.13,0,.22-.03l.12-.05c.05-.02,.1-.05,.13-.07,.07-.04,.15-.11,.22-.16,.06-.05,.11-.09,.16-.14-1.27,14.67,3.76,29.76,13.22,41.1Zm-12.83-44.38s-.09-.05-.14-.07c-.17-.07-.37-.09-.55-.09h0s-.17,.01-.17,.01c0,0,0,0,0,0l-.17,.02h0c-.12,.04-.24,.08-.35,.13-.18,.08-.36,.19-.56,.35l-.05,.04c-.11,.1-.24,.21-.33,.35-.05,.06-.09,.15-.15,.26-.11,.24-.17,.49-.22,.77-.04,.18-.04,.36-.04,.54h0s0,.11,0,.11v.11s.02,.13,.02,.13h0s0,.04,0,.06c0,.05,.01,.1,.03,.17,.01,.04,.02,.07,.03,.1,0,0,0,.01,0,.02-.08,.07-.17,.16-.26,.25-.07,.08-.15,.15-.19,.19l-.09,.08c-.06,.05-.13,.11-.18,.16l-.04,.03c-.17,.15-.31,.33-.45,.5-.05,.06-.09,.12-.14,.17-.09,.11-.17,.19-.24,.27h0s-.12,.14-.12,.14c0,0,0,0,0,0l-.11,.12h0s-.04,.05-.06,.08c-.06,.08-.16,.21-.24,.34-.07,.1-.14,.2-.18,.26-.03,.04-.06,.08-.1,.12-.05,.06-.1,.12-.14,.18l-.03,.04c-.13,.16-.23,.34-.32,.52-.05,.09-.1,.18-.15,.27-.08,.13-.14,.22-.2,.31h0s-.11,.17-.11,.17c0,0-.01,.02-.02,.03l-.07,.1h0s-.04,.07-.06,.11c-.05,.09-.13,.24-.2,.38-.06,.12-.12,.23-.16,.3-.02,.03-.04,.06-.05,.09,.02-.13,.03-.27,.06-.4,.03-.16,.05-.28,.08-.39h0s.04-.19,.04-.19c0,0,0-.02,0-.03l.03-.13h0s.01-.08,.02-.12c.01-.09,.03-.22,.05-.35v-.04c.02-.16,.04-.29,.05-.37,.01-.06,.03-.13,.05-.19,.02-.06,.04-.13,.05-.19v-.05c.07-.2,.09-.41,.11-.61,.01-.11,.03-.23,.04-.34,.02-.16,.05-.27,.08-.38h0s.04-.18,.04-.18c0,0,0-.02,0-.03l.03-.13h0s.01-.07,.02-.11c.01-.08,.03-.2,.05-.32,.02-.16,.04-.33,.07-.43l.1-.43c.06-.27,.1-.54,.13-.81l.02-.13s0-.02,0-.03l.13-.46c.04-.13,.07-.25,.12-.37,.02-.06,.05-.12,.07-.18,.04-.09,.07-.18,.1-.27l.07-.23c.02-.07,.05-.14,.07-.21,.05-.14,.09-.28,.15-.43,.05-.13,.1-.25,.15-.37h0s.48-1.12,.48-1.12c.05-.11,.11-.21,.16-.31l.15-.3c.03-.07,.07-.13,.1-.2,.06-.13,.12-.26,.2-.39,.07-.12,.13-.23,.19-.33h0s.09-.17,.09-.17c.04-.08,.09-.16,.14-.24l.15-.25c.07-.12,.14-.23,.22-.35,.04-.05,.07-.1,.11-.15,.05-.07,.1-.14,.15-.21l.12-.19c.12-.17,.23-.34,.36-.5l.24-.29h0s.12-.14,.12-.14l.11-.13h0s.17-.21,.17-.21c.11-.13,.23-.26,.35-.38,.05-.05,.1-.1,.16-.14,.05-.05,.11-.1,.16-.15l.24-.25c.11-.12,.21-.23,.34-.33l.22-.18,.08,.06h0c.09,.05,.18,.09,.29,.13,.13,.04,.26,.06,.39,.06,.07,0,.13,0,.19-.01,.13-.01,.32-.05,.48-.15,.05-.03,.1-.07,.15-.11-.8,2.5-1.4,5.04-1.79,7.61Zm-7.58-18.63c5.05-8.86,12.43-15.69,21.66-20.02,8.6-4.03,18.02-5.45,27.43-5.56-3.63,.78-7.1,1.83-10.55,3.44-4.32,2.01-8.3,4.66-11.95,7.71-7.29,6.08-12.94,14.06-16.34,22.91-.01-.01-.02-.03-.04-.04-.11-.12-.24-.18-.33-.22-.1-.04-.21-.08-.34-.1-.36-.07-.73,.01-1.05,.19-.17,.1-.32,.21-.43,.32-.06,.05-.11,.1-.16,.14-.06,.05-.12,.12-.16,.18-.04,.05-.09,.13-.13,.2-.1,.17-.18,.36-.25,.61-.05,.15-.07,.29-.09,.41h-.02s0,.19,0,.19c0,0,0,.16,0,.16,0,.02,0,.04,0,.07l-.75,.7c-.15,.13-.28,.29-.41,.44-.06,.08-.13,.15-.2,.23,0,0-.26,.28-.26,.28l-.12,.13s-.12,.13-.11,.14c-.02,.02-.04,.04-.06,.07-.06,.08-.15,.2-.24,.33-.07,.11-.15,.21-.2,.28-.03,.04-.06,.08-.09,.11-.05,.06-.11,.13-.15,.19l-.03,.04c-.13,.19-.25,.39-.36,.58l-.12,.2c-.08,.14-.15,.24-.22,.33l-.1,.15s0,.01-.01,.02c0,0-.08,.12-.08,.13-.02,.03-.03,.06-.05,.1l-.25,.51-.3,.56c-.11,.19-.19,.39-.26,.58-.03,.07-.06,.15-.09,.22,0,0,.01-.06,0-.07,0-.03,.01-.07,.01-.1v-.05c.02-.19,.05-.53,.08-.69,0-.06,.02-.11,.04-.17,.02-.07,.03-.14,.04-.21v-.05c.05-.18,.06-.35,.07-.52,0-.13,.02-.27,.04-.4,.02-.17,.05-.28,.08-.4l.03-.17s0-.02,0-.03c0,0,.03-.15,.02-.15,0-.03,0-.06,.01-.09,.01-.08,.02-.19,.03-.31,.01-.16,.02-.34,.05-.43l.09-.43c.04-.2,.06-.4,.07-.59,0-.11,.02-.22,.03-.33,.03-.16,.05-.27,.08-.38,0,0,0-.01,0-.02l.04-.16s0,0,0-.01c0,0,.04-.17,.03-.17,0-.03,0-.05,.01-.08,.01-.09,.03-.21,.04-.34,.02-.15,.03-.31,.05-.39l.11-.43c.05-.19,.08-.38,.1-.57,.02-.12,.03-.23,.06-.35,0,0,0-.01,0-.02,.03-.04,.05-.08,.08-.12,0-.01,.02-.03,.03-.04,0,0,.03-.04,.03-.03l.12-.14s.11-.13,.11-.13c.02-.03,.05-.06,.07-.09,.05-.07,.12-.17,.19-.28,.09-.13,.19-.28,.25-.36,.05-.07,.11-.13,.16-.19l.13-.14c.14-.15,.26-.32,.38-.48,.07-.09,.13-.19,.2-.28,.11-.14,.19-.23,.27-.32l.08-.09,.02-.03c.06-.06,.12-.13,.19-.21,.06-.07,.13-.17,.21-.28,.09-.13,.19-.25,.25-.33l.3-.33c.14-.15,.27-.32,.39-.48,.07-.09,.13-.18,.2-.26,.11-.14,.2-.23,.29-.32l.05-.06,.04-.05s0,0,.01-.01c0,0,.11-.12,.1-.12,0,0,0-.01,.01-.02l.05-.06c.06-.08,.16-.2,.25-.32,.08-.11,.17-.22,.23-.29,.04-.04,.07-.08,.11-.12,.05-.06,.11-.11,.15-.17l.04-.04c.13-.15,.24-.3,.35-.46,.07-.1,.14-.19,.22-.29,.09-.12,.17-.21,.24-.29,0,0,.01-.02,.02-.02,0,0,.11-.14,.11-.14,0,0,.11-.13,.11-.13,.02-.03,.04-.05,.06-.08,.05-.07,.13-.18,.21-.3,.09-.12,.17-.25,.23-.33l.28-.35c.09-.1,.16-.21,.22-.32l.3-.47c.08-.12,.15-.21,.21-.29,.01-.02,.03-.03,.04-.05,0,0,.1-.14,.1-.14,0,0,.1-.15,.1-.15,.02-.03,.04-.06,.06-.09l.64-1.04c.08-.13,.15-.27,.25-.46,.06-.13,.13-.26,.19-.38,.1-.19,.17-.31,.25-.44,0,0,.14-.24,.14-.25,.01-.03,.03-.06,.04-.09l.19-.44c.04-.1,.08-.2,.12-.27l.06-.12c.04-.08,.09-.17,.12-.25l.02-.05c.08-.17,.13-.32,.18-.46,.05-.15,.09-.3,.15-.45,.05-.16,.1-.27,.15-.38,0,0,0-.02,.02-.03l.05-.14s.07-.19,.07-.19c0-.03,.02-.05,.03-.08,.03-.09,.07-.23,.1-.37,.04-.14,.07-.29,.11-.38,.02-.06,.04-.11,.06-.17,.03-.07,.06-.14,.08-.21l.02-.05c.07-.19,.12-.39,.17-.58,.03-.11,.06-.23,.09-.34,.05-.17,.1-.29,.15-.41l.05-.14s.01-.03,.02-.05c0,0,.06-.14,.05-.14,0-.02,.02-.05,.02-.07,.03-.08,.06-.19,.09-.3,.05-.16,.09-.33,.13-.43l.17-.43c.06-.15,.12-.3,.17-.46l.02-.05c.04-.13,.09-.26,.14-.39,.07-.17,.13-.29,.19-.4,0,0,.06-.14,.06-.14,0,0,.09-.18,.09-.18l.03-.07s.04-.09,.06-.14c.03-.07,.06-.14,.1-.23,.06-.13,.12-.25,.16-.34,.03-.07,.08-.13,.12-.2,.03-.05,.06-.1,.09-.14l.03-.05c.05-.08,.09-.15,.13-.23,.04-.06,.07-.13,.11-.19l.03-.05c.07-.12,.14-.24,.21-.35,.1-.14,.18-.24,.27-.34l.11-.14s.05-.06,.09-.1l.1-.12s.19-.25,.19-.41c0-.03,0-.08-.02-.13,0-.02-.02-.04-.03-.06,0-.01-.02-.03-.03-.04,0,0-.01-.01-.02-.02-.02-.02-.04-.03-.07-.04,0,0-.01,0-.02-.01h-.05c-.05,0-.14,.02-.24,.08-.04,.02-.09,.07-.14,.12-.02,.02-.03,.03-.05,.05-.03,.04-.06,.07-.1,.11l-.09,.09-.34,.31c-.1,.09-.2,.18-.3,.26l-.11,.09c-.08,.06-.15,.12-.23,.17l-.32,.25c-.17,.14-.33,.27-.52,.39,0,0-.33,.22-.33,.21l-.16,.11s-.13,.09-.13,.09c-.08,.06-.16,.11-.24,.17l-.14,.09c-.11,.07-.22,.14-.33,.21-.05,.03-.11,.06-.17,.09-.08,.04-.16,.09-.24,.14l-.19,.13c-.08,.05-.16,.1-.23,.15-.1,.07-.21,.14-.33,.21-.12,.07-.23,.14-.34,.2l-.14,.09s-.02,.01-.03,.02c0,0-.13,.08-.13,.08l-.75,.47c-.05,.03-.11,.06-.16,.09-.08,.05-.17,.09-.25,.15l-.19,.14c-.08,.06-.16,.11-.24,.17-.1,.08-.21,.15-.32,.23-.13,.08-.24,.16-.35,.24l-.15,.11s-.13,.1-.13,.1c-.09,.07-.17,.13-.26,.2l-.46,.37s-.09,.07-.14,.11c-.08,.06-.17,.13-.26,.22l-.66,.66c-.11,.11-.22,.22-.32,.31l-.08,.09s-.03,.03-.05,.05l-.11,.12h0s-.61,.73-.61,.73c-.04,.05-.09,.1-.14,.15-.07,.07-.13,.14-.2,.22-.04,.06-.1,.14-.15,.21-.06,.09-.11,.18-.17,.26-.07,.11-.14,.23-.22,.34-.1,.13-.19,.26-.28,.38,0,0-.09,.15-.09,.15l-.1,.15h0c-.06,.1-.11,.19-.17,.29l-.06,.11c-.08,.14-.15,.28-.24,.42-.03,.05-.06,.1-.09,.15-.06,.09-.12,.19-.17,.3l-.1,.22c-.05,.1-.09,.2-.14,.31-.05,.12-.1,.23-.16,.35-.08,.15-.15,.3-.21,.44l-.06,.14s-.07,.18-.07,.18l-.11,.29c-.08,.19-.15,.38-.21,.58-.02,.06-.05,.13-.08,.19-.04,.09-.08,.18-.11,.28l-.26,.93c-.05,.16-.09,.31-.13,.46l-.02,.08s-.01,.05-.02,.08c0,0-.05,.19-.04,.19l-.2,.88c-.01,.07-.03,.13-.05,.2-.03,.1-.05,.19-.07,.29l-.03,.24c-.02,.1-.03,.2-.04,.3-.01,.13-.02,.25-.05,.39-.05,.22-.07,.43-.09,.63,0,0-.02,.2-.02,.2,0,.05,0,.09-.01,.14l-.02,.27c-.01,.15-.02,.31-.04,.46,0,.06-.02,.11-.02,.17-.02,.1-.03,.21-.03,.33v.23c0,.09,.01,.17,.01,.26,0,.14,.01,.27,0,.42-.01,.16-.01,.31-.02,.46v.16s.01,.2,.02,.2c0,.04,0,.08,0,.12l.02,.28c0,.15,.02,.29,.02,.44,0,.06,0,.12,0,.18,0,.1,0,.2,0,.3l.03,.22c.01,.1,.03,.19,.04,.29,.02,.12,.04,.24,.05,.37,.01,.16,.03,.3,.05,.43l.03,.18,.02,.1s0,.04,0,.06c0,.04,0,.07,0,.1,.01,.07,.03,.16,.09,.24,0,.04-.01,.07-.02,.11-.01,.11-.03,.22-.05,.34-.03,.15-.06,.28-.08,.41v.09s-.02,.05-.03,.08c0,0-.03,.18-.03,.18l-.13,.83c-.01,.07-.03,.13-.04,.2-.02,.08-.04,.17-.05,.26l-.11,.88c-.03,.14-.05,.28-.07,.41l-.17,1.18c0,.07-.02,.13-.04,.19-.02,.09-.04,.17-.05,.26l-.02,.22c-.01,.08-.02,.16-.03,.24-.01,.14-.03,.27-.06,.41-.03,.14-.05,.27-.07,.4l-.03,.24s-.02,.11-.02,.11l-.06,.39c-.02,.14-.05,.29-.08,.43l-.02,.08c-.03,.13-.06,.25-.07,.38l-.03,.22c-.01,.08-.02,.16-.03,.24-.02,.13-.03,.27-.07,.41-.01,.07-.03,.14-.04,.21-.01,.06-.02,.12-.04,.18,0,0-.03,.19-.03,.19l-.08,.54c-.02,.15-.05,.3-.08,.45-.01,.06-.03,.12-.05,.18-.03,.09-.05,.18-.07,.27-.01,.07-.03,.16-.03,.24v.11c-.04,.18-.06,.36-.1,.54-.05,.21-.09,.4-.12,.59l-.02,.09-.09,.49c-.02,.15-.05,.29-.08,.44-.01,.07-.03,.14-.05,.21-.02,.08-.04,.16-.06,.25l-.03,.23c-.01,.08-.03,.17-.04,.25-.02,.14-.04,.28-.07,.42-.03,.14-.06,.26-.08,.39l-.03,.21s-.02,.14-.02,.14l-.05,.33c-.03,.18-.06,.37-.1,.55-.01,.05-.03,.11-.04,.16-.03,.1-.05,.21-.07,.31l-.03,.23s-.01,.1-.02,.15l-.07-.41c-.03-.17-.06-.34-.07-.45l-.06-.55c-.03-.2-.07-.4-.1-.58l-.03-.15c-.03-.13-.06-.26-.08-.4-.03-.17-.05-.31-.06-.43,0-.04-.01-.08-.01-.12,0,0-.03-.16-.03-.16h0s0-.04,0-.04c0,0-.02-.15-.03-.14,0-.05-.01-.09-.03-.15-.02-.1-.06-.24-.09-.38-.05-.19-.1-.4-.12-.52l-.09-.55c-.04-.25-.11-.49-.18-.72-.04-.13-.07-.26-.11-.39-.05-.21-.08-.36-.11-.52,0,0,0-.04,0-.04l-.03-.15s0,0,0-.01c0,0-.04-.19-.04-.18,0-.04-.02-.08-.03-.13-.02-.1-.06-.23-.11-.38-.06-.18-.12-.39-.14-.52l-.11-.54c-.05-.25-.12-.49-.19-.72-.04-.13-.08-.26-.11-.39-.04-.16-.06-.29-.08-.41,0-.05-.02-.1-.03-.16l-.1-.44,.07-.07s0,0,.01-.01v-.04s.15-.33,.15-.32v-.03s.01-.01,.01-.01c0,0,.01-.04,.01-.04,0,0,.06-.26,.06-.26,.04-.15,.08-.3,.11-.46,.05-.23,.09-.47,.13-.7l.02-.15c.03-.18,.06-.36,.08-.54l.02-.31c.01-.2,.01-.39,.01-.59,0-.11,0-.21,0-.33,0-.23-.01-.44-.02-.65,0,0-.01-.14-.01-.15,0,0-.02-.21-.02-.21-.02-.14-.03-.27-.05-.41-.03-.19-.07-.38-.1-.57l-.03-.16c-.02-.09-.03-.19-.05-.28-.01-.1-.03-.2-.05-.31l-.06-.28c-.02-.08-.04-.17-.05-.25-.04-.19-.08-.37-.11-.57-.03-.25-.06-.49-.07-.73-.01-.19-.02-.38-.03-.58,0-.24,0-.48,0-.72,0-.12,.02-.25,.04-.37,.01-.08,.02-.15,.03-.23,0,0,.05-.44,.05-.44,.07-.68,.42-1.17,0-1.74l-.19-.05h-.02c.69-1.45,1.43-2.87,2.22-4.26ZM30.57,114.07c-9.31-6.07-16.28-15.24-20.52-25.44-6.97-16.8-5.71-36.31,1.92-52.68,0,.01,0,.03,0,.04l-.02,.05c-.04,.13-.07,.26-.12,.39l-.27,.72c-.04,.1-.07,.2-.1,.3-.04,.13-.09,.27-.14,.4-.06,.15-.12,.29-.17,.43l-.07,.19s-.05,.14-.05,.14l-.13,.33c-.08,.2-.15,.4-.22,.6-.02,.06-.05,.13-.08,.19-.04,.1-.08,.2-.12,.3l-.08,.25c-.04,.11-.07,.22-.1,.33-.04,.14-.08,.27-.13,.42-.06,.17-.1,.34-.14,.5l-.03,.18s-.04,.17-.03,.17l-.07,.38c-.01,.09-.03,.18-.04,.27-.02,.13-.04,.26-.06,.4,0,.05-.02,.11-.02,.16-.02,.13-.04,.26-.05,.4v1.05c-.02,.13-.01,.25,0,.37,0,.07,.01,.14,.02,.21,0,0,.02,.14,.02,.15,0,0,.03,.2,.03,.2,.02,.12,.05,.23,.07,.36l.1,.33,.05,.11c.03,.06,.05,.13,.08,.19l.11,.25c.04,.08,.09,.16,.13,.23,.03,.05,.08,.1,.13,.16l.04,.04c.1,.11,.2,.2,.3,.29,.06,.05,.12,.1,.19,.17,.11,.1,.22,.19,.32,.27l.24,.17s.07,.06,.13,.09c.05,.03,.1,.05,.18,.06v.04s.06,.28,.07,.28l.22,1.05c.02,.08,.03,.17,.05,.25,.02,.11,.04,.21,.06,.32l.07,.27c.03,.15,.07,.28,.1,.43,.03,.12,.06,.25,.09,.38,0,0,.12,.55,.12,.55l.04,.17s.04,.18,.04,.18l.08,.35c.02,.12,.05,.24,.08,.35,.03,.11,.05,.21,.08,.33,.02,.09,.03,.18,.05,.26,.02,.1,.03,.2,.06,.29l.4,1.92c.03,.13,.05,.26,.07,.4l.12,.67c.01,.08,.02,.16,.03,.25,.01,.1,.02,.21,.04,.31l.05,.28c.05,.27,.09,.52,.12,.8,0,0,.06,.52,.06,.52l.02,.2v.05c.03,.16,.04,.32,.06,.49,.02,.17,.03,.34,.04,.51v.17c.02,.09,.02,.17,.02,.26,0,.09,0,.19,0,.28l.02,.35c.01,.24,.03,.46,.01,.7-.02,.16-.02,.3-.03,.45,0,.02,0,.03,0,.05-.01,.08-.02,.15-.03,.22l-.03,.28s0,.08,0,.08l-.05,.48c-.02,.15-.03,.3-.05,.45,0,.07-.02,.13-.03,.2-.02,.09-.04,.19-.05,.28,0,.07-.01,.17-.01,.25,0,.09,0,.18-.01,.27,0,.14,0,.29-.03,.44-.02,.14-.03,.27-.04,.4,0,0-.01,.22-.01,.22,0,0,0,.14,0,.14,0,.01,0,.03,0,.04-.03-.08-.06-.16-.08-.24-.04-.14-.06-.25-.07-.36l-.04-.18s0-.06-.01-.1l-.02-.16s-.05-.29-.18-.4c-.03-.02-.06-.05-.1-.06-.03-.02-.06-.03-.1-.03,0,0-.08,0-.09,.01l-.03,.02s-.09,.05-.16,.25c0,.02-.03,.1,0,.26,0,.04,0,.08,0,.12v.11s0,.15,0,.15c0,.09,0,.19,0,.29,0,.12,0,.24-.01,.35v.14c-.01,.07-.02,.14-.03,.22,0,.06-.02,.13-.02,.2v.21c-.02,.2-.03,.39-.07,.59,0,0-.06,.36-.06,.36l-.02,.15s-.03,.19-.03,.19c-.01,.08-.02,.16-.04,.24-.01,.07-.03,.15-.04,.22-.01,.1-.03,.19-.05,.29-.01,.06-.03,.11-.04,.17-.02,.08-.04,.17-.06,.25l-.03,.21c-.02,.08-.03,.17-.04,.25-.02,.12-.03,.23-.06,.36-.03,.13-.06,.25-.09,.37l-.04,.21s-.03,.13-.02,.14l-.13,.77c-.01,.05-.02,.1-.04,.16-.02,.09-.05,.18-.06,.28l-.02,.21c-.01,.09-.02,.18-.03,.27-.01,.12-.02,.23-.04,.36-.03,.14-.04,.27-.06,.39l-.02,.21s-.01,.14-.01,.14c0,.09-.02,.18-.02,.27l-.03,.54c0,.06,0,.12-.01,.18,0,.09-.02,.18-.01,.27v.22c.01,.08,.01,.15,.02,.23l.02,.42c0,.14,.01,.27,.02,.4v.08s.02,.06,.02,.1l.02,.17h.01s.11,.81,.11,.81c0,.06,.01,.12,.02,.18,0,.09,.02,.18,.04,.29l.04,.2c.02,.09,.05,.19,.08,.28,.03,.11,.07,.22,.09,.34,.03,.14,.06,.27,.08,.39,0,0,.05,.17,.05,.17l.04,.17h.01s.02,.07,.04,.11l.09,.25c.05,.13,.09,.26,.13,.4,.01,.05,.02,.09,.04,.14,.02,.1,.05,.2,.1,.33l.08,.17c.03,.08,.07,.15,.1,.22,.05,.11,.11,.22,.15,.34,.04,.13,.09,.25,.14,.36l.08,.15s.08,.16,.08,.16l.34,.69c.03,.05,.05,.11,.07,.16,.03,.08,.07,.16,.11,.24l.11,.18c.04,.08,.09,.15,.14,.23,.06,.1,.12,.2,.18,.31,.06,.12,.12,.23,.18,.34l.1,.16s.08,.14,.08,.14l.14,.22c.04,.06,.08,.12,.12,.18,.06,.08,.11,.17,.17,.26,.03,.05,.06,.1,.09,.16,.04,.08,.08,.16,.14,.23l.13,.17c.05,.08,.11,.15,.17,.22,.07,.09,.14,.18,.21,.28,.07,.12,.15,.22,.22,.32,0,0,.1,.14,.1,.14,0,0,.11,.14,.11,.14,.03,.03,.05,.07,.08,.1l.16,.19c.09,.11,.18,.21,.26,.33,.03,.04,.07,.09,.1,.14,.05,.08,.1,.15,.17,.23l.15,.15c.05,.06,.11,.12,.17,.17,.09,.09,.17,.18,.26,.28,.09,.11,.17,.21,.25,.3l.12,.12s0,0,0,0c0,0,.12,.12,.12,.12l.27,.27c.09,.09,.19,.19,.28,.28,.04,.04,.07,.08,.11,.12,.06,.07,.12,.14,.19,.2,.03,.03,.08,.07,.12,.1l.05,.04c.06,.05,.12,.1,.18,.15,.1,.08,.19,.15,.28,.25,.09,.09,.18,.17,.28,.26l.23,.19s.03,.03,.04,.04c.03,.02,.05,.05,.07,.07,.05,.04,.12,.09,.22,.12,.06,.11,.13,.22,.19,.34,.06,.11,.11,.22,.16,.32l.14,.25s0,0,0,.01c0,0,.02,.04,.02,.04,.04,.07,.08,.14,.13,.22,.08,.14,.17,.28,.24,.43,.03,.05,.05,.1,.07,.15,.03,.08,.07,.16,.11,.23l.11,.17c.03,.06,.07,.11,.1,.16,.07,.11,.14,.21,.2,.33,.05,.12,.11,.22,.17,.32l.04,.06s0,.02,.01,.02l.13,.22,.37,.63s.05,.1,.08,.15c.03,.07,.07,.15,.11,.22l.11,.17c.04,.07,.09,.13,.14,.19,.07,.09,.13,.18,.19,.28,.04,.08,.09,.16,.14,.25,0,0,.04,.06,.04,.06l.07,.1s.13,.19,.14,.19l.12,.17c.06,.1,.13,.17,.19,.25,.04,.05,.08,.1,.13,.16,.03,.04,.06,.08,.09,.12,.05,.07,.1,.15,.17,.22l.89,.86,.07,.07s0,0,.01,.01l.12,.12h0s.07,.06,.11,.09l.16,.13c.11,.08,.22,.17,.33,.27,.04,.03,.08,.07,.12,.11,.07,.06,.14,.12,.21,.18l.18,.12c.06,.04,.12,.09,.19,.13,.11,.07,.21,.14,.32,.23,.1,.09,.2,.16,.3,.24,0,0,.15,.11,.15,.11l.43,.31c.11,.08,.22,.16,.33,.25,.05,.04,.1,.08,.14,.13,.06,.06,.12,.11,.18,.16l.17,.12c.06,.05,.12,.09,.19,.13,.11,.07,.2,.14,.3,.23,.1,.09,.19,.17,.28,.25,0,0,.13,.11,.14,.11,0,0,.13,.11,.14,.11l.19,.15c.13,.11,.26,.22,.38,.33,.04,.04,.08,.08,.12,.13,.06,.06,.11,.12,.18,.18l.16,.13c.05,.05,.1,.09,.15,.13-.09-.04-.22-.08-.38-.14-.13-.04-.26-.08-.34-.11l-.44-.17c-.17-.06-.34-.1-.48-.14l-.48-.11c-.15-.03-.26-.07-.36-.1-.03,0-.05-.01-.07-.03l-.23-.06s-.01,0-.02,0c0,0-.09-.02-.09-.02-.04,0-.07-.02-.11-.03-.12-.02-.31-.05-.49-.08-.13-.02-.26-.04-.35-.05-.07-.01-.14-.03-.22-.05-.08-.02-.15-.04-.22-.05h-.06c-.2-.06-.4-.08-.54-.1l-.56-.09c-.25-.05-.41-.08-.59-.14l-.14-.04-.2-.06h0s-.15-.03-.15-.03c-.06-.01-.12-.03-.2-.05-.1-.02-.2-.04-.31-.07-.2-.06-.4-.12-.53-.17l-.08-.03c-.16-.06-.31-.12-.46-.18l-.07-.03c-.17-.08-.34-.15-.51-.22-.26-.11-.53-.22-.78-.37-.33-.18-.53-.3-.74-.44l-.12-.08s-.11-.08-.11-.08l-.13-.09-.03-.18s-.15-.34-.15-.34l-.05-.09-.09-.18s0,0,0,0c0,0-.06-.13-.07-.12-.09-.16-.18-.33-.28-.49-.1-.15-.18-.3-.25-.44-.05-.09-.1-.18-.15-.27l-.1-.17c-.08-.14-.15-.27-.24-.4l-.17-.24c-.11-.15-.22-.29-.34-.43-.06-.07-.13-.15-.19-.23-.12-.15-.25-.3-.39-.44,0,0-.11-.11-.12-.12,0,0-.14-.13-.14-.12-.08-.08-.16-.15-.25-.23l-.05-.04c-.14-.12-.28-.23-.43-.35l-.11-.09c-.06-.05-.11-.09-.17-.14-.09-.08-.18-.15-.27-.22l-.22-.16c-.06-.05-.13-.09-.19-.14-.15-.11-.29-.21-.43-.34-.18-.17-.34-.32-.5-.48-.13-.13-.25-.25-.38-.39-.13-.15-.27-.31-.42-.5-.05-.07-.1-.15-.15-.23-.05-.08-.1-.16-.15-.23,0,0-.21-.3-.23-.33-.2-.29-.26-.68-.49-.96-.16-.19-.53-.37-.74-.15-.28,.31,.2,.85,.29,1.13l.08,.27,.13,.39c.02,.07,.05,.14,.07,.2,.05,.14,.1,.28,.14,.43,.04,.14,.07,.28,.1,.41l.06,.18s.05,.16,.05,.16l.12,.4c.05,.15,.09,.3,.13,.45,.02,.06,.03,.11,.04,.17,.02,.1,.05,.2,.08,.3,.02,.07,.06,.15,.09,.24l.26,.67c.06,.16,.12,.3,.17,.44l.09,.17s.06,.14,.07,.14c.05,.1,.1,.2,.16,.31,.04,.07,.08,.14,.12,.21,.06,.11,.12,.22,.19,.33,.03,.05,.06,.11,.09,.17,.05,.1,.1,.2,.17,.29l.62,.77c.08,.1,.14,.17,.23,.28,.06,.06,.11,.12,.17,.18,0,0,.1,.1,.1,.11,0,0,.15,.14,.15,.14,.11,.1,.21,.19,.32,.28l.31,.22,.12,.07c.08,.05,.16,.09,.23,.13l.29,.15c.1,.04,.2,.08,.29,.11,.06,.02,.13,.03,.21,.04h.08c.14,.04,.27,.05,.38,.05h.07c.1,.01,.2,.02,.31,.03,.13,.01,.24,.02,.36,.02,.06,0,.12,0,.18,0l.29-.02c.05,0,.11,0,.18-.02,.06-.01,.13-.03,.2-.08,0,0,.03,.02,.03,.02l.06,.04,.24,.17v-.02c.11,.06,.21,.13,.31,.19l.14,.08c.29,.17,.54,.31,.81,.44,.08,.04,.15,.08,.23,.11,.15,.07,.29,.15,.43,.21,.07,.03,.16,.06,.25,.09l.11,.04c.33,.11,.64,.22,.97,.32,.29,.08,.54,.16,.79,.22,0,0,.2,.05,.2,.05,.07,.01,.13,.03,.2,.04,.06,.01,.13,.02,.19,.04l.7,.14c.08,.01,.17,.03,.25,.05,.09,.02,.19,.04,.28,.06l.26,.04c.11,.02,.22,.04,.33,.05,.13,.02,.26,.04,.4,.07,.16,.04,.31,.07,.45,.11l.16,.03s.19,.04,.19,.04c.1,.02,.19,.04,.3,.07,.19,.04,.37,.09,.56,.15,.07,.02,.13,.05,.19,.07,.08,.03,.17,.06,.25,.09l.34,.1c.17,.05,.34,.1,.51,.17,0,0,.39,.17,.39,.17l.15,.07h.01c.13,.06,.26,.12,.4,.19,.16,.07,.32,.16,.48,.25,.06,.03,.12,.08,.17,.12,.07,.05,.13,.1,.2,.13l.25,.15c.16,.1,.32,.2,.46,.32,.07,.07,.14,.13,.2,.19,.04,.03,.07,.06,.1,.1,.04,.05,.09,.1,.13,.15l.45,.49c.09,.1,.18,.2,.27,.3,.04,.05,.07,.09,.11,.14,.05,.06,.09,.13,.15,.19l.14,.15c.05,.06,.1,.11,.15,.16,.08,.09,.16,.17,.24,.27,.06,.08,.12,.16,.18,.23,0,0-.02-.01-.03-.02l-.04-.03c-.07-.05-.14-.09-.22-.14-.06-.04-.12-.07-.18-.12l-.39-.26c-.12-.09-.2-.18-.28-.27,0,0-.01-.01-.02-.03l-.12-.12s-.05-.05-.08-.09l-.12-.12s-.22-.22-.38-.25c-.18-.03-.27,.02-.32,.13-.01,.04-.04,.09,.05,.3,0,.02,.04,.09,.16,.21,.03,.04,.06,.07,.09,.11l.19,.24,.52,.7c.06,.08,.11,.15,.17,.23l.1,.15,.28,.34c.1,.12,.2,.23,.31,.37,0,0,.24,.33,.24,.33,0,0,.12,.16,.12,.16,0,0,.09,.13,.1,.12,.02,.03,.04,.05,.07,.08,.05,.05,.09,.1,.14,.16l.12,.14c.08,.1,.17,.2,.25,.3,.04,.05,.07,.1,.11,.15,.06,.08,.11,.16,.18,.24l.16,.17c.06,.07,.12,.13,.18,.19,.09,.1,.19,.2,.28,.32l.04,.05c.08,.09,.15,.18,.22,.27l.88,.93s.07,.08,.11,.13c.07,.08,.14,.17,.22,.24l.18,.16c.07,.07,.15,.13,.23,.2,.1,.09,.2,.17,.3,.27,.1,.1,.21,.2,.31,.3l.2,.17c.11,.09,.22,.18,.34,.27l.48,.37s.09,.07,.13,.1c.09,.07,.17,.14,.27,.2l.82,.52c.13,.09,.26,.16,.38,.24l.17,.1s.14,.08,.14,.08l.3,.17,.54,.27c.06,.03,.12,.06,.18,.1,.08,.05,.17,.1,.26,.14l.23,.1c.1,.04,.19,.07,.29,.11,.12,.04,.25,.09,.38,.15,.15,.07,.28,.12,.42,.18l.16,.06s.16,.06,.17,.06c.04,.01,.09,.03,.13,.04l.73,.24c.05,.02,.1,.04,.15,.06,.1,.04,.2,.08,.34,.12l.2,.05c.09,.02,.17,.04,.26,.06,.13,.03,.27,.06,.4,.11,.16,.05,.3,.09,.44,.12l.15,.03s.19,.04,.19,.04l.84,.18c.06,.01,.13,.03,.19,.05,.09,.02,.18,.05,.27,.07l.22,.03c.09,.02,.18,.03,.28,.04,.12,.02,.25,.04,.38,.06,.15,.03,.3,.06,.45,.09h.1s.04,.02,.06,.02c0,0,.2,.03,.2,.03l.88,.13c.07,0,.13,.02,.2,.04,.1,.02,.19,.04,.29,.05l.24,.02c.1,0,.2,.01,.31,.01,.13,0,.26,0,.39,.02,.16,.02,.32,.03,.48,.04,0,0,.15,0,.16,0,0,0,.2,0,.2,0,.04,0,.09,0,.13,0h.74c.06,0,.13,0,.2,.01,.08,0,.16,.01,.24,.01l.3-.02c.09,0,.18-.02,.26-.02,.13-.01,.27-.03,.41-.03,.18,0,.33-.01,.47-.02l.14-.02s0,0,.01,0h.04s.99-.13,.99-.13c.06,0,.12-.01,.18-.02,.1,0,.2-.02,.3-.03l.22-.05c.09-.02,.17-.04,.26-.06,.12-.03,.25-.06,.39-.08,.16-.03,.3-.06,.44-.08,0,0,.15-.04,.15-.04l.12-.03s.04,0,.07-.01c.04,0,.07-.01,.1-.02,.36-.1,.74-.08,1.11-.03h.18s.18,.02,.18,.01h.29c.19,.02,.37,.02,.56,.04,.07,0,.14,0,.2,.02,.09,0,.17,.02,.27,.02h.23s.11,0,.11,0c.06,0,.12,0,.19,0,.12,0,.24,0,.37,0,.15,0,.28,.02,.42,.02h1.2c.07,.01,.13,.02,.2,.02,.08,0,.17,.02,.26,.02h.22s.08,0,.08,0c.06,0,.13,0,.19,0,.13,0,.26,0,.39,0,.14,.01,.28,.02,.41,.03l1.21,.07c.06,0,.13,.01,.19,.02,.09,.01,.18,.03,.27,.03h.22c.11,.02,.21,.03,.32,.03,.11,0,.23,0,.36,.02l.16,.02c.08,0,.16,.01,.24,.03l.66,.03c.1,0,.2,0,.3,0,.09,0,.18,0,.27,0,.06,0,.13,0,.19,.02,.09,.01,.19,.02,.29,.02,.05,0,.11,0,.17-.01h.16c.19-.03,.37-.04,.57-.04h.05c.14,0,.28-.02,.41-.02,0,0,.21-.02,.22-.02,.05,0,.1,0,.15-.01,.11,0,.23-.02,.33-.04l.59-.08c.06,0,.12-.01,.18-.01,.11,0,.21-.01,.31-.03l.24-.05c.09-.02,.18-.04,.27-.06,.14-.03,.28-.06,.43-.08,.14-.02,.27-.05,.39-.07l.22-.05s.13-.03,.13-.03l.91-.2c.06-.01,.13-.02,.19-.03,.09-.01,.19-.03,.29-.05l.23-.06s.08-.02,.11-.03l-.34,.19c-.15,.09-.3,.19-.41,.24-.11,.06-.23,.12-.35,.18l-.15,.08c-.18,.09-.36,.2-.54,.31-.17,.11-.32,.21-.5,.3-.17,.1-.31,.16-.43,.23-.04,.02-.08,.04-.11,.06l-.47,.24c-.1,.05-.24,.13-.39,.21-.19,.11-.4,.23-.54,.29l-1.77,.78c-.25,.09-.43,.15-.61,.21,0,0-.06,.02-.06,.02l-.13,.04s-.2,.06-.19,.07c-.05,.02-.09,.03-.14,.05-.1,.03-.25,.09-.4,.14-.2,.07-.43,.16-.56,.19l-.56,.15c-.27,.07-.5,.15-.74,.24-.12,.04-.24,.08-.36,.12-.15,.05-.27,.08-.38,.11-.05,.01-.09,.03-.14,.04l-.41,.13-.07-.06s-.35-.12-.35-.13c0,0-.05,0-.05,0,0,0-.04,0-.04,0,0,0-.26-.04-.26-.04-.13-.02-.27-.04-.42-.05-.23-.02-.48-.03-.71-.04h-.06c-.07,0-.14,0-.21,0-.11,0-.22,0-.34,0l-.41,.02c-.16,.01-.32,.03-.48,.05-.14,.02-.28,.03-.44,.05-.23,.02-.44,.06-.66,.1,0,0-.14,.03-.14,.03,0,0-.21,.04-.21,.05-.13,.03-.27,.06-.41,.09l-.71,.2c-.07,.02-.15,.04-.22,.06-.12,.03-.25,.06-.37,.1l-.27,.09c-.08,.02-.16,.05-.24,.07-.19,.06-.36,.11-.57,.16-.22,.05-.43,.08-.63,.12h-.09s-.02,.02-.02,.02c-.19,.03-.39,.06-.59,.09-.24,.03-.49,.04-.73,.05h-.06c-.1,0-.21,0-.31,0-.08,0-.16,0-.24,0h-.43c-.26-.01-.5-.02-.76-.06-.25-.04-.98-.34-1.01,.03-8.79-1.09-17.33-4.12-24.75-8.96Zm70.08-3.72c-3.22,3.26-7.2,5.59-11.31,7.53-6.75,3.19-14.1,4.94-21.54,5.45,.04-.07,.08-.13,.12-.19h0s.14-.25,.14-.25c.02-.04,.05-.08,.07-.13,.02-.04,.04-.1,.05-.17l.27-.07h.03s0,0,0,0l1.17-.32c.13-.03,.27-.06,.4-.1l.28-.09c.14-.04,.27-.08,.41-.13,.14-.05,.29-.1,.45-.14h.05c.21-.07,.41-.13,.61-.2h0s.06-.02,.06-.02c.03,0,.06-.02,.08-.03l.2-.07h0s1.32-.5,1.32-.5c.16-.06,.33-.12,.49-.2l.73-.36c.13-.07,.26-.15,.41-.22l.16-.07c.15-.07,.29-.14,.42-.21h0s.79-.44,.79-.44c.19-.1,.37-.2,.54-.3,.08-.04,.15-.08,.23-.12,.1-.05,.2-.1,.29-.15l.26-.15c.07-.04,.15-.09,.22-.13,.16-.1,.32-.2,.49-.29,.17-.08,.33-.17,.48-.25h0s.18-.09,.18-.09l.13-.07h0c.11-.06,.22-.13,.35-.19,.2-.11,.4-.2,.6-.3,.07-.03,.15-.06,.22-.09,.09-.04,.19-.07,.28-.12l.31-.15c.21-.1,.41-.19,.63-.26l.46-.14c.07-.01,.13-.03,.2-.04h0s.23-.06,.23-.06l.12-.03h0s.44-.11,.44-.11c.14-.04,.28-.07,.42-.1,.06-.01,.13-.02,.19-.03,.09-.01,.18-.03,.27-.05l.22-.07c.08-.02,.16-.05,.24-.07,.13-.04,.26-.08,.4-.11,.13-.03,.25-.05,.36-.08h0s.25-.06,.25-.06l.09-.02s.04,0,.06-.01c.04,0,.07-.01,.14-.03,.08-.02,.16-.04,.26-.13,.14-.12,.23-.33,.14-.49-.04-.08-.11-.13-.2-.17-.02,0-.05-.01-.08-.02h-.06c-.07,0-.14,.02-.21,.04-.02,0-.03,.01-.05,.01h-.01s0,0,0,0l-.2,.04s0,0,0,0l-.14,.03h0s-.08,.02-.12,.03c-.08,.02-.2,.06-.33,.1-.15,.05-.31,.1-.4,.12-.06,.01-.12,.02-.19,.03-.06,.01-.13,.02-.19,.03h-.05c-.18,.05-.37,.1-.55,.16-.12,.04-.24,.07-.36,.1-.14,.04-.25,.06-.36,.08h0s-.19,.03-.19,.03c0,0,0,0-.01,0l-.14,.03h0s-.08,.02-.12,.03c-.08,.02-.19,.05-.3,.09-.16,.05-.32,.1-.43,.12-.06,.01-.13,.02-.19,.04-.06,.01-.13,.02-.19,.03h-.05c-.21,.05-.41,.11-.61,.17-.1,.03-.21,.06-.31,.09-.08,.02-.15,.04-.21,.05-.02,0-.03,0-.05,0h-.07s-.05,0-.08,0h-.34s0-.01,0-.01h-.35c-.18-.02-.35-.03-.52-.04-.07,0-.13-.01-.2-.02-.08-.01-.16-.02-.25-.03h-.23c-.08-.02-.15-.02-.22-.02-.14,0-.28-.01-.43-.03-.12-.02-.23-.03-.34-.05h0s-.23-.03-.23-.03c-.14-.02-.29-.04-.43-.06-.18-.03-.35-.06-.52-.09-.07-.01-.13-.03-.19-.05-.07-.02-.15-.04-.23-.06l-.32-.06c-.16-.04-.32-.07-.47-.13l-.31-.11h0s-.18-.06-.18-.06h-.02c-.12-.05-.24-.09-.37-.15-.15-.06-.29-.13-.43-.21-.06-.03-.11-.07-.17-.1-.05-.03-.11-.07-.17-.1l-.23-.13c-.13-.08-.26-.16-.37-.26l-.11-.1c0-.09,0-.17,0-.25-.01-.14-.04-.28-.07-.4l-.04-.15s0,0,0-.01l-.03-.12c-.02-.05-.04-.12-.08-.18l-.07-.11s-.05-.07-.08-.11c-.04-.05-.11-.12-.17-.17-.08-.08-.16-.15-.24-.21-.05-.04-.1-.09-.16-.14,11.89,1.2,25.44-1.49,35-9.11-1.66,2.43-3.46,4.76-5.53,6.86Z"/>
    <path class="cls-4" d="M27.64,21.67c.1,0,.15-.07,.19-.11,.01-.02,.03-.03,.04-.05,.13-.14,.22-.37,.31-.7,.03-.26-.01-.35-.06-.4-.04-.04-.09-.07-.15-.07h-.09s-.05,.05-.05,.05c-.13,.09-.23,.27-.35,.62-.04,.12-.07,.21-.08,.28-.01,.07,.01,.14,.03,.19,.04,.17,.14,.2,.2,.2Z"/>
    <path class="cls-4" d="M26.22,24.21c-.04,.11-.08,.23-.07,.33,0,.05,.03,.09,.05,.13-.06,.02-.11,.06-.15,.09-.04,.04-.13,.19-.15,.22l-.12,.25h0s-.1,.22-.1,.22l-.05,.1h0s-.32,.74-.32,.74c-.06,.13-.12,.26-.21,.42-.24,.46-.53,1-.83,1.53-.27,.48-.58,.95-.94,1.44l-.08,.11c-.09,.12-.18,.24-.25,.37-.1,.2-.24,.36-.39,.52-.05,.05-.09,.11-.14,.16h0s-.13,.17-.13,.17l-.08,.11h0c-.07,.09-.13,.18-.19,.27-.11,.16-.15,.29-.12,.39l.03,.1,.07,.04c.06,.03,.13,.06,.21,.06,.05,0,.1-.01,.14-.04,.1-.07,.2-.2,.32-.35l.11-.15,.67-.86,.62-.85c.04-.06,.08-.12,.12-.19,.02-.03,.04-.07,.06-.1l.5-.82c.04-.07,.08-.14,.12-.21,.11-.18,.2-.34,.27-.48l.05-.09c.06-.12,.12-.23,.17-.34l.2-.43c.07-.15,.14-.3,.24-.48,.04-.09,.12-.27,.18-.41l.3-.72,.12-.26s.06-.15,.06-.22c0-.07-.01-.12-.04-.17,.02,0,.04-.01,.06-.02,.1-.05,.17-.18,.23-.31,.11-.23,.19-.46,.27-.69l.09-.26c.04-.12,.08-.23,.13-.34,.17-.33,.3-.6,.4-.97v-.05s0-.05,0-.05c0-.01,0-.03,0-.04-.01-.06-.03-.15-.1-.21l-.08-.05h-.06c-.16,0-.26,.16-.37,.35-.12,.32-.23,.63-.36,.94l-.1,.24c-.13,.32-.16,.38-.34,.84l-.02,.05Zm.17,.41h0l-.05,.05s0,0,0,0l.05-.05Z"/>
    <path class="cls-4" d="M21.84,32.26c-.11-.05-.25-.04-.33,.02-.3,.24-.83,.85-.81,1.22,0,.11,.05,.2,.14,.26l.06,.03h.05c.3,0,.84-.89,.97-1.19,.04-.1,.06-.29-.08-.35Z"/>
    <path class="cls-4" d="M23.48,24.4h.08c.05,0,.09-.02,.12-.04,.01,0,.03-.01,.04-.02,.18-.06,.33-.26,.46-.43l.03-.04c.1-.2,.12-.32,.06-.42-.04-.06-.11-.11-.2-.1-.15,.02-.32,.14-.52,.37-.07,.09-.12,.16-.15,.21-.03,.06-.03,.13-.03,.19,0,.04-.01,.13,.05,.2l.06,.06Z"/>
    <path class="cls-4" d="M18.62,35.08h0c.17,0,.26-.17,.33-.56,.03-.12,.05-.26,.06-.38,.02-.14,.02-.27,.02-.37,0-.11-.08-.25-.24-.25h0c-.09,.01-.21,.06-.27,.16-.06,.1-.11,.23-.15,.37-.05,.17-.07,.3-.08,.41-.02,.25,.02,.42,.11,.52,.06,.06,.14,.1,.22,.1Z"/>
    <path class="cls-4" d="M18.72,33.22h.09c.08,0,.23-.02,.31-.14,.06-.09,.1-.23,.13-.35l.02-.07h0s.04-.14,.04-.14v-.02c.06-.19,.13-.38,.19-.57l.09-.27c.08-.25,.18-.51,.31-.83,.02-.05,.04-.11,.06-.17,.01-.03,.02-.07,.03-.1,.15-.42,.26-.67,.38-.93,.15-.3,.26-.55,.37-.79,.09-.2,.2-.45,.38-.75,.04-.06,.1-.17,.15-.27,.04-.07,.07-.13,.1-.18l.06-.13,.22-.33h0s.12-.19,.12-.19c.01-.02,.07-.14,.08-.21,0-.04,0-.08-.02-.11h.01c.12-.02,.21-.11,.3-.21,.12-.14,.22-.3,.32-.45,.04-.07,.08-.13,.13-.2l.04-.06c.06-.1,.11-.17,.19-.25,.06-.06,.11-.12,.17-.17,.15-.15,.28-.29,.41-.49l.03-.05v-.06s0-.03,0-.05c0-.06,.01-.14-.03-.22-.04-.08-.12-.13-.21-.13-.1,0-.2,.06-.31,.15l-.31,.36c-.07,.08-.13,.16-.19,.25l-.38,.5c-.06,.07-.11,.14-.19,.26l-.14,.19c-.06,.09-.13,.2-.13,.32,0,.04,.01,.07,.02,.1-.04,0-.08,.02-.12,.04-.06,.03-.17,.15-.18,.18l-.12,.18h0s-.11,.17-.11,.17l-.08,.12h0s-.15,.24-.15,.24c-.08,.14-.14,.26-.2,.38-.06,.12-.12,.23-.2,.37-.11,.18-.2,.37-.3,.56l-.24,.49-.26,.62c-.06,.15-.13,.31-.18,.46-.09,.24-.18,.48-.28,.72-.06,.17-.13,.34-.15,.52-.02,.18-.08,.34-.15,.51-.03,.07-.05,.14-.07,.21h0s-.04,.15-.04,.15h0s0,0,0,0v.04c-.05,.13-.08,.26-.1,.39-.02,.11-.02,.27,.05,.36l.08,.07Z"/>
    <path class="cls-4" d="M11.7,46.85s.09,0,.13-.03l.04-.02c.06-.05,.1-.12,.11-.22,.02-.17-.02-.44-.14-.6-.04-.05-.1-.07-.15-.08,.05-.06,.09-.13,.1-.22,.03-.28,0-.53-.06-.74,0-.02,0-.04-.01-.06-.01-.07-.05-.24-.18-.29,.03-.02,.06-.05,.08-.1,.09-.2,.03-.69-.07-.94-.03-.07-.12-.15-.22-.15l-.08,.02s-.16,.08-.2,.2c-.07,.25-.09,.69,.07,.9,.04,.05,.1,.09,.16,.1-.09,.05-.16,.16-.12,.36,0,.02,0,.04,0,.05-.01,.24-.01,.59,.15,.9l.07,.13s-.02,.03-.02,.04c-.05,.18-.04,.45,.08,.62,.06,.09,.15,.13,.25,.13h0Z"/>
    <path class="cls-4" d="M14.1,71.94c.05,.05,.12,.07,.17,.08,.03,.01,.08,.03,.12,.03h.1s.05-.07,.05-.07c.06-.07,.04-.16,.03-.21,0-.02,0-.03-.01-.06-.02-.19-.16-.4-.34-.63-.2-.18-.3-.18-.34-.18-.11,0-.2,.08-.21,.2-.02,.16,.06,.35,.25,.63,.07,.1,.12,.17,.17,.22Z"/>
    <path class="cls-4" d="M14.45,72.23c-.06,.12-.02,.26,.04,.41l.02,.03c.17,.26,.33,.52,.49,.79l.54,.92,.03,.04c.06,.09,.12,.19,.22,.24,.03,.02,.07,.02,.11,.03-.02,.04-.03,.09-.02,.14,0,.06,.06,.22,.07,.25l.1,.21h0s.09,.19,.09,.19l.06,.13h0s.13,.25,.13,.25c.08,.16,.14,.28,.2,.4,.06,.12,.11,.24,.17,.39l.1,.25c.16,.42,.32,.82,.45,1.23,.18,.58,.3,1.06,.37,1.53l.02,.13c.02,.14,.04,.28,.08,.41,.07,.21,.08,.43,.09,.65,0,.04,0,.09,0,.13h0s.02,.2,.02,.2v.15s.02,0,.02,0c0,.09,.02,.19,.03,.28,.02,.14,.09,.37,.28,.37h.06c.07-.03,.24-.08,.28-.23,.03-.11,.02-.27,0-.46l-.02-.18v-.03s0-.03,0-.04v-.14s-.01,0-.01,0c-.02-.25-.05-.51-.09-.81l-.16-.98c-.01-.07-.03-.14-.05-.2-.01-.03-.02-.07-.03-.1l-.31-1.07c-.06-.2-.11-.35-.17-.48l-.04-.09c-.05-.11-.09-.22-.14-.32l-.18-.4c-.06-.13-.13-.28-.2-.45-.04-.09-.13-.26-.2-.39l-.33-.61h0s-.12-.23-.12-.23c0-.01-.08-.13-.14-.17-.04-.03-.09-.05-.14-.06,0,0,0-.02,.01-.03,.03-.11-.02-.24-.08-.37-.12-.26-.28-.49-.44-.73l-.05-.08c-.07-.09-.12-.18-.17-.27-.15-.33-.27-.56-.49-.83l-.03-.04-.05-.02s-.03-.01-.04-.02c-.05-.02-.11-.05-.17-.05h-.05c-.07,.02-.13,.06-.16,.12Z"/>
    <path class="cls-4" d="M18.32,82.33c-.1,.03-.21,.11-.24,.23-.08,.38-.08,1.04,.14,1.32,.09,.11,.2,.14,.27,.14h.05c.06-.01,.12-.05,.16-.11,.14-.23,.04-1.01-.09-1.38-.03-.08-.12-.2-.24-.2h-.06Z"/>
    <path class="cls-4" d="M13.49,76.46s.08,.08,.17,.08c.09,0,.16-.06,.2-.17,0-.01,0-.03,.02-.04,.09-.17,.05-.41,0-.61v-.03c-.1-.2-.2-.29-.32-.29-.07,0-.13,.03-.17,.08-.1,.12-.12,.31-.08,.6,.01,.1,.03,.18,.06,.24,.03,.07,.09,.11,.13,.14Z"/>
    <path class="cls-4" d="M17.47,85.7c-.06-.1-.13-.2-.21-.29-.08-.11-.16-.19-.23-.26-.05-.05-.13-.08-.2-.08h-.09s-.05,.05-.05,.05c-.07,.07-.14,.18-.11,.29,.02,.11,.07,.22,.12,.35,.06,.12,.13,.23,.2,.32,.15,.19,.3,.29,.45,.29,.07,0,.14-.02,.2-.07,.17-.14,.04-.4-.09-.61Z"/>
    <path class="cls-4" d="M16.54,84.31h0s0,0,0,0l-.07-.13-.02-.03c-.08-.16-.16-.32-.23-.48l-.11-.23c-.12-.24-.22-.48-.32-.72-.02-.05-.05-.1-.07-.14-.02-.03-.03-.05-.04-.08-.17-.35-.26-.58-.35-.81-.11-.28-.19-.5-.29-.71-.1-.23-.18-.44-.25-.69-.02-.06-.06-.17-.09-.27-.02-.06-.05-.12-.06-.16,0-.02-.02-.05-.03-.08,0-.02-.02-.04-.02-.04l-.09-.37h0s-.04-.17-.04-.17c0-.03-.05-.14-.11-.19-.02-.02-.04-.03-.07-.04,.06-.09,.06-.21,.05-.32-.02-.17-.06-.33-.11-.49-.02-.07-.04-.13-.05-.2v-.05c-.04-.1-.06-.18-.07-.28v-.13c-.01-.23-.02-.43-.1-.67l-.02-.06-.05-.03s-.02-.02-.03-.03c-.04-.04-.1-.09-.18-.1h-.04c-.25,0-.28,.29-.29,.39v.02s.2,1.24,.2,1.24c.01,.08,.03,.16,.06,.28l.05,.2c.03,.09,.06,.22,.15,.29,.02,.01,.03,.02,.05,.03-.01,.02-.03,.05-.04,.08-.02,.06-.01,.21,0,.25l.04,.18h-.01s.05,.2,.05,.2l.03,.15h0s.06,.22,.06,.22c.04,.12,.07,.21,.11,.3,.05,.13,.09,.25,.13,.4,.05,.18,.11,.36,.17,.53l.39,.98c.06,.13,.11,.27,.17,.4,.09,.2,.19,.41,.27,.61,.06,.15,.12,.3,.23,.43,.1,.12,.16,.26,.22,.41,.02,.05,.04,.1,.07,.16h0s.08,.16,.08,.16c0,0,0,0,0,0l.08,.15h0c.04,.06,.07,.13,.11,.18,.05,.08,.16,.21,.3,.21h.09s.05-.05,.05-.05c.06-.06,.18-.16,.17-.3,0-.11-.07-.23-.14-.36Zm-2.46-5.41h0s0,.01,0,.01h0Z"/>
    <path class="cls-4" d="M18.43,98.3h-.05s-.1,.01-.15,.04c0-.09-.01-.18-.07-.26-.13-.2-.3-.43-.55-.58-.01,0-.03-.02-.04-.03-.06-.04-.14-.11-.24-.11-.02,0-.04,0-.07,.02,0-.03,0-.07,0-.12-.05-.21-.39-.53-.62-.64-.04-.02-.08-.02-.11-.02-.09,0-.16,.04-.2,.1-.03,.05-.09,.17-.05,.28,.1,.25,.39,.62,.68,.62h0s.07-.01,.1-.02c-.01,.03-.02,.07-.01,.11,.01,.11,.09,.17,.15,.22,.02,.01,.04,.03,.04,.04,.18,.24,.41,.51,.73,.65l.15,.07s0,.04,.01,.06c.11,.23,.38,.48,.61,.48,.13,0,.23-.07,.29-.23,.05-.25-.4-.62-.62-.66Z"/>
    <path class="cls-4" d="M39.48,110.54s-.04-.02-.06-.03c-.17-.1-.43-.15-.67-.18h-.04s-.01,0-.01,0c-.25,0-.38,.05-.42,.17-.02,.06-.02,.16,.06,.23,.15,.14,.45,.21,.67,.25,.09,.01,.2,.03,.28,.03h.01c.07,0,.13-.03,.18-.06,.1-.04,.16-.1,.16-.19,0-.13-.1-.18-.15-.21Z"/>
    <path class="cls-4" d="M41.19,111.39c.44,.09,.53,.1,.81,.15l.4,.07c.07,.01,.14,.02,.21,.02,.05,0,.09,0,.13-.02,.05-.02,.09-.04,.12-.07,.04,.07,.1,.11,.12,.12,.06,.04,.25,.1,.26,.1l.28,.07h0s.18,.04,.18,.04l.16,.04h0s.31,.06,.31,.06c.19,.05,.34,.08,.49,.1,.14,.03,.29,.07,.46,.11l.45,.13c.41,.12,.84,.25,1.24,.39,.65,.23,1.17,.44,1.64,.67l.13,.06c.14,.07,.27,.14,.42,.19,.24,.08,.45,.21,.67,.34,.04,.03,.08,.05,.13,.08h0s.17,.1,.17,.1l.13,.08h0c.1,.05,.2,.11,.31,.16,.06,.03,.21,.09,.31,.09,.12,0,.18-.07,.21-.14,.02-.06,.08-.23-.04-.35-.08-.09-.23-.17-.4-.27l-.19-.1h-.02s0-.02,0-.02l-.14-.08h0c-.27-.15-.55-.3-.82-.45l-.99-.48c-.07-.03-.14-.06-.21-.08-.04-.01-.08-.03-.11-.04l-1.17-.43c-.2-.07-.38-.13-.54-.17l-.1-.03c-.13-.04-.25-.07-.38-.1l-.47-.12c-.16-.04-.33-.08-.53-.13l-1.21-.25h0s-.29-.06-.29-.06c-.03,0-.13-.01-.17-.01h-.04c-.06,.01-.12,.04-.16,.07,0-.02-.02-.04-.04-.06-.07-.07-.18-.11-.35-.16-.23-.06-.46-.09-.68-.12-.08-.01-.15-.02-.23-.03h-.1c-.13-.03-.24-.05-.36-.08-.34-.1-.63-.16-1.02-.21h-.05s-.05,.02-.05,.02c-.01,0-.03,.01-.04,.02-.06,.02-.15,.05-.19,.14-.03,.06-.04,.12-.01,.18,.05,.12,.19,.19,.4,.26l.31,.05c.23,.04,.46,.08,.69,.12Z"/>
    <path class="cls-4" d="M52.63,115.54c.18,0,.27-.1,.3-.16l.04-.1-.03-.08c-.1-.24-.9-.67-1.28-.79-.04-.01-.09-.02-.13-.02-.15,0-.2,.08-.22,.13-.03,.09-.04,.23,.06,.33,.25,.24,.87,.7,1.25,.7Z"/>
    <path class="cls-4" d="M43.13,113.91c-.1-.16-.33-.27-.57-.37-.06-.02-.15-.03-.23-.03-.1,0-.17,.03-.22,.1l-.05,.11,.03,.09c.05,.13,.19,.26,.48,.41,.1,.05,.18,.09,.24,.11h.07s.08,0,.11,0c.04,0,.16-.01,.21-.13,.05-.11-.02-.19-.05-.23,0-.01-.02-.02-.03-.04Z"/>
    <path class="cls-4" d="M53.88,117.12c-.12-.02-.26-.03-.38-.03-.14,0-.26,0-.37,0-.07,0-.16,.05-.2,.12l-.05,.08,.02,.08c.02,.09,.08,.2,.19,.24,.11,.04,.24,.09,.39,.12,.15,.03,.29,.05,.42,.05h.03c.24,0,.4-.05,.49-.15,.06-.06,.08-.14,.07-.23-.02-.18-.23-.24-.59-.29Z"/>
    <path class="cls-4" d="M52.43,117.04c-.09-.05-.24-.08-.4-.11h-.04s-.01-.01-.01-.01l-.17-.04c-.19-.04-.38-.09-.57-.13l-.27-.07c-.28-.07-.56-.14-.84-.22-.05-.01-.11-.03-.17-.04-.03,0-.07-.01-.1-.02-.39-.09-.65-.16-.95-.25-.31-.09-.57-.17-.82-.23-.27-.07-.51-.14-.79-.24-.07-.02-.19-.06-.3-.1-.07-.02-.14-.04-.19-.06l-.5-.18h0s-.2-.08-.2-.08c-.03-.01-.15-.04-.21-.04-.04,0-.08,.02-.11,.03,0,0,0,0,0,0-.04-.11-.15-.18-.27-.24-.16-.09-.33-.15-.49-.21-.08-.03-.15-.06-.23-.09l-.06-.02c-.11-.04-.19-.08-.29-.13l-.13-.08c-.21-.13-.39-.24-.65-.34l-.05-.02h-.05s-.03,.02-.05,.02c-.06,0-.14,.01-.2,.07-.06,.05-.09,.11-.09,.18,0,.14,.12,.24,.23,.32l1.26,.62c.08,.04,.16,.07,.29,.13l.22,.09c.08,.03,.18,.07,.28,.07h.06s.06-.03,.09-.04c.01,.04,.03,.07,.06,.11,.04,.05,.17,.13,.21,.14l.19,.08h0s.2,.08,.2,.08l.13,.06h0s.25,.09,.25,.09c.13,.04,.24,.08,.34,.11,.14,.04,.28,.08,.45,.15,.19,.08,.39,.14,.59,.2l1.58,.44c.24,.06,.47,.12,.71,.18,.16,.05,.33,.09,.51,.1,.18,0,.35,.06,.52,.11,.07,.02,.14,.04,.22,.06h0s.15,.04,.15,.04h0s.19,.04,.19,.04h0c.08,0,.16,.02,.24,.03,.02,0,.05,0,.08,0,.14,0,.23-.03,.28-.09l.06-.08v-.08c-.03-.07-.05-.22-.17-.29Z"/>
  </g>
  <g>
    <path d="M136.87,87.2c0-.13,.1-.24,.24-.24h4.99c.14,0,.24,.11,.24,.24v.37c0,.13-.1,.24-.24,.24h-4.25v3.09h3.63c.13,0,.24,.11,.24,.24v.37c0,.14-.11,.24-.24,.24h-3.63v3.23h4.25c.14,0,.24,.11,.24,.24v.37c0,.13-.1,.24-.24,.24h-4.99c-.14,0-.24-.11-.24-.24v-8.38Z"/>
    <path d="M145.37,87.06c0-.13,.11-.23,.24-.23h.32l5.71,7.12h.03v-6.75c0-.13,.1-.24,.24-.24h.44c.13,0,.24,.11,.24,.24v8.52c0,.13-.11,.23-.24,.23h-.23l-5.81-7.26h-.01v6.89c0,.13-.1,.24-.24,.24h-.44c-.13,0-.24-.11-.24-.24v-8.52Z"/>
    <path d="M156.19,87.2c0-.13,.1-.24,.24-.24h4.99c.14,0,.24,.11,.24,.24v.37c0,.13-.1,.24-.24,.24h-4.25v3.09h3.63c.13,0,.24,.11,.24,.24v.37c0,.14-.11,.24-.24,.24h-3.63v3.23h4.25c.14,0,.24,.11,.24,.24v.37c0,.13-.1,.24-.24,.24h-4.99c-.14,0-.24-.11-.24-.24v-8.38Z"/>
    <path d="M164.7,87.2c0-.13,.1-.24,.24-.24h3.28c1.52,0,2.76,1.19,2.76,2.7,0,1.16-.77,2.14-1.87,2.58l1.74,3.22c.09,.16,0,.37-.22,.37h-.65c-.11,0-.18-.06-.2-.11l-1.68-3.36h-2.42v3.23c0,.13-.11,.24-.24,.24h-.49c-.14,0-.24-.11-.24-.24v-8.38Zm3.46,4.32c.98,0,1.82-.81,1.82-1.85,0-.96-.85-1.79-1.82-1.79h-2.46v3.63h2.46Z"/>
    <path d="M178.01,86.83c1.28,0,2.2,.44,3.06,1.18,.1,.1,.11,.25,.01,.35-.11,.11-.25,.24-.35,.35-.11,.13-.19,.11-.33-.01-.65-.57-1.56-.99-2.41-.99-2,0-3.52,1.67-3.52,3.63s1.52,3.66,3.52,3.66c1.39,0,2.28-.53,2.28-.53v-1.77h-1.46c-.14,0-.24-.1-.24-.23v-.47c0-.14,.1-.24,.24-.24h2.19c.13,0,.23,.11,.23,.24v2.9c0,.06-.05,.16-.1,.2,0,0-1.29,.84-3.13,.84-2.53,0-4.57-2.01-4.57-4.55s2.04-4.57,4.57-4.57Z"/>
    <path d="M184.36,87.2c0-.13,.11-.24,.24-.24h.51c.13,0,.24,.11,.24,.24v8.38c0,.13-.11,.24-.24,.24h-.51c-.13,0-.24-.11-.24-.24v-8.38Z"/>
    <path d="M188.04,95.36l4.6-7.47v-.04h-3.99c-.13,0-.24-.11-.24-.24v-.41c0-.13,.11-.24,.24-.24h5.13c.13,0,.24,.11,.24,.24v.16l-4.67,7.56h0s4.18,.01,4.18,.01c.14,0,.24,.11,.24,.24v.41c0,.13-.1,.24-.24,.24h-5.24c-.13,0-.24-.11-.24-.24v-.23Z"/>
    <path d="M196.72,87.2c0-.13,.1-.24,.24-.24h4.99c.14,0,.24,.11,.24,.24v.37c0,.13-.1,.24-.24,.24h-4.25v3.09h3.63c.13,0,.24,.11,.24,.24v.37c0,.14-.11,.24-.24,.24h-3.63v3.23h4.25c.14,0,.24,.11,.24,.24v.37c0,.13-.1,.24-.24,.24h-4.99c-.14,0-.24-.11-.24-.24v-8.38Z"/>
    <path d="M205.23,87.2c0-.13,.1-.24,.23-.24h2.84c2.44,0,4.44,1.99,4.44,4.42s-2,4.44-4.44,4.44h-2.84c-.13,0-.23-.11-.23-.24v-8.38Zm2.86,7.75c2.08,0,3.58-1.48,3.58-3.57s-1.51-3.56-3.58-3.56h-1.9v7.13h1.9Z"/>
    <path d="M223.45,86.83c1.28,0,2.2,.44,3.06,1.18,.1,.1,.11,.25,.01,.35l-.34,.34c-.1,.13-.2,.11-.33-.01-.66-.57-1.56-.95-2.42-.95-2,0-3.53,1.68-3.53,3.65s1.53,3.63,3.53,3.63c1.1,0,1.75-.44,2.42-.95,.13-.1,.23-.09,.3-.04l.38,.34c.1,.08,.08,.25-.01,.34-.86,.84-1.95,1.23-3.08,1.23-2.53,0-4.57-2.01-4.57-4.55s2.04-4.57,4.57-4.57Z"/>
    <path d="M228.28,95.5l3.85-8.52c.04-.08,.1-.14,.21-.14h.13c.11,0,.18,.06,.21,.14l3.82,8.52c.08,.16-.02,.33-.21,.33h-.51c-.11,0-.19-.08-.21-.14l-.94-2.09h-4.5l-.92,2.09c-.03,.06-.1,.14-.22,.14h-.51c-.19,0-.29-.16-.21-.33Zm6.02-2.68c-.62-1.38-1.23-2.77-1.85-4.15h-.1l-1.85,4.15h3.8Z"/>
    <path d="M238.9,87.06c0-.13,.11-.23,.24-.23h.32l5.71,7.12h.02v-6.75c0-.13,.1-.24,.24-.24h.44c.13,0,.24,.11,.24,.24v8.52c0,.13-.11,.23-.24,.23h-.23l-5.81-7.26h-.01v6.89c0,.13-.1,.24-.24,.24h-.44c-.13,0-.24-.11-.24-.24v-8.52Z"/>
    <path d="M249.72,87.2c0-.13,.1-.24,.23-.24h2.84c2.44,0,4.45,1.99,4.45,4.42s-2,4.44-4.45,4.44h-2.84c-.13,0-.23-.11-.23-.24v-8.38Zm2.86,7.75c2.08,0,3.58-1.48,3.58-3.57s-1.51-3.56-3.58-3.56h-1.9v7.13h1.9Z"/>
    <path d="M260.19,87.2c0-.13,.1-.24,.24-.24h.49c.13,0,.24,.11,.24,.24v7.78h3.65c.14,0,.24,.11,.24,.24v.37c0,.13-.1,.24-.24,.24h-4.38c-.14,0-.24-.11-.24-.24v-8.38Z"/>
    <path d="M267.42,87.2c0-.13,.1-.24,.24-.24h4.99c.14,0,.24,.11,.24,.24v.37c0,.13-.1,.24-.24,.24h-4.25v3.09h3.63c.13,0,.24,.11,.24,.24v.37c0,.14-.11,.24-.24,.24h-3.63v3.23h4.25c.14,0,.24,.11,.24,.24v.37c0,.13-.1,.24-.24,.24h-4.99c-.14,0-.24-.11-.24-.24v-8.38Z"/>
    <path d="M275.36,94.49c.06-.08,.13-.16,.19-.24,.13-.16,.27-.27,.44-.11,.09,.08,1.01,.96,2.14,.96,1.03,0,1.7-.65,1.7-1.39,0-.87-.76-1.39-2.22-2-1.39-.61-2.23-1.18-2.23-2.62,0-.86,.68-2.25,2.7-2.25,1.24,0,2.16,.65,2.16,.65,.08,.04,.23,.19,.08,.43-.05,.08-.1,.17-.15,.24-.11,.18-.24,.23-.44,.11-.09-.05-.89-.58-1.66-.58-1.34,0-1.75,.86-1.75,1.39,0,.85,.65,1.34,1.71,1.79,1.71,.7,2.81,1.34,2.81,2.81,0,1.32-1.25,2.28-2.73,2.28s-2.51-.87-2.67-1.03c-.1-.09-.23-.19-.08-.43Z"/>
  </g>
</svg>